<?xml version="1.0" standalone="no"?>
<!DOCTYPE svg PUBLIC "-//W3C//DTD SVG 1.1//EN" "http://www.w3.org/Graphics/SVG/1.1/DTD/svg11.dtd" >
<svg xmlns="http://www.w3.org/2000/svg" xmlns:xlink="http://www.w3.org/1999/xlink" version="1.1">
<metadata>
Created by FontForge 20201107 at Thu Jun 27 14:52:26 2024
 By 
(c)Miftahul Arzaq
</metadata>
<defs>
<font id="AutumnFlowersRegular" horiz-adv-x="577" >
  <font-face 
    font-family="Autumn Flowers"
    font-weight="400"
    font-stretch="normal"
    units-per-em="2048"
    panose-1="0 0 0 0 0 0 0 0 0 0"
    ascent="1638"
    descent="-410"
    x-height="711"
    cap-height="1619"
    bbox="-2623.33 -928.521 3279 1918"
    underline-thickness="0"
    underline-position="0"
    unicode-range="U+000A-F093"
  />
<missing-glyph horiz-adv-x="1079" 
d="M102 1434h875v-1434h-875v1434zM160 1393l379 -633l381 633h-760zM514 717l-369 614v-1231zM541 674l-379 -631h758zM565 717l371 -621v1239z" />
    <glyph glyph-name=".notdef" horiz-adv-x="1079" 
d="M102 1434h875v-1434h-875v1434zM160 1393l379 -633l381 633h-760zM514 717l-369 614v-1231zM541 674l-379 -631h758zM565 717l371 -621v1239z" />
    <glyph glyph-name=".null" horiz-adv-x="0" 
 />
    <glyph glyph-name=".null" horiz-adv-x="0" 
 />
    <glyph glyph-name="nonmarkingreturn" horiz-adv-x="682" 
 />
    <glyph glyph-name="controlLF" unicode="&#xa;" horiz-adv-x="0" 
 />
    <glyph glyph-name="controlCR" unicode="&#xd;" horiz-adv-x="0" 
 />
    <glyph glyph-name="space" unicode=" " horiz-adv-x="481" 
 />
    <glyph glyph-name="exclam" unicode="!" horiz-adv-x="579" 
d="M392 1224q38 0 56.5 -27.5t5.5 -65.5l-235 -699q-6 -18 -22 -30t-34 -12t-28 12.5t-6 30.5l151 699q8 38 41.5 65t70.5 27zM122 228q37 0 55.5 -25.5t8.5 -62.5l-7 -28q-10 -37 -42.5 -62.5t-69.5 -25.5t-55.5 25.5t-8.5 62.5l8 28q10 37 42 62.5t69 25.5z" />
    <glyph glyph-name="quotedbl" unicode="&#x22;" horiz-adv-x="413" 
d="M106 727q13 0 19 -9.5t1 -22.5l-70 -172q-11 -25 -34 -25q-11 0 -17 8t-4 19l36 172q2 12 13 21t23 9h33zM271 727q13 0 19 -10t1 -23l-69 -171q-11 -25 -35 -25q-11 0 -17 8t-4 19l37 172q3 12 13.5 21t22.5 9h32z" />
    <glyph glyph-name="numbersign" unicode="#" horiz-adv-x="708" 
d="M566 488q12 0 18.5 -8.5t3.5 -20.5t-14 -20.5t-23 -8.5h-80l-62 -151h77q12 0 18 -8t3 -20t-13.5 -20.5t-22.5 -8.5h-86l-75 -185q-12 -29 -41 -29q-16 0 -22.5 11.5t-0.5 26.5l72 176h-156l-74 -185q-12 -29 -42 -29q-16 0 -22.5 11.5t-0.5 26.5l72 176h-73
q-12 0 -18 8.5t-3 20.5t14 20t23 8h80l62 151h-76q-12 0 -18.5 8.5t-3.5 20.5t14 20.5t23 8.5h84l75 182q12 29 41 29q16 0 22.5 -11.5t0.5 -26.5l-71 -173h156l74 182q12 29 41 29q15 0 22 -11.5t1 -26.5l-71 -173h72zM341 279l62 151h-155l-62 -151h155z" />
    <glyph glyph-name="dollar" unicode="$" horiz-adv-x="632" 
d="M405 673q13 -1 26.5 -4.5t35.5 -12t34.5 -26.5t10.5 -43l-1 -7q-1 -7 -2 -11q-3 -12 -13.5 -20t-22.5 -8q-19 0 -21 18q-4 31 -21 49q-21 22 -66 24l-63 -235q59 -32 87 -59q28 -26 37 -58q9 -33 -2 -74q-21 -79 -77 -123q-54 -42 -145 -50l-18 -66q-3 -11 -12.5 -18
t-19.5 -7q-11 0 -16.5 7.5t-2.5 17.5l18 65h-8q-39 2 -68 11.5t-42.5 21.5t-22 23t-9.5 19l-1 8q0 15 4 28v1q3 11 13.5 19.5t21.5 8.5q19 0 21 -19q3 -38 22 -55q25 -24 80 -25l68 253l-11 6q-53 29 -80 54q-25 23 -34 52q-9 28 2 68q10 36 31 66q20 28 51 50q33 23 64 34
q38 13 72 16l18 68q3 11 12.5 18t19.5 7q11 0 16.5 -7.5t2.5 -17.5l-17 -65q10 0 28 -2zM333 254q-16 30 -58 53l-62 -232q48 5 79 33q33 30 44 75q11 44 -3 71zM257 416l57 214q-44 -6 -76 -32q-34 -28 -44 -66q-11 -41 4 -66q15 -26 59 -50z" />
    <glyph glyph-name="percent" unicode="%" horiz-adv-x="827" 
d="M229 350q-52 -52 -125 -52q-71 0 -94 50q-22 49 5 149q17 67 50 115q31 45 70 68q38 22 82 22q43 0 65 -14t33 -41t8 -62q-3 -42 -14 -80q-27 -102 -80 -155zM69 373q8 -41 49 -41q39 0 67 38q29 39 51 123q24 91 17 133q-7 43 -45 43q-29 0 -52 -20t-39 -55
q-18 -40 -31 -89q-24 -93 -17 -132zM635 695q17 0 21.5 -15t-8.5 -29l-546 -626q-12 -14 -28 -14h-1q-17 0 -21.5 15t8.5 29l546 626q12 14 29 14zM699 353q11 -27 8 -62q-3 -42 -14 -80q-27 -102 -80 -155q-52 -52 -126 -52q-71 0 -93 49q-23 50 4 149q18 69 50 116
q31 45 70 68q38 22 83 22q40 0 64 -15t34 -40zM620 198q24 91 17 133q-7 43 -46 43q-30 0 -52 -19t-39 -56q-16 -35 -30 -89q-24 -93 -17 -132q8 -41 48 -41q39 0 68 39q29 40 51 122z" />
    <glyph glyph-name="ampersand" unicode="&#x26;" horiz-adv-x="731" 
d="M671 393q10 0 15.5 -7t2.5 -17q-1 -4 -13 -30q-12 -24 -15 -29l-18 -27q-5 -7 -21 -28q-12 -15 -25 -28q-3 -3 -12 -13t-15 -15q-4 -4 -34 -29q-20 -17 -36 -29q15 -25 30 -44q13 -16 27 -23q12 -6 28 -6t30 7q12 5 26 14q19 11 26 -3t-9 -26q-28 -21 -59 -35
q-39 -17 -67 -17q-24 0 -41 6t-32 21q-12 12 -35 48q-60 -39 -114 -58q-50 -17 -110 -17q-63 0 -100 20q-38 21 -52 59t0 89q10 40 35 74q23 32 66 64q44 33 108 65q-23 47 -28 86t6 80q11 44 46 82q33 36 83 56q48 19 103 19q33 0 60 -6q25 -6 45 -22q18 -15 24 -39t-3 -58
q-4 -15 -12 -31t-18 -29q-7 -9 -26 -28q-17 -17 -39 -32q-24 -17 -60 -36l-78 -39q27 -54 50 -93q50 -84 69 -114q45 37 68 68q26 35 35 71q8 26 -1 39q-5 9 -24 14q-11 2 -7 13q4 13 17 13h104zM321 554q-8 -33 -4 -62q5 -37 24 -77q74 36 116 73q41 37 54 81q7 28 3 49
q-4 20 -22 31q-17 11 -43 11q-29 0 -55 -12q-24 -11 -45 -37q-19 -23 -28 -57zM318 76q38 12 85 41q-4 6 -15 24t-17 28l-56 98q-13 25 -24 45l-16 31q-56 -31 -89 -67q-32 -35 -44 -80q-11 -42 -2 -71q9 -30 34 -45q26 -15 63 -15q47 0 81 11z" />
    <glyph glyph-name="quotesingle" unicode="'" horiz-adv-x="260" 
d="M167 727q13 0 18.5 -10t0.5 -24l-73 -175q-10 -24 -36 -24q-11 0 -17 7.5t-4 18.5l34 176q2 13 13 22t24 9h40z" />
    <glyph glyph-name="parenleft" unicode="(" 
d="M512 807q2 -17 -19 -25q-110 -40 -188 -141q-84 -110 -129 -274q-46 -169 -20 -282q24 -102 112 -142q16 -7 5 -25q-10 -19 -29 -13q-117 40 -158 156q-44 125 4 301q48 175 158 301q101 116 242 157q8 2 14.5 -1.5t7.5 -10.5v-1z" />
    <glyph glyph-name="parenright" unicode=")" 
d="M476 670q43 -123 -4 -301q-48 -179 -157 -302q-102 -115 -242 -156q-9 -2 -15.5 2t-6.5 12q0 18 19 25q110 40 188 142q85 112 131 282q43 165 18 274q-24 100 -113 140q-16 7 -5 26q11 18 29 13q118 -40 158 -157z" />
    <glyph glyph-name="asterisk" unicode="*" horiz-adv-x="380" 
d="M228 600q-6 -2 -8 -8.5t3 -8.5l67 -36q-13 -15 -31 -18.5t-29 6.5l-27 24q-4 4 -10 0.5t-7 -9.5l-7 -40q-3 -17 -18.5 -30.5t-33.5 -13.5l31 84q2 6 -2.5 9.5t-10.5 -0.5l-82 -49q-4 15 5.5 31t26.5 24l43 18q6 2 7.5 8.5t-3.5 8.5l-67 36q13 15 30.5 18.5t29.5 -6.5
l28 -24q4 -4 10 -0.5t7 9.5l7 40q3 17 18 30.5t33 13.5l-30 -84q-2 -6 2 -9.5t10 0.5l83 49q5 -15 -5 -31t-28 -24z" />
    <glyph glyph-name="plus" unicode="+" horiz-adv-x="776" 
d="M657 378q14 0 21 -10t3 -23t-15.5 -22.5t-25.5 -9.5h-190q-18 0 -35 -13t-21 -31l-54 -203q-4 -14 -17 -24t-27 -10t-22 10t-4 24l55 203q5 18 -4.5 31t-27.5 13h-190q-14 0 -21 9.5t-3 22.5q4 14 16 23.5t25 9.5h190q18 0 35 13t21 31l54 203q4 14 17 24t27 10t21.5 -10
t3.5 -24l-54 -203q-5 -18 4.5 -31t27.5 -13h190z" />
    <glyph glyph-name="comma" unicode="," horiz-adv-x="350" 
d="M226 131q17 0 26.5 -11.5t6.5 -28.5l-6 -27q-9 -36 -28 -63q-17 -25 -53 -56q-28 -23 -68 -50q-19 -12 -28 3t8 29q20 16 30 28q16 19 28 43t21 60q1 5 3.5 14t3.5 13q5 19 21 32.5t35 13.5z" />
    <glyph glyph-name="hyphen" unicode="-" horiz-adv-x="380" 
d="M268 386q16 0 24 -11t4 -27t-18 -26.5t-30 -10.5h-151q-16 0 -24 10.5t-4 26.5q5 16 18.5 27t29.5 11h151z" />
    <glyph glyph-name="period" unicode="." horiz-adv-x="272" 
d="M152 131q22 0 33.5 -15t5.5 -37l-4 -16q-6 -22 -25.5 -37t-41.5 -15t-33 15t-5 37l4 16q6 22 25 37t41 15z" />
    <glyph glyph-name="slash" unicode="/" horiz-adv-x="399" 
d="M364 816q19 0 29.5 -15.5t3.5 -32.5l-326 -839q-8 -22 -33 -22h-1q-19 0 -29.5 15.5t-3.5 32.5l327 838q8 23 33 23z" />
    <glyph glyph-name="zero" unicode="0" horiz-adv-x="2187" 
d="M329 1021q-41 -12 -69.5 -3.5t-41.5 32.5t-20.5 58.5t-6 73.5t2 78t3 72.5t-1.5 56.5h45q4 -21 -1 -101t0 -148t33 -86q25 -8 41.5 4.5t22 32t5.5 44.5v254h51q-3 -35 -1 -92t5.5 -111.5t-12.5 -102t-55 -62.5zM554 1476v-36h-144v372h141v-41h-91v-121h74v-38h-74v-136
h94zM1880 1021h-52v50h52v-50zM1335 1141v248h48v-368h-38l-109 249v-249h-38v368h33zM1814 39q11 -52 -16.5 -77t-78.5 -16v188q55 7 81 -14.5t14 -80.5zM1745 115v-155q13 0 19 1t13.5 8.5t10.5 22.5q-2 8 1.5 47.5t-5.5 61.5t-39 14zM1746 -289h-22v188h22v-188zM329 115
h-43v-64h35v-18h-35v-87h-28v188h71v-19zM1097 115h-51v-64h38v-18h-38v-87h-19v188h70v-19zM490 1389q49 12 88.5 -15t33.5 -78l-39 -16q-9 63 -43 71q-25 7 -40 -19q-20 -36 15 -75q15 -16 38 -30q43 -22 64 -72t2 -93t-78 -46q-43 0 -69 29.5t-31 75.5l50 14
q-6 -57 33 -74q29 -14 49 7q24 24 0 70q-7 7 -27.5 25.5t-32.5 29.5t-29.5 31t-26 34t-14.5 33t-1.5 34.5t18.5 32.5t40 31zM1981 -227v126h21v-188h-19l-57 130v-130h-16v188h16zM815 1544l50 14q-3 -43 22.5 -68.5t59.5 -1.5q18 17 13 38.5t-19.5 39.5t-36.5 35
q-66 36 -80 103q-12 60 26 91q41 34 116 1q26 -16 32 -78l-38 -13q-1 46 -36 65t-57 -26q0 -25 12.5 -46t31 -37t38 -31t35.5 -35.5t20 -43.5q8 -45 -16.5 -79t-69.5 -34q-46 0 -73.5 30t-29.5 76zM1236 1512q-7 -49 -53 -67.5t-91 2t-48 69.5q-16 122 2 232q8 41 48 57.5
t82 3t56 -48.5q7 -26 9.5 -63.5t2 -57t-4 -71t-3.5 -56.5zM1096 1737q-5 -14 -6 -33.5t0.5 -47.5t1.5 -36q2 -12 -1 -46.5t2.5 -58.5t26.5 -36q32 -10 49.5 4.5t20 42.5t2.5 62t-3.5 63.5t1.5 45.5q7 31 -11.5 55.5t-45 22t-37.5 -37.5zM1133 1339q9 -22 11.5 -48.5t0 -65
t-2.5 -47.5q5 -42 0.5 -76.5t-28.5 -61t-68 -24.5q-37 0 -60.5 17.5t-33.5 41.5t-13 61t-0.5 66t6 68t3.5 57q9 39 50 55t82.5 3.5t52.5 -46.5zM1064 1059q23 14 28 55.5t1 94t-1 69.5q10 31 -9 53.5t-47 19.5t-40 -34q-5 -21 -2 -90t2 -92q-6 -40 13.5 -66.5t54.5 -9.5z
M1335 1688v-248h-41v372h33l101 -248v248h45v-372h-33zM1360 134v-174h45v-14h-71v188h26zM662 1021v368h143v-42h-95v-120h75v-37h-75v-138h95v-31h-143zM239 1612v-172h-47v372q12 -1 43 0t50.5 0t41 -11t31.5 -31q39 -67 -2.5 -120.5t-116.5 -37.5zM239 1771v-121
q39 -4 65 7.5t21 47.5q7 39 -20 56.5t-66 9.5zM520 33h-20v-87h-23v188q5 0 16.5 0.5t19 0.5t17 -1.5t16.5 -5.5q24 -11 25.5 -45.5t-25.5 -43.5l30 -93h-30zM500 115v-64q34 -5 43 23q9 24 -11 37q-13 8 -32 4zM647 1614v-174h-54v372h23.5h26.5t24.5 -0.5t26 -2.5t22.5 -5
t22 -8q41 -24 41.5 -88.5t-43.5 -80.5l48 -187h-48l-50 174h-39zM647 1771v-121q54 -12 74 30q17 35 -4 67q-22 35 -70 24zM1834 -101q11 -1 19 -4t13 -10t8 -11.5t4.5 -16t2 -16t0 -18.5t-0.5 -16q0 -60 -11 -78q-12 -20 -41 -20q-19 0 -31 8t-16 24.5t-5 27.5t-1 32v7
q0 20 0.5 30t3.5 25.5t9 22.5t17.5 11.5t28.5 1.5zM1815 -266q31 -21 40 37q9 55 -4 94q-3 10 -7 12q-9 4 -15.5 4.5t-10 -3.5t-6 -7t-3.5 -11.5t-1 -12v-13v-11.5q0 -3 -3 -27.5t-1 -41t11 -20.5zM1903 1476v-36h-145v372h52v-336h93zM1577 1529l-18 -89h-48l78 372h53
l77 -372h-48l-18 89h-76zM1617 1737l-32 -169h61zM837 -159q-4 44 32 55q32 11 54 -13q16 -17 11 -46h-29q5 46 -16 47q-17 1 -27 -25q-9 -24 -1 -52q-12 -42 10 -68q16 -20 28 -4q9 12 6 45h29q0 -55 -34 -70q-29 -13 -51 18q-27 38 -12 113zM872 -54v188h75v-19h-46v-64
h39v-18h-39v-73h46v-14h-75zM987 -289h-24v188h24v-188zM788 -106q21 -13 21 -46t-24 -41l29 -96h-26l-22 92h-21v-92h-29v188q6 0 24 1t28.5 0t19.5 -6zM745 -177q32 -7 39 18q6 23 -13 35q-11 7 -26 4v-57zM847 -54h-26v87h-52v-87h-24v188h24v-83h52v83h26v-188z
M1324 -239l28 138h23q-10 -48 -14 -68.5t-11.5 -50.5l-10 -40t-8.5 -20.5t-8 -10t-8 9.5t-8.5 20.5t-9.5 40t-11.5 50.5t-14.5 69h23zM1046 -101h27l42 -188h-25l-6 50h-40l-10 -50h-28zM1046 -226h34l-17 90zM1159 -101v-172h49v-16h-75v188h26zM1212 134q-2 -16 1.5 -61.5
t-3 -78.5t-31.5 -48q-28 -6 -44 6t-19 35t-3 51t3 53.5t-1 42.5h21q3 -12 -1 -57t0.5 -78.5t26.5 -38.5q24 5 28.5 38.5t1 78.5t-1.5 57h22zM1660 -177q20 -12 32.5 -38.5t5 -50t-38.5 -25.5q-24 -4 -44 23q-18 26 -1 35q6 3 16 3q-4 -23 18 -35q20 -11 28 8q2 4 2 11
q-3 11 -15.5 25.5t-25.5 27t-23 26.5t-9 29t18 28q21 23 53 5q25 -14 21 -33q-2 -12 -19 -18q-3 37 -23 39q-15 2 -21 -16q-7 -25 26 -44zM1312 -40v-14h-71v188h28v-174h43zM1395 -289v188h75v-19h-47v-57h38v-20h-38v-76h47v-16h-75zM1642 1389l56 -178l54 178h52
q-5 -17 -28.5 -85t-32.5 -99.5t-16.5 -85.5t-2.5 -98h-52q0 13 1 65.5t-1 64.5q-2 7 -35.5 106.5t-41.5 131.5h47zM1564 -106q19 -13 18 -47t-23 -42l27 -94h-24l-26 92h-17v-92h-29v188q5 0 23 1t30 0t21 -6zM1519 -177q32 -7 39 18q6 23 -13 35q-11 7 -26 4v-57zM240 -101
q36 4 50 -46t-1.5 -99.5t-49.5 -44.5q-15 0 -25.5 5.5t-15.5 11t-8 19.5t-3.5 19.5t0 23.5t0.5 20q0 20 0.5 30t3 25.5t8 22.5t16 11.5t25.5 1.5zM225 -266q30 -23 39 35q8 55 -5 95q-4 12 -8 13q-18 9 -28.5 -1t-10.5 -28q1 -8 -1 -36t0.5 -49t13.5 -29zM1438 1389h49v-337
h92v-31h-141v368zM1620 73v-127h-25v188h17l53 -124v124h24v-188h-18zM119 -291q-16 0 -27 7t-16.5 16t-8 26t-2.5 27.5t0.5 30t0.5 25.5q-3 43 33 56q32 10 53 -13q16 -17 11 -47h-23q-1 49 -21 48q-17 -1 -26 -30q-8 -23 -2 -48q-10 -39 13 -67q17 -22 29 -2q7 13 7 42h23
q0 -20 -2 -33t-12.5 -25.5t-29.5 -12.5zM732 134v-19h-34v-169h-29v169h-34v19h97zM410 -101h27l1 -188h-18v137q-28 -140 -40.5 -140t-40.5 140v-137h-24v188h30l34 -149zM402 138q33 0 46 -50.5t-2 -99.5t-48 -44q-36 -6 -50.5 47t1.5 104t53 43zM424 32q0 3 0.5 14.5
t0.5 20.5t-1 19.5t-4.5 17.5t-9.5 10q-14 9 -26 -2.5t-12 -30.5q2 -10 -1 -37t0 -48.5t19 -32.5q12 -3 19.5 2.5t10.5 19.5t3.5 23t0.5 24zM623 -289v188h75v-19h-48v-57h39v-20h-39v-76h48v-16h-75zM564 -101h26l3 -188h-17l-3 137l-32 -137h-21l-26 137l-4 -137h-19v188
h27l33 -149zM1880 1389q-8 -189 -17 -255t-18 -1t-17 256h52zM1491 -54h-21l37 188h30l40 -188h-27l-7 47q-13 3 -21.5 1t-12.5 -2t-6.5 -5t-3 -9t-3 -13.5t-5.5 -18.5zM1521 98l-14 -86h32zM265 729q-8 57 49 88q44 23 78 10q24 -9 19 -35q-20 7 -29.5 9.5t-23 1.5
t-25.5 -8q-19 -16 -25.5 -39.5t-0.5 -44.5t20 -37.5t36 -18t48 13.5q4 -36 -35 -41q-43 -6 -81 26q-37 31 -30 75zM497 829q29 1 49.5 -19.5t25 -50t0 -59.5t-25 -50.5t-49.5 -19.5q-29 -1 -49.5 19.5t-25 50.5t0 59.5t25 50t49.5 19.5zM527 684q12 28 1 82t-50 30
q-24 -19 -17 -78q6 -55 29 -63q18 -5 37 29zM694 702v122h25v-190h-33q-2 4 -5.5 10t-12.5 23t-17 31.5t-16.5 29.5t-14.5 24l-5 9v-127h-25v190h35zM737 799v25h152v-25h-57v-165h-38v165h-57zM921 634h-27l62 190h38l53 -190q-13 -3 -21.5 -1t-12.5 2t-7 5.5t-3.5 9.5
t-3 14t-5.5 19h-58zM967 778l-23 -72h43zM1095 815q29 17 70 15q46 -2 36 -38q-61 32 -91 -12q-23 -36 -8 -81q15 -47 58 -44q19 2 41 14q4 -7 1.5 -13t-2.5 -10t-5.5 -6.5t-7.5 -4t-9.5 -2.5t-11 -1.5t-11 -1t-10.5 -0.5q-45 -2 -70.5 34t-19.5 82t40 69zM1306 634h-38v165
h-57v25h151v-25h-56v-165zM1671 824v-190h-29v146l-7 -24q-7 -23 -13 -47l-7 -24h-29q-1 3 -2 7.5t-4.5 17t-6.5 23.5t-6.5 22.5t-5.5 18.5l-2 6v-146h-25v190h44q2 -5 4.5 -14t8 -28t9.5 -31l4 -12l26 85h41zM1821 799h-80v-54h68v-24h-68v-61h87v-26h-125v190h118v-25z
M95 338q-26 4 -26 22q1 19 22 28q13 5 27 1q1 11 -7 14.5t-17.5 1.5t-18.5 -6q-3 13 9 18.5t27.5 2.5t22.5 -11q6 -6 4.5 -17.5t-0.5 -24t8 -12.5q3 -9 -2.5 -14t-13.5 -3t-12 10q-1 -1 -6 -4.5t-8.5 -4.5t-8.5 -1zM93 372q-10 -14 4 -17q15 -3 21 9q2 5 0 11q-23 0 -25 -3z
M188 385v-45h-21v78h21l-1 -15q16 22 44 15v-32h-14q4 15 -7 15q-14 -1 -22 -16zM247 340q-4 7 5 20t24 28l16 16h-43v14h71q4 -6 -5.5 -19t-24 -27t-15.5 -16h45v-16h-73zM374 389h8q1 11 -7 14.5t-17 1.5t-18 -6q-3 13 9 18.5t27.5 2.5t22.5 -11q6 -6 4.5 -17.5t-0.5 -24
t8 -12.5q2 -11 -3.5 -14.5t-14 -1t-13.5 8.5q-25 -22 -39 -1q-13 18 0 33q10 13 33 9zM382 363v12q-23 5 -27 -9q-2 -11 9 -11q8 -1 18 8zM475 312q0 34 1 43q-31 -34 -47 -4q-13 24 -2 51q14 33 50 8q0 5 3 7t7.5 1t8.5 0v-106h-21zM467 361q6 3 8.5 14t-1.5 20t-14 8
q-15 0 -16 -22q-1 -21 12 -23q5 -1 11 3zM541 404q-12 -7 7 -13q48 -15 32 -36q-12 -18 -40 -18q-26 0 -25 22q39 -16 43 -1q0 3 -1 7q-3 2 -15.5 7t-20 10.5t-6.5 13.5q-1 18 27 24q29 6 35 -11q1 -4 0 -9q-26 8 -36 4zM633 341q-10 3 -13 13.5t-2 27.5t1 20h-17v14h17v19
h21v-19h29v-14h-29q-2 -43 10 -47q8 -3 20 3q4 -15 -10.5 -19t-26.5 2zM737 369v49h21v-78h-21l1 15q-38 -44 -48 12q-4 25 -1 51h21v-13q-1 -47 9 -48q7 -1 18 12zM849 340h-21l1 15q-31 -34 -47 -4q-13 24 -2 51q14 33 49 8q-1 5 -1 43h21v-113zM828 370v6v8t-0.5 7.5
t-2 6.5t-4.5 3.5t-8 1.5q-18 -3 -16 -25q2 -20 15 -21q8 0 16 13zM870 404v14h50v-78h-22v64h-28zM920 432h-22v21h22v-21zM1029 379q1 -25 -19.5 -36t-41.5 0t-20 36q-1 25 20 35.5t41.5 0t19.5 -35.5zM1001 359q11 14 2 35q-10 22 -27 5q-11 -14 -2 -35q10 -22 27 -5z
M1112 354v-14h-64v14h22v78h-22v12l43 4v-94h21zM1208 372v-11h-20v22q-18 -35 -32 -18q-13 16 -5 42q8 27 36 18q-25 28 -41 -1q-16 -28 -5 -57q11 -32 47 -11q-7 -28 -32 -17.5t-32 40.5q-5 21 6 41q35 45 57 24t13 -72h8zM1178 382l2 4q2 3 3 5.5t3 6.5t2 7v5.5t-2.5 4
t-6.5 1.5q-14 2 -17 -23q-2 -20 7 -19q4 0 9 8zM1273 314q-11 -7 -33 -3.5t-15 20.5q31 -10 40 -1q5 5 5 29q-27 -34 -44 -10q-15 22 -6 51q11 35 48 13q1 -1 3 -2q0 5 3 6.5t9 1t7 -0.5q-1 -7 0.5 -33.5t-1.5 -46t-16 -24.5zM1269 373v13.5t-4 13t-12 4.5q-20 -3 -15 -26
q4 -18 16 -18q8 0 15 13zM1350 340h-18q4 52 -4 59q-2 2 -4 -4q-5 -15 -3 -55h-18v78h18l-1 -15q2 8 9.5 13t14 2t6.5 -15q28 46 30 -29q0 -15 -1 -34h-18q4 52 -4 59q-2 2 -4 -4q-5 -15 -3 -55zM1432 389h8q1 11 -7 14.5t-17 1.5t-18 -6q-3 13 9 18.5t27.5 2.5t22.5 -11
q6 -6 4.5 -17.5t-0.5 -24t8 -12.5q2 -11 -3.5 -14.5t-14 -1t-13.5 8.5q-25 -22 -39 -1q-13 18 0 33q10 13 33 9zM1440 363v12q-23 5 -27 -9q-2 -11 9 -11q8 -1 18 8zM1537 432h-21v21h21v-21zM1488 404v14h49v-78h-21v64h-28zM1618 340h-21v99h-28v14h49v-113zM1706 340h-24
v25h24v-25zM1792 405q-27 -3 -24 -26q3 -20 23 -26q13 -4 26 4q1 -23 -27 -20q-30 3 -42 24q-5 9 -3 18q-6 24 26 37q30 12 42 -3q5 -5 4 -13q-15 5 -25 5zM1842 349q-18 18 -11 40t27 28.5t41 -8.5q18 -18 11 -40t-27 -28.5t-41 8.5zM1883 359q11 14 1 35q-10 22 -27 5
q-11 -14 -1 -35q10 -22 27 -5zM1938 390v-50h-17v78h17l-1 -15q2 8 9.5 13t14 2t6.5 -15q28 46 30 -29q0 -15 -1 -34h-17q5 59 -5 59t-7 -59h-17q-1 1 0 16q1 43 -4 44q-3 1 -8 -10zM0 1860h2066v-2232h-2066v2232zM16 -356h2034v2200h-2034v-2200z" />
    <glyph glyph-name="one" unicode="1" horiz-adv-x="528" 
d="M393 702q9 0 13.5 -6t1.5 -15q-15 -49 -32 -112l-115 -428q-8 -30 -8 -43q0 -16 5 -24q6 -9 20 -15q10 -4 37 -8q19 -2 43 -3q7 0 11 -5.5t2 -13.5q-5 -18 -24 -18h-333q-8 0 -11.5 5.5t-1.5 12.5v1q5 16 22 18q44 3 64 6q25 4 39 13q14 8 25 24q9 14 19 50l109 407
q6 19 1 29q-4 9 -18 9q-7 0 -12 -1h5q-17 -3 -23 -6l-1 -1h-1q-40 -16 -62 -56q-13 -25 -39 -25q-12 0 -19 7.5t-6 18.5q2 32 22 44q0 1 2 1t2 1q4 4 6 5l8 4q2 1 5 2t4 2l228 118q4 2 12 2zM262 586l-7 -1z" />
    <glyph glyph-name="two" unicode="2" horiz-adv-x="2185" 
d="M329 1021q-41 -12 -69.5 -3.5t-41.5 32.5t-20.5 58.5t-6 73.5t2 78t3 72.5t-1.5 56.5h45q4 -21 -1 -101t0 -148t33 -86q25 -8 41.5 4.5t22 32t5.5 44.5v254h51q-3 -35 -1 -92t5.5 -111.5t-12.5 -102t-55 -62.5zM554 1476v-36h-144v372h141v-41h-91v-121h74v-38h-74v-136
h94zM1880 1021h-52v50h52v-50zM1335 1141v248h48v-368h-38l-109 249v-249h-38v368h33zM1814 39q11 -52 -16.5 -77t-78.5 -16v188q55 7 81 -14.5t14 -80.5zM1745 115v-155q13 0 19 1t13.5 8.5t10.5 22.5q-2 8 1.5 47.5t-5.5 61.5t-39 14zM1746 -289h-22v188h22v-188zM329 115
h-43v-64h35v-18h-35v-87h-28v188h71v-19zM1097 115h-51v-64h38v-18h-38v-87h-19v188h70v-19zM490 1389q49 12 88.5 -15t33.5 -78l-39 -16q-9 63 -43 71q-25 7 -40 -19q-20 -36 15 -75q15 -16 38 -30q43 -22 64 -72t2 -93t-78 -46q-43 0 -69 29.5t-31 75.5l50 14
q-6 -57 33 -74q29 -14 49 7q24 24 0 70q-7 7 -27.5 25.5t-32.5 29.5t-29.5 31t-26 34t-14.5 33t-1.5 34.5t18.5 32.5t40 31zM1981 -227v126h21v-188h-19l-57 130v-130h-16v188h16zM815 1544l50 14q-3 -43 22.5 -68.5t59.5 -1.5q18 17 13 38.5t-19.5 39.5t-36.5 35
q-66 36 -80 103q-12 60 26 91q41 34 116 1q26 -16 32 -78l-38 -13q-1 46 -36 65t-57 -26q0 -25 12.5 -46t31 -37t38 -31t35.5 -35.5t20 -43.5q8 -45 -16.5 -79t-69.5 -34q-46 0 -73.5 30t-29.5 76zM1236 1512q-7 -49 -53 -67.5t-91 2t-48 69.5q-16 122 2 232q8 41 48 57.5
t82 3t56 -48.5q7 -26 9.5 -63.5t2 -57t-4 -71t-3.5 -56.5zM1096 1737q-5 -14 -6 -33.5t0.5 -47.5t1.5 -36q2 -12 -1 -46.5t2.5 -58.5t26.5 -36q32 -10 49.5 4.5t20 42.5t2.5 62t-3.5 63.5t1.5 45.5q7 31 -11.5 55.5t-45 22t-37.5 -37.5zM1133 1339q9 -22 11.5 -48.5t0 -65
t-2.5 -47.5q5 -42 0.5 -76.5t-28.5 -61t-68 -24.5q-37 0 -60.5 17.5t-33.5 41.5t-13 61t-0.5 66t6 68t3.5 57q9 39 50 55t82.5 3.5t52.5 -46.5zM1064 1059q23 14 28 55.5t1 94t-1 69.5q10 31 -9 53.5t-47 19.5t-40 -34q-5 -21 -2 -90t2 -92q-6 -40 13.5 -66.5t54.5 -9.5z
M1335 1688v-248h-41v372h33l101 -248v248h45v-372h-33zM1360 134v-174h45v-14h-71v188h26zM662 1021v368h143v-42h-95v-120h75v-37h-75v-138h95v-31h-143zM239 1612v-172h-47v372q12 -1 43 0t50.5 0t41 -11t31.5 -31q39 -67 -2.5 -120.5t-116.5 -37.5zM239 1771v-121
q39 -4 65 7.5t21 47.5q7 39 -20 56.5t-66 9.5zM520 33h-20v-87h-23v188q5 0 16.5 0.5t19 0.5t17 -1.5t16.5 -5.5q24 -11 25.5 -45.5t-25.5 -43.5l30 -93h-30zM500 115v-64q34 -5 43 23q9 24 -11 37q-13 8 -32 4zM647 1614v-174h-54v372h23.5h26.5t24.5 -0.5t26 -2.5t22.5 -5
t22 -8q41 -24 41.5 -88.5t-43.5 -80.5l48 -187h-48l-50 174h-39zM647 1771v-121q54 -12 74 30q17 35 -4 67q-22 35 -70 24zM1834 -101q11 -1 19 -4t13 -10t8 -11.5t4.5 -16t2 -16t0 -18.5t-0.5 -16q0 -60 -11 -78q-12 -20 -41 -20q-19 0 -31 8t-16 24.5t-5 27.5t-1 32v7
q0 20 0.5 30t3.5 25.5t9 22.5t17.5 11.5t28.5 1.5zM1815 -266q31 -21 40 37q9 55 -4 94q-3 10 -7 12q-9 4 -15.5 4.5t-10 -3.5t-6 -7t-3.5 -11.5t-1 -12v-13v-11.5q0 -3 -3 -27.5t-1 -41t11 -20.5zM1903 1476v-36h-145v372h52v-336h93zM1577 1529l-18 -89h-48l78 372h53
l77 -372h-48l-18 89h-76zM1618 1737l-33 -169h61zM837 -159q-4 44 32 55q32 11 54 -13q16 -17 11 -46h-29q5 46 -16 47q-17 1 -27 -25q-9 -24 -1 -52q-12 -42 10 -68q16 -20 28 -4q9 12 6 45h29q0 -55 -34 -70q-29 -13 -51 18q-27 38 -12 113zM872 -54v188h75v-19h-46v-64
h39v-18h-39v-73h46v-14h-75zM987 -289h-24v188h24v-188zM788 -106q21 -13 21 -46t-24 -41l29 -96h-26l-22 92h-21v-92h-29v188q6 0 24 1t28.5 0t19.5 -6zM745 -177q32 -7 39 18q6 23 -13 35q-11 7 -26 4v-57zM847 -54h-26v87h-52v-87h-24v188h24v-83h52v83h26v-188z
M1324 -239l28 138h23q-10 -48 -14 -68.5t-11.5 -50.5l-10 -40t-8.5 -20.5t-8 -10t-8 9.5t-8.5 20.5t-9.5 40t-11.5 50.5t-14.5 69h23zM1046 -101h27l42 -188h-25l-6 50h-40l-10 -50h-28zM1046 -226h34l-17 90zM1159 -101v-172h49v-16h-75v188h26zM1212 134q-2 -16 1.5 -61.5
t-3 -78.5t-31.5 -48q-28 -6 -44 6t-19 35t-3 51t3 53.5t-1 42.5h21q3 -12 -1 -57t0.5 -78.5t26.5 -38.5q24 5 28.5 38.5t1 78.5t-1.5 57h22zM1660 -177q20 -12 32.5 -38.5t5 -50t-38.5 -25.5q-24 -4 -44 23q-18 26 -1 35q6 3 16 3q-4 -23 18 -35q20 -11 28 8q2 4 2 11
q-3 11 -15.5 25.5t-25.5 27t-23 26.5t-9 29t18 28q21 23 53 5q25 -14 21 -33q-2 -12 -19 -18q-3 37 -23 39q-15 2 -21 -16q-7 -25 26 -44zM1312 -40v-14h-71v188h28v-174h43zM1395 -289v188h75v-19h-47v-57h38v-20h-38v-76h47v-16h-75zM1642 1389l56 -178l54 178h52
q-5 -17 -28.5 -85t-32.5 -99.5t-16.5 -85.5t-2.5 -98h-52q0 13 1 65.5t-1 64.5q-2 7 -35.5 106.5t-41.5 131.5h47zM1564 -106q19 -13 18 -47t-23 -42l27 -94h-24l-26 92h-17v-92h-29v188q5 0 23 1t30 0t21 -6zM1519 -177q32 -7 39 18q6 23 -13 35q-11 7 -26 4v-57zM240 -101
q36 4 50 -46t-1.5 -99.5t-49.5 -44.5q-15 0 -25.5 5.5t-15.5 11t-8 19.5t-3.5 19.5t0 23.5t0.5 20q0 20 0.5 30t3 25.5t8 22.5t16 11.5t25.5 1.5zM225 -266q30 -23 39 35q8 55 -5 95q-4 12 -8 13q-18 9 -28.5 -1t-10.5 -28q1 -8 -1 -36t0.5 -49t13.5 -29zM1438 1389h49v-337
h92v-31h-141v368zM1620 73v-127h-25v188h17l53 -124v124h24v-188h-18zM119 -291q-16 0 -27 7t-16.5 16t-8 26t-2.5 27.5t0.5 30t0.5 25.5q-3 43 33 56q32 10 53 -13q16 -17 11 -47h-23q-1 49 -21 48q-17 -1 -26 -30q-8 -23 -2 -48q-10 -39 13 -67q17 -22 29 -2q7 13 7 42h23
q0 -20 -2 -33t-12.5 -25.5t-29.5 -12.5zM732 134v-19h-34v-169h-29v169h-34v19h97zM410 -101h27l1 -188h-18v137q-28 -140 -40.5 -140t-40.5 140v-137h-24v188h30l34 -149zM402 138q33 0 46 -50.5t-2 -99.5t-48 -44q-36 -6 -50.5 47t1.5 104t53 43zM424 32q0 3 0.5 14.5
t0.5 20.5t-1 19.5t-4.5 17.5t-9.5 10q-14 9 -26 -2.5t-12 -30.5q2 -10 -1 -37t0 -48.5t19 -32.5q12 -3 19.5 2.5t10.5 19.5t3.5 23t0.5 24zM623 -289v188h75v-19h-48v-57h39v-20h-39v-76h48v-16h-75zM564 -101h26l3 -188h-17l-3 137l-32 -137h-21l-26 137l-4 -137h-19v188
h27l33 -149zM1880 1389q-8 -189 -17 -255t-18 -1t-17 256h52zM1491 -54h-21l37 188h30l40 -188h-27l-7 47q-13 3 -21.5 1t-12.5 -2t-6.5 -5t-3 -9t-3 -13.5t-5.5 -18.5zM1522 98l-15 -86h32zM265 729q-8 56 48 87q45 25 80 11q24 -9 19 -35q-29 10 -41.5 11.5t-37.5 -8.5
q-19 -16 -25.5 -39.5t0 -44.5t20.5 -37.5t36 -18t48 13.5q4 -36 -35 -41q-43 -6 -81 26q-38 31 -31 75zM497 829q29 1 49.5 -19.5t25 -50t0 -59.5t-25 -50.5t-49.5 -19.5q-29 -1 -49.5 19.5t-25 50.5t0 59.5t25 50t49.5 19.5zM527 684q12 28 1 82t-50 30q-24 -19 -17 -78
q6 -55 29 -63q18 -5 37 29zM694 702v122h25v-190h-33q-2 4 -5.5 10t-12.5 23t-17 31.5t-16.5 29.5t-14.5 24l-5 9v-127h-25v190h35zM737 799v25h152v-25h-57v-165h-38v165h-57zM921 634h-27l62 190h38l53 -190q-13 -3 -21.5 -1t-12.5 2t-7 5.5t-3.5 9.5t-3 14t-5.5 19h-58z
M967 778l-23 -72h43zM1095 815q29 17 70 15q46 -2 36 -38q-61 32 -91 -12q-23 -36 -8 -81q15 -47 58 -44q19 2 41 14q4 -7 1.5 -13t-2.5 -10t-5.5 -6.5t-7.5 -4t-9.5 -2.5t-11 -1.5t-11 -1t-10.5 -0.5q-45 -2 -70.5 34t-19.5 82t40 69zM1306 634h-38v165h-57v25h151v-25h-56
v-165zM1671 824v-190h-29v146l-7 -24q-7 -23 -13 -47l-7 -24h-29q-1 3 -2 7.5t-4.5 17t-6.5 23.5t-6.5 22.5t-5.5 18.5l-2 6v-146h-25v190h44q2 -5 4.5 -14t8 -28t9.5 -31l4 -12l26 85h41zM1821 799h-80v-54h68v-24h-68v-61h87v-26h-125v190h118v-25zM95 338q-26 4 -26 22
q1 19 22 28q13 5 27 1q1 11 -7 14.5t-17.5 1.5t-18.5 -6q-3 13 9 18.5t27.5 2.5t22.5 -11q6 -6 4.5 -17.5t-0.5 -24t8 -12.5q3 -9 -2.5 -14t-13.5 -3t-12 10q-1 -1 -6 -4.5t-8.5 -4.5t-8.5 -1zM93 372q-10 -14 4 -17q15 -3 21 9q2 5 0 11q-23 0 -25 -3zM188 385v-45h-21v78
h21l-1 -15q16 22 44 15v-32h-14q4 15 -7 15q-14 -1 -22 -16zM247 340q-4 7 5 20t24 28l16 16h-43v14h71q4 -6 -5.5 -19t-24 -27t-15.5 -16h45v-16h-73zM374 389h8q1 11 -7 14.5t-17 1.5t-18 -6q-3 13 9 18.5t27.5 2.5t22.5 -11q6 -6 4.5 -17.5t-0.5 -24t8 -12.5
q2 -11 -3.5 -14.5t-14 -1t-13.5 8.5q-25 -22 -39 -1q-13 18 0 33q10 13 33 9zM382 363v12q-23 5 -27 -9q-2 -11 9 -11q8 -1 18 8zM475 312q0 34 1 43q-31 -34 -47 -4q-13 24 -2 51q14 33 50 8q0 5 3 7t7.5 1t8.5 0v-106h-21zM467 361q6 3 8.5 14t-1.5 20t-14 8
q-15 0 -16 -22q-1 -21 12 -23q5 -1 11 3zM541 404q-12 -7 7 -13q48 -15 32 -36q-12 -18 -40 -18q-26 0 -25 22q39 -16 43 -1q0 3 -1 7q-3 2 -15.5 7t-20 10.5t-6.5 13.5q-1 18 27 24q29 6 35 -11q1 -4 0 -9q-26 8 -36 4zM633 341q-10 3 -13 13.5t-2 27.5t1 20h-17v14h17v19
h21v-19h29v-14h-29q-2 -43 10 -47q8 -3 20 3q4 -15 -10.5 -19t-26.5 2zM737 369v49h21v-78h-21l1 15q-38 -44 -48 12q-4 25 -1 51h21v-13q-1 -47 9 -48q7 -1 18 12zM849 340h-21l1 15q-31 -34 -47 -4q-13 24 -2 51q14 33 49 8q-1 5 -1 43h21v-113zM828 370v6v8t-0.5 7.5
t-2 6.5t-4.5 3.5t-8 1.5q-18 -3 -16 -25q2 -20 15 -21q8 0 16 13zM870 404v14h50v-78h-22v64h-28zM920 432h-22v21h22v-21zM1029 379q1 -25 -19.5 -36t-41.5 0t-20 36q-1 25 20 35.5t41.5 0t19.5 -35.5zM1001 359q11 14 2 35q-10 22 -27 5q-11 -14 -2 -35q10 -22 27 -5z
M1112 354v-14h-64v14h22v78h-22v12l43 4v-94h21zM1208 372v-11h-20v22q-18 -35 -32 -18q-13 16 -5 42q8 27 36 18q-25 28 -41 -1q-16 -28 -5 -57q11 -32 47 -11q-7 -28 -32 -17.5t-32 40.5q-5 21 6 41q35 45 57 24t13 -72h8zM1178 382l2 4q2 3 3 5.5t3 6.5t2 7v5.5t-2.5 4
t-6.5 1.5q-14 2 -17 -23q-2 -20 7 -19q4 0 9 8zM1273 314q-11 -7 -33 -3.5t-15 20.5q31 -10 40 -1q5 5 5 29q-27 -34 -44 -10q-15 22 -6 51q11 35 48 13q1 -1 3 -2q0 5 3 6.5t9 1t7 -0.5q-1 -7 0.5 -33.5t-1.5 -46t-16 -24.5zM1269 373v13.5t-4 13t-12 4.5q-20 -3 -15 -26
q4 -18 16 -18q8 0 15 13zM1350 340h-18q4 52 -4 59q-2 2 -4 -4q-5 -15 -3 -55h-18v78h18l-1 -15q2 8 9.5 13t14 2t6.5 -15q28 46 30 -29q0 -15 -1 -34h-18q4 52 -4 59q-2 2 -4 -4q-5 -15 -3 -55zM1432 389h8q1 11 -7 14.5t-17 1.5t-18 -6q-3 13 9 18.5t27.5 2.5t22.5 -11
q6 -6 4.5 -17.5t-0.5 -24t8 -12.5q2 -11 -3.5 -14.5t-14 -1t-13.5 8.5q-25 -22 -39 -1q-13 18 0 33q10 13 33 9zM1440 363v12q-23 5 -27 -9q-2 -11 9 -11q8 -1 18 8zM1537 432h-21v21h21v-21zM1488 404v14h49v-78h-21v64h-28zM1618 340h-21v99h-28v14h49v-113zM1706 340h-24
v25h24v-25zM1792 405q-27 -3 -24 -26q3 -20 23 -26q13 -4 26 4q1 -23 -27 -20q-30 3 -42 24q-5 9 -3 18q-6 24 26 37q30 12 42 -3q5 -5 4 -13q-15 5 -25 5zM1842 349q-18 18 -11 40t27 28.5t41 -8.5q18 -18 11 -40t-27 -28.5t-41 8.5zM1883 359q11 14 1 35q-10 22 -27 5
q-11 -14 -1 -35q10 -22 27 -5zM1938 390v-50h-17v78h17l-1 -15q2 8 9.5 13t14 2t6.5 -15q28 46 30 -29q0 -15 -1 -34h-17q5 59 -5 59t-7 -59h-17q-1 1 0 16q1 43 -4 44q-3 1 -8 -10zM0 1860h2066v-2232h-2066v2232zM16 -356h2034v2200h-2034v-2200z" />
    <glyph glyph-name="three" unicode="3" horiz-adv-x="645" 
d="M517 635q13 -32 1 -77q-13 -46 -36 -74q-26 -33 -63 -56q-41 -26 -91 -47l-1 -4q31 -6 53 -19q26 -14 41 -34q15 -19 21 -49t-4 -67q-15 -56 -53 -102q-37 -45 -95 -70q-60 -26 -132 -26q-37 0 -83 8q-33 9 -51.5 24.5t-21.5 30.5t-1 29t7 22l5 9q15 17 35 17
q24 0 27 -21q6 -36 23 -53q22 -24 71 -24q64 0 107 35t61 105q19 72 -14 110t-118 38h-21q-10 0 -14.5 6.5t-2.5 16.5q5 20 26 22q52 6 99 25q53 24 83 56q31 34 43 76q15 55 -6 85t-78 30q-47 0 -82 -25q-29 -20 -51 -55q-16 -23 -38 -23q-24 0 -26 25q0 3 1 7t6.5 16.5
t13.5 24t24.5 25t38.5 22.5q27 9 51 15q52 13 100 13q59 0 94 -17q38 -18 51 -50z" />
    <glyph glyph-name="four" unicode="4" horiz-adv-x="2187" 
d="M329 1021q-41 -12 -69.5 -3.5t-41.5 32.5t-20.5 58.5t-6 73.5t2 78t3 72.5t-1.5 56.5h45q4 -21 -1 -101t0 -148t33 -86q25 -8 41.5 4.5t22 32t5.5 44.5v254h51q-3 -35 -1 -92t5.5 -111.5t-12.5 -102t-55 -62.5zM554 1476v-36h-144v372h141v-41h-91v-121h74v-38h-74v-136
h94zM1880 1021h-52v50h52v-50zM1335 1141v248h48v-368h-38l-109 249v-249h-38v368h33zM1814 39q11 -52 -16.5 -77t-78.5 -16v188q55 7 81 -14.5t14 -80.5zM1745 115v-155q13 0 19 1t13.5 8.5t10.5 22.5q-2 8 1.5 47.5t-5.5 61.5t-39 14zM1746 -289h-22v188h22v-188zM329 115
h-43v-64h35v-18h-35v-87h-28v188h71v-19zM1097 115h-51v-64h38v-18h-38v-87h-19v188h70v-19zM490 1389q49 12 88.5 -15t33.5 -78l-39 -16q-9 63 -43 71q-25 7 -40 -19q-20 -36 15 -75q15 -16 38 -30q43 -22 64 -72t2 -93t-78 -46q-43 0 -69 29.5t-31 75.5l50 14
q-6 -57 33 -74q29 -14 49 7q24 24 0 70q-7 7 -27.5 25.5t-32.5 29.5t-29.5 31t-26 34t-14.5 33t-1.5 34.5t18.5 32.5t40 31zM1981 -227v126h21v-188h-19l-57 130v-130h-16v188h16zM815 1544l50 14q-3 -43 22.5 -68.5t59.5 -1.5q18 17 13 38.5t-19.5 39.5t-36.5 35
q-66 36 -80 103q-12 60 26 91q41 34 116 1q26 -16 32 -78l-38 -13q-1 46 -36 65t-57 -26q0 -25 12.5 -46t31 -37t38 -31t35.5 -35.5t20 -43.5q8 -45 -16.5 -79t-69.5 -34q-46 0 -73.5 30t-29.5 76zM1236 1512q-7 -49 -53 -67.5t-91 2t-48 69.5q-16 122 2 232q8 41 48 57.5
t82 3t56 -48.5q7 -26 9.5 -63.5t2 -57t-4 -71t-3.5 -56.5zM1096 1737q-5 -14 -6 -33.5t0.5 -47.5t1.5 -36q2 -12 -1 -46.5t2.5 -58.5t26.5 -36q32 -10 49.5 4.5t20 42.5t2.5 62t-3.5 63.5t1.5 45.5q7 31 -11.5 55.5t-45 22t-37.5 -37.5zM1133 1339q9 -22 11.5 -48.5t0 -65
t-2.5 -47.5q5 -42 0.5 -76.5t-28.5 -61t-68 -24.5q-37 0 -60.5 17.5t-33.5 41.5t-13 61t-0.5 66t6 68t3.5 57q9 39 50 55t82.5 3.5t52.5 -46.5zM1064 1059q23 14 28 55.5t1 94t-1 69.5q10 31 -9 53.5t-47 19.5t-40 -34q-5 -21 -2 -90t2 -92q-6 -40 13.5 -66.5t54.5 -9.5z
M1335 1688v-248h-41v372h33l101 -248v248h45v-372h-33zM1360 134v-174h45v-14h-71v188h26zM662 1021v368h143v-42h-95v-120h75v-37h-75v-138h95v-31h-143zM239 1612v-172h-47v372q12 -1 43 0t50.5 0t41 -11t31.5 -31q39 -67 -2.5 -120.5t-116.5 -37.5zM239 1771v-121
q39 -4 65 7.5t21 47.5q7 39 -20 56.5t-66 9.5zM520 33h-20v-87h-23v188q5 0 16.5 0.5t19 0.5t17 -1.5t16.5 -5.5q24 -11 25.5 -45.5t-25.5 -43.5l30 -93h-30zM500 115v-64q34 -5 43 23q9 24 -11 37q-13 8 -32 4zM647 1614v-174h-54v372h23.5h26.5t24.5 -0.5t26 -2.5t22.5 -5
t22 -8q41 -24 41.5 -88.5t-43.5 -80.5l48 -187h-48l-50 174h-39zM647 1771v-121q54 -12 74 30q17 35 -4 67q-22 35 -70 24zM1834 -101q11 -1 19 -4t13 -10t8 -11.5t4.5 -16t2 -16t0 -18.5t-0.5 -16q0 -60 -11 -78q-12 -20 -41 -20q-19 0 -31 8t-16 24.5t-5 27.5t-1 32v7
q0 20 0.5 30t3.5 25.5t9 22.5t17.5 11.5t28.5 1.5zM1815 -266q31 -21 40 37q9 55 -4 94q-3 10 -7 12q-9 4 -15.5 4.5t-10 -3.5t-6 -7t-3.5 -11.5t-1 -12v-13v-11.5q0 -3 -3 -27.5t-1 -41t11 -20.5zM1903 1476v-36h-145v372h52v-336h93zM1577 1529l-18 -89h-48l78 372h53
l77 -372h-48l-18 89h-76zM1617 1737l-32 -169h61zM837 -159q-4 44 32 55q32 11 54 -13q16 -17 11 -46h-29q5 46 -16 47q-17 1 -27 -25q-9 -24 -1 -52q-12 -42 10 -68q16 -20 28 -4q9 12 6 45h29q0 -55 -34 -70q-29 -13 -51 18q-27 38 -12 113zM872 -54v188h75v-19h-46v-64
h39v-18h-39v-73h46v-14h-75zM987 -289h-24v188h24v-188zM788 -106q21 -13 21 -46t-24 -41l29 -96h-26l-22 92h-21v-92h-29v188q6 0 24 1t28.5 0t19.5 -6zM745 -177q32 -7 39 18q6 23 -13 35q-11 7 -26 4v-57zM847 -54h-26v87h-52v-87h-24v188h24v-83h52v83h26v-188z
M1324 -239l28 138h23q-10 -48 -14 -68.5t-11.5 -50.5l-10 -40t-8.5 -20.5t-8 -10t-8 9.5t-8.5 20.5t-9.5 40t-11.5 50.5t-14.5 69h23zM1046 -101h27l42 -188h-25l-6 50h-40l-10 -50h-28zM1046 -226h34l-17 90zM1159 -101v-172h49v-16h-75v188h26zM1212 134q-2 -16 1.5 -61.5
t-3 -78.5t-31.5 -48q-28 -6 -44 6t-19 35t-3 51t3 53.5t-1 42.5h21q3 -12 -1 -57t0.5 -78.5t26.5 -38.5q24 5 28.5 38.5t1 78.5t-1.5 57h22zM1660 -177q20 -12 32.5 -38.5t5 -50t-38.5 -25.5q-24 -4 -44 23q-18 26 -1 35q6 3 16 3q-4 -23 18 -35q20 -11 28 8q2 4 2 11
q-3 11 -15.5 25.5t-25.5 27t-23 26.5t-9 29t18 28q21 23 53 5q25 -14 21 -33q-2 -12 -19 -18q-3 37 -23 39q-15 2 -21 -16q-7 -25 26 -44zM1312 -40v-14h-71v188h28v-174h43zM1395 -289v188h75v-19h-47v-57h38v-20h-38v-76h47v-16h-75zM1642 1389l56 -178l54 178h52
q-5 -17 -28.5 -85t-32.5 -99.5t-16.5 -85.5t-2.5 -98h-52q0 13 1 65.5t-1 64.5q-2 7 -35.5 106.5t-41.5 131.5h47zM1564 -106q19 -13 18 -47t-23 -42l27 -94h-24l-26 92h-17v-92h-29v188q5 0 23 1t30 0t21 -6zM1519 -177q32 -7 39 18q6 23 -13 35q-11 7 -26 4v-57zM240 -101
q36 4 50 -46t-1.5 -99.5t-49.5 -44.5q-15 0 -25.5 5.5t-15.5 11t-8 19.5t-3.5 19.5t0 23.5t0.5 20q0 20 0.5 30t3 25.5t8 22.5t16 11.5t25.5 1.5zM225 -266q30 -23 39 35q8 55 -5 95q-4 12 -8 13q-18 9 -28.5 -1t-10.5 -28q1 -8 -1 -36t0.5 -49t13.5 -29zM1438 1389h49v-337
h92v-31h-141v368zM1620 73v-127h-25v188h17l53 -124v124h24v-188h-18zM119 -291q-16 0 -27 7t-16.5 16t-8 26t-2.5 27.5t0.5 30t0.5 25.5q-3 43 33 56q32 10 53 -13q16 -17 11 -47h-23q-1 49 -21 48q-17 -1 -26 -30q-8 -23 -2 -48q-10 -39 13 -67q17 -22 29 -2q7 13 7 42h23
q0 -20 -2 -33t-12.5 -25.5t-29.5 -12.5zM732 134v-19h-34v-169h-29v169h-34v19h97zM410 -101h27l1 -188h-18v137q-28 -140 -40.5 -140t-40.5 140v-137h-24v188h30l34 -149zM402 138q33 0 46 -50.5t-2 -99.5t-48 -44q-36 -6 -50.5 47t1.5 104t53 43zM424 32q0 3 0.5 14.5
t0.5 20.5t-1 19.5t-4.5 17.5t-9.5 10q-14 9 -26 -2.5t-12 -30.5q2 -10 -1 -37t0 -48.5t19 -32.5q12 -3 19.5 2.5t10.5 19.5t3.5 23t0.5 24zM623 -289v188h75v-19h-48v-57h39v-20h-39v-76h48v-16h-75zM564 -101h26l3 -188h-17l-3 137l-32 -137h-21l-26 137l-4 -137h-19v188
h27l33 -149zM1880 1389q-8 -189 -17 -255t-18 -1t-17 256h52zM1491 -54h-21l37 188h30l40 -188h-27l-7 47q-13 3 -21.5 1t-12.5 -2t-6.5 -5t-3 -9t-3 -13.5t-5.5 -18.5zM1521 98l-14 -86h32zM265 729q-8 57 49 88q44 23 78 10q24 -9 19 -35q-20 7 -29.5 9.5t-23 1.5
t-25.5 -8q-19 -16 -25.5 -39.5t-0.5 -44.5t20 -37.5t36 -18t48 13.5q4 -36 -35 -41q-43 -6 -81 26q-37 31 -30 75zM497 829q29 1 49.5 -19.5t25 -50t0 -59.5t-25 -50.5t-49.5 -19.5q-29 -1 -49.5 19.5t-25 50.5t0 59.5t25 50t49.5 19.5zM527 684q12 28 1 82t-50 30
q-24 -19 -17 -78q6 -55 29 -63q18 -5 37 29zM694 702v122h25v-190h-33q-2 4 -5.5 10t-12.5 23t-17 31.5t-16.5 29.5t-14.5 24l-5 9v-127h-25v190h35zM737 799v25h152v-25h-57v-165h-38v165h-57zM921 634h-27l62 190h38l53 -190q-13 -3 -21.5 -1t-12.5 2t-7 5.5t-3.5 9.5
t-3 14t-5.5 19h-58zM967 778l-23 -72h43zM1095 815q29 17 70 15q46 -2 36 -38q-61 32 -91 -12q-23 -36 -8 -81q15 -47 58 -44q19 2 41 14q4 -7 1.5 -13t-2.5 -10t-5.5 -6.5t-7.5 -4t-9.5 -2.5t-11 -1.5t-11 -1t-10.5 -0.5q-45 -2 -70.5 34t-19.5 82t40 69zM1306 634h-38v165
h-57v25h151v-25h-56v-165zM1671 824v-190h-29v146l-7 -24q-7 -23 -13 -47l-7 -24h-29q-1 3 -2 7.5t-4.5 17t-6.5 23.5t-6.5 22.5t-5.5 18.5l-2 6v-146h-25v190h44q2 -5 4.5 -14t8 -28t9.5 -31l4 -12l26 85h41zM1821 799h-80v-54h68v-24h-68v-61h87v-26h-125v190h118v-25z
M95 338q-26 4 -26 22q1 19 22 28q13 5 27 1q1 11 -7 14.5t-17.5 1.5t-18.5 -6q-3 13 9 18.5t27.5 2.5t22.5 -11q6 -6 4.5 -17.5t-0.5 -24t8 -12.5q3 -9 -2.5 -14t-13.5 -3t-12 10q-1 -1 -6 -4.5t-8.5 -4.5t-8.5 -1zM93 372q-10 -14 4 -17q15 -3 21 9q2 5 0 11q-23 0 -25 -3z
M188 385v-45h-21v78h21l-1 -15q16 22 44 15v-32h-14q4 15 -7 15q-14 -1 -22 -16zM247 340q-4 7 5 20t24 28l16 16h-43v14h71q4 -6 -5.5 -19t-24 -27t-15.5 -16h45v-16h-73zM374 389h8q1 11 -7 14.5t-17 1.5t-18 -6q-3 13 9 18.5t27.5 2.5t22.5 -11q6 -6 4.5 -17.5t-0.5 -24
t8 -12.5q2 -11 -3.5 -14.5t-14 -1t-13.5 8.5q-25 -22 -39 -1q-13 18 0 33q10 13 33 9zM382 363v12q-23 5 -27 -9q-2 -11 9 -11q8 -1 18 8zM475 312q0 34 1 43q-31 -34 -47 -4q-13 24 -2 51q14 33 50 8q0 5 3 7t7.5 1t8.5 0v-106h-21zM467 361q6 3 8.5 14t-1.5 20t-14 8
q-15 0 -16 -22q-1 -21 12 -23q5 -1 11 3zM541 404q-12 -7 7 -13q48 -15 32 -36q-12 -18 -40 -18q-26 0 -25 22q39 -16 43 -1q0 3 -1 7q-3 2 -15.5 7t-20 10.5t-6.5 13.5q-1 18 27 24q29 6 35 -11q1 -4 0 -9q-26 8 -36 4zM633 341q-10 3 -13 13.5t-2 27.5t1 20h-17v14h17v19
h21v-19h29v-14h-29q-2 -43 10 -47q8 -3 20 3q4 -15 -10.5 -19t-26.5 2zM737 369v49h21v-78h-21l1 15q-38 -44 -48 12q-4 25 -1 51h21v-13q-1 -47 9 -48q7 -1 18 12zM849 340h-21l1 15q-31 -34 -47 -4q-13 24 -2 51q14 33 49 8q-1 5 -1 43h21v-113zM828 370v6v8t-0.5 7.5
t-2 6.5t-4.5 3.5t-8 1.5q-18 -3 -16 -25q2 -20 15 -21q8 0 16 13zM870 404v14h50v-78h-22v64h-28zM920 432h-22v21h22v-21zM1029 379q1 -25 -19.5 -36t-41.5 0t-20 36q-1 25 20 35.5t41.5 0t19.5 -35.5zM1001 359q11 14 2 35q-10 22 -27 5q-11 -14 -2 -35q10 -22 27 -5z
M1112 354v-14h-64v14h22v78h-22v12l43 4v-94h21zM1208 372v-11h-20v22q-18 -35 -32 -18q-13 16 -5 42q8 27 36 18q-25 28 -41 -1q-16 -28 -5 -57q11 -32 47 -11q-7 -28 -32 -17.5t-32 40.5q-5 21 6 41q35 45 57 24t13 -72h8zM1178 382l2 4q2 3 3 5.5t3 6.5t2 7v5.5t-2.5 4
t-6.5 1.5q-14 2 -17 -23q-2 -20 7 -19q4 0 9 8zM1273 314q-11 -7 -33 -3.5t-15 20.5q31 -10 40 -1q5 5 5 29q-27 -34 -44 -10q-15 22 -6 51q11 35 48 13q1 -1 3 -2q0 5 3 6.5t9 1t7 -0.5q-1 -7 0.5 -33.5t-1.5 -46t-16 -24.5zM1269 373v13.5t-4 13t-12 4.5q-20 -3 -15 -26
q4 -18 16 -18q8 0 15 13zM1350 340h-18q4 52 -4 59q-2 2 -4 -4q-5 -15 -3 -55h-18v78h18l-1 -15q2 8 9.5 13t14 2t6.5 -15q28 46 30 -29q0 -15 -1 -34h-18q4 52 -4 59q-2 2 -4 -4q-5 -15 -3 -55zM1432 389h8q1 11 -7 14.5t-17 1.5t-18 -6q-3 13 9 18.5t27.5 2.5t22.5 -11
q6 -6 4.5 -17.5t-0.5 -24t8 -12.5q2 -11 -3.5 -14.5t-14 -1t-13.5 8.5q-25 -22 -39 -1q-13 18 0 33q10 13 33 9zM1440 363v12q-23 5 -27 -9q-2 -11 9 -11q8 -1 18 8zM1537 432h-21v21h21v-21zM1488 404v14h49v-78h-21v64h-28zM1618 340h-21v99h-28v14h49v-113zM1706 340h-24
v25h24v-25zM1792 405q-27 -3 -24 -26q3 -20 23 -26q13 -4 26 4q1 -23 -27 -20q-30 3 -42 24q-5 9 -3 18q-6 24 26 37q30 12 42 -3q5 -5 4 -13q-15 5 -25 5zM1842 349q-18 18 -11 40t27 28.5t41 -8.5q18 -18 11 -40t-27 -28.5t-41 8.5zM1883 359q11 14 1 35q-10 22 -27 5
q-11 -14 -1 -35q10 -22 27 -5zM1938 390v-50h-17v78h17l-1 -15q2 8 9.5 13t14 2t6.5 -15q28 46 30 -29q0 -15 -1 -34h-17q5 59 -5 59t-7 -59h-17q-1 1 0 16q1 43 -4 44q-3 1 -8 -10zM0 1860h2066v-2232h-2066v2232zM16 -356h2034v2200h-2034v-2200z" />
    <glyph glyph-name="five" unicode="5" horiz-adv-x="661" 
d="M521 719q13 0 17 -11.5t-5 -23.5q-23 -30 -57.5 -48t-70.5 -18h-171l-59 -220q30 11 61 17q26 5 63 5q60 0 99 -24q38 -24 52 -69t-3 -104q-18 -68 -58 -115t-101 -73q-2 -1 -6.5 -2.5l-7.5 -2.5v0q-33 -12 -54 -15q-104 -21 -177 11l-12 6l-2 2q-40 28 -26 82
q4 15 17 25.5t28 10.5q24 0 27 -22q5 -34 23 -53q24 -24 72 -24q67 0 111 40q47 42 67 119q14 54 5 88q-9 36 -35 50q-29 16 -67 16q-31 0 -59 -5q-31 -6 -37 -7q-21 -5 -34 4q-19 13 -12 40l48 179q13 51 59.5 87.5t97.5 36.5h151q21 0 26 2q8 3 14 9q9 7 16 7z" />
    <glyph glyph-name="six" unicode="6" horiz-adv-x="2185" 
d="M329 1021q-41 -12 -69.5 -3.5t-41.5 32.5t-20.5 58.5t-6 73.5t2 78t3 72.5t-1.5 56.5h45q4 -21 -1 -101t0 -148t33 -86q25 -8 41.5 4.5t22 32t5.5 44.5v254h51q-3 -35 -1 -92t5.5 -111.5t-12.5 -102t-55 -62.5zM554 1476v-36h-144v372h141v-41h-91v-121h74v-38h-74v-136
h94zM1880 1021h-52v50h52v-50zM1335 1141v248h48v-368h-38l-109 249v-249h-38v368h33zM1814 39q11 -52 -16.5 -77t-78.5 -16v188q55 7 81 -14.5t14 -80.5zM1745 115v-155q13 0 19 1t13.5 8.5t10.5 22.5q-2 8 1.5 47.5t-5.5 61.5t-39 14zM1746 -289h-22v188h22v-188zM329 115
h-43v-64h35v-18h-35v-87h-28v188h71v-19zM1097 115h-51v-64h38v-18h-38v-87h-19v188h70v-19zM490 1389q49 12 88.5 -15t33.5 -78l-39 -16q-9 63 -43 71q-25 7 -40 -19q-20 -36 15 -75q15 -16 38 -30q43 -22 64 -72t2 -93t-78 -46q-43 0 -69 29.5t-31 75.5l50 14
q-6 -57 33 -74q29 -14 49 7q24 24 0 70q-7 7 -27.5 25.5t-32.5 29.5t-29.5 31t-26 34t-14.5 33t-1.5 34.5t18.5 32.5t40 31zM1981 -227v126h21v-188h-19l-57 130v-130h-16v188h16zM815 1544l50 14q-3 -43 22.5 -68.5t59.5 -1.5q18 17 13 38.5t-19.5 39.5t-36.5 35
q-66 36 -80 103q-12 60 26 91q41 34 116 1q26 -16 32 -78l-38 -13q-1 46 -36 65t-57 -26q0 -25 12.5 -46t31 -37t38 -31t35.5 -35.5t20 -43.5q8 -45 -16.5 -79t-69.5 -34q-46 0 -73.5 30t-29.5 76zM1236 1512q-7 -49 -53 -67.5t-91 2t-48 69.5q-16 122 2 232q8 41 48 57.5
t82 3t56 -48.5q7 -26 9.5 -63.5t2 -57t-4 -71t-3.5 -56.5zM1096 1737q-5 -14 -6 -33.5t0.5 -47.5t1.5 -36q2 -12 -1 -46.5t2.5 -58.5t26.5 -36q32 -10 49.5 4.5t20 42.5t2.5 62t-3.5 63.5t1.5 45.5q7 31 -11.5 55.5t-45 22t-37.5 -37.5zM1133 1339q9 -22 11.5 -48.5t0 -65
t-2.5 -47.5q5 -42 0.5 -76.5t-28.5 -61t-68 -24.5q-37 0 -60.5 17.5t-33.5 41.5t-13 61t-0.5 66t6 68t3.5 57q9 39 50 55t82.5 3.5t52.5 -46.5zM1064 1059q23 14 28 55.5t1 94t-1 69.5q10 31 -9 53.5t-47 19.5t-40 -34q-5 -21 -2 -90t2 -92q-6 -40 13.5 -66.5t54.5 -9.5z
M1335 1688v-248h-41v372h33l101 -248v248h45v-372h-33zM1360 134v-174h45v-14h-71v188h26zM662 1021v368h143v-42h-95v-120h75v-37h-75v-138h95v-31h-143zM239 1612v-172h-47v372q12 -1 43 0t50.5 0t41 -11t31.5 -31q39 -67 -2.5 -120.5t-116.5 -37.5zM239 1771v-121
q39 -4 65 7.5t21 47.5q7 39 -20 56.5t-66 9.5zM520 33h-20v-87h-23v188q5 0 16.5 0.5t19 0.5t17 -1.5t16.5 -5.5q24 -11 25.5 -45.5t-25.5 -43.5l30 -93h-30zM500 115v-64q34 -5 43 23q9 24 -11 37q-13 8 -32 4zM647 1614v-174h-54v372h23.5h26.5t24.5 -0.5t26 -2.5t22.5 -5
t22 -8q41 -24 41.5 -88.5t-43.5 -80.5l48 -187h-48l-50 174h-39zM647 1771v-121q54 -12 74 30q17 35 -4 67q-22 35 -70 24zM1834 -101q11 -1 19 -4t13 -10t8 -11.5t4.5 -16t2 -16t0 -18.5t-0.5 -16q0 -60 -11 -78q-12 -20 -41 -20q-19 0 -31 8t-16 24.5t-5 27.5t-1 32v7
q0 20 0.5 30t3.5 25.5t9 22.5t17.5 11.5t28.5 1.5zM1815 -266q31 -21 40 37q9 55 -4 94q-3 10 -7 12q-9 4 -15.5 4.5t-10 -3.5t-6 -7t-3.5 -11.5t-1 -12v-13v-11.5q0 -3 -3 -27.5t-1 -41t11 -20.5zM1903 1476v-36h-145v372h52v-336h93zM1577 1529l-18 -89h-48l78 372h53
l77 -372h-48l-18 89h-76zM1617 1737l-32 -169h61zM837 -159q-4 44 32 55q32 11 54 -13q16 -17 11 -46h-29q5 46 -16 47q-17 1 -27 -25q-9 -24 -1 -52q-12 -42 10 -68q16 -20 28 -4q9 12 6 45h29q0 -55 -34 -70q-29 -13 -51 18q-27 38 -12 113zM872 -54v188h75v-19h-46v-64
h39v-18h-39v-73h46v-14h-75zM987 -289h-24v188h24v-188zM788 -106q21 -13 21 -46t-24 -41l29 -96h-26l-22 92h-21v-92h-29v188q6 0 24 1t28.5 0t19.5 -6zM745 -177q32 -7 39 18q6 23 -13 35q-11 7 -26 4v-57zM847 -54h-26v87h-52v-87h-24v188h24v-83h52v83h26v-188z
M1324 -239l28 138h23q-10 -48 -14 -68.5t-11.5 -50.5l-10 -40t-8.5 -20.5t-8 -10t-8 9.5t-8.5 20.5t-9.5 40t-11.5 50.5t-14.5 69h23zM1046 -101h27l42 -188h-25l-6 50h-40l-10 -50h-28zM1046 -226h34l-17 90zM1159 -101v-172h49v-16h-75v188h26zM1212 134q-2 -16 1.5 -61.5
t-3 -78.5t-31.5 -48q-28 -6 -44 6t-19 35t-3 51t3 53.5t-1 42.5h21q3 -12 -1 -57t0.5 -78.5t26.5 -38.5q24 5 28.5 38.5t1 78.5t-1.5 57h22zM1660 -177q20 -12 32.5 -38.5t5 -50t-38.5 -25.5q-24 -4 -44 23q-18 26 -1 35q6 3 16 3q-4 -23 18 -35q20 -11 28 8q2 4 2 11
q-3 11 -15.5 25.5t-25.5 27t-23 26.5t-9 29t18 28q21 23 53 5q25 -14 21 -33q-2 -12 -19 -18q-3 37 -23 39q-15 2 -21 -16q-7 -25 26 -44zM1312 -40v-14h-71v188h28v-174h43zM1395 -289v188h75v-19h-47v-57h38v-20h-38v-76h47v-16h-75zM1642 1389l56 -178l54 178h52
q-5 -17 -28.5 -85t-32.5 -99.5t-16.5 -85.5t-2.5 -98h-52q0 13 1 65.5t-1 64.5q-2 7 -35.5 106.5t-41.5 131.5h47zM1564 -106q19 -13 18 -47t-23 -42l27 -94h-24l-26 92h-17v-92h-29v188q5 0 23 1t30 0t21 -6zM1519 -177q32 -7 39 18q6 23 -13 35q-11 7 -26 4v-57zM240 -101
q36 4 50 -46t-1.5 -99.5t-49.5 -44.5q-15 0 -25.5 5.5t-15.5 11t-8 19.5t-3.5 19.5t0 23.5t0.5 20q0 20 0.5 30t3 25.5t8 22.5t16 11.5t25.5 1.5zM225 -266q30 -23 39 35q8 55 -5 95q-4 12 -8 13q-18 9 -28.5 -1t-10.5 -28q1 -8 -1 -36t0.5 -49t13.5 -29zM1438 1389h49v-337
h92v-31h-141v368zM1620 73v-127h-25v188h17l53 -124v124h24v-188h-18zM119 -291q-16 0 -27 7t-16.5 16t-8 26t-2.5 27.5t0.5 30t0.5 25.5q-3 43 33 56q32 10 53 -13q16 -17 11 -47h-23q-1 49 -21 48q-17 -1 -26 -30q-8 -23 -2 -48q-10 -39 13 -67q17 -22 29 -2q7 13 7 42h23
q0 -20 -2 -33t-12.5 -25.5t-29.5 -12.5zM732 134v-19h-34v-169h-29v169h-34v19h97zM410 -101h27l1 -188h-18v137q-28 -140 -40.5 -140t-40.5 140v-137h-24v188h30l34 -149zM402 138q33 0 46 -50.5t-2 -99.5t-48 -44q-36 -6 -50.5 47t1.5 104t53 43zM424 32q0 3 0.5 14.5
t0.5 20.5t-1 19.5t-4.5 17.5t-9.5 10q-14 9 -26 -2.5t-12 -30.5q2 -10 -1 -37t0 -48.5t19 -32.5q12 -3 19.5 2.5t10.5 19.5t3.5 23t0.5 24zM623 -289v188h75v-19h-48v-57h39v-20h-39v-76h48v-16h-75zM564 -101h26l3 -188h-17l-3 137l-32 -137h-21l-26 137l-4 -137h-19v188
h27l33 -149zM1880 1389q-8 -189 -17 -255t-18 -1t-17 256h52zM1491 -54h-21l37 188h30l40 -188h-27l-7 47q-13 3 -21.5 1t-12.5 -2t-6.5 -5t-3 -9t-3 -13.5t-5.5 -18.5zM1522 98l-15 -86h32zM265 729q-8 57 49 88q44 23 78 10q24 -9 19 -35q-20 7 -29.5 9.5t-23 1.5
t-25.5 -8q-19 -16 -25.5 -39.5t-0.5 -44.5t20 -37.5t36 -18t48 13.5q4 -36 -35 -41q-43 -6 -81 26q-37 31 -30 75zM497 829q29 1 49.5 -19.5t25 -50t0 -59.5t-25 -50.5t-49.5 -19.5q-29 -1 -49.5 19.5t-25 50.5t0 59.5t25 50t49.5 19.5zM527 684q12 28 1 82t-50 30
q-24 -19 -17 -78q6 -55 29 -63q18 -5 37 29zM694 702v122h25v-190h-33q-2 4 -5.5 10t-12.5 23t-17 31.5t-16.5 29.5t-14.5 24l-5 9v-127h-25v190h35zM737 799v25h152v-25h-57v-165h-38v165h-57zM921 634h-27l62 190h38l53 -190q-13 -3 -21.5 -1t-12.5 2t-7 5.5t-3.5 9.5
t-3 14t-5.5 19h-58zM967 778l-23 -72h43zM1095 815q29 17 70 15q46 -2 36 -38q-61 32 -91 -12q-23 -36 -8 -81q15 -47 58 -44q19 2 41 14q4 -7 1.5 -13t-2.5 -10t-5.5 -6.5t-7.5 -4t-9.5 -2.5t-11 -1.5t-11 -1t-10.5 -0.5q-45 -2 -70.5 34t-19.5 82t40 69zM1306 634h-38v165
h-57v25h151v-25h-56v-165zM1671 824v-190h-29v146l-7 -24q-7 -23 -13 -47l-7 -24h-29q-1 3 -2 7.5t-4.5 17t-6.5 23.5t-6.5 22.5t-5.5 18.5l-2 6v-146h-25v190h44q2 -5 4.5 -14t8 -28t9.5 -31l4 -12l26 85h41zM1821 799h-80v-54h68v-24h-68v-61h87v-26h-125v190h118v-25z
M95 338q-26 4 -26 22q1 19 22 28q13 5 27 1q1 11 -7 14.5t-17.5 1.5t-18.5 -6q-3 13 9 18.5t27.5 2.5t22.5 -11q6 -6 4.5 -17.5t-0.5 -24t8 -12.5q3 -9 -2.5 -14t-13.5 -3t-12 10q-1 -1 -6 -4.5t-8.5 -4.5t-8.5 -1zM93 372q-10 -14 4 -17q15 -3 21 9q2 5 0 11q-23 0 -25 -3z
M188 385v-45h-21v78h21l-1 -15q16 22 44 15v-32h-14q4 15 -7 15q-14 -1 -22 -16zM247 340q-4 7 5 20t24 28l16 16h-43v14h71q4 -6 -5.5 -19t-24 -27t-15.5 -16h45v-16h-73zM374 389h8q1 11 -7 14.5t-17 1.5t-18 -6q-3 13 9 18.5t27.5 2.5t22.5 -11q6 -6 4.5 -17.5t-0.5 -24
t8 -12.5q2 -11 -3.5 -14.5t-14 -1t-13.5 8.5q-25 -22 -39 -1q-13 18 0 33q10 13 33 9zM382 363v12q-23 5 -27 -9q-2 -11 9 -11q8 -1 18 8zM475 312q0 34 1 43q-31 -34 -47 -4q-13 24 -2 51q14 33 50 8q0 5 3 7t7.5 1t8.5 0v-106h-21zM467 361q6 3 8.5 14t-1.5 20t-14 8
q-15 0 -16 -22q-1 -21 12 -23q5 -1 11 3zM541 404q-12 -7 7 -13q48 -15 32 -36q-12 -18 -40 -18q-26 0 -25 22q39 -16 43 -1q0 3 -1 7q-3 2 -15.5 7t-20 10.5t-6.5 13.5q-1 18 27 24q29 6 35 -11q1 -4 0 -9q-26 8 -36 4zM633 341q-10 3 -13 13.5t-2 27.5t1 20h-17v14h17v19
h21v-19h29v-14h-29q-2 -43 10 -47q8 -3 20 3q4 -15 -10.5 -19t-26.5 2zM737 369v49h21v-78h-21l1 15q-38 -44 -48 12q-4 25 -1 51h21v-13q-1 -47 9 -48q7 -1 18 12zM849 340h-21l1 15q-31 -34 -47 -4q-13 24 -2 51q14 33 49 8q-1 5 -1 43h21v-113zM828 370v6v8t-0.5 7.5
t-2 6.5t-4.5 3.5t-8 1.5q-18 -3 -16 -25q2 -20 15 -21q8 0 16 13zM870 404v14h50v-78h-22v64h-28zM920 432h-22v21h22v-21zM1029 379q1 -25 -19.5 -36t-41.5 0t-20 36q-1 25 20 35.5t41.5 0t19.5 -35.5zM1001 359q11 14 2 35q-10 22 -27 5q-11 -14 -2 -35q10 -22 27 -5z
M1112 354v-14h-64v14h22v78h-22v12l43 4v-94h21zM1208 372v-11h-20v22q-18 -35 -32 -18q-13 16 -5 42q8 27 36 18q-25 28 -41 -1q-16 -28 -5 -57q11 -32 47 -11q-7 -28 -32 -17.5t-32 40.5q-5 21 6 41q35 45 57 24t13 -72h8zM1178 382l2 4q2 3 3 5.5t3 6.5t2 7v5.5t-2.5 4
t-6.5 1.5q-14 2 -17 -23q-2 -20 7 -19q4 0 9 8zM1273 314q-11 -7 -33 -3.5t-15 20.5q31 -10 40 -1q5 5 5 29q-27 -34 -44 -10q-15 22 -6 51q11 35 48 13q1 -1 3 -2q0 5 3 6.5t9 1t7 -0.5q-1 -7 0.5 -33.5t-1.5 -46t-16 -24.5zM1269 373v13.5t-4 13t-12 4.5q-20 -3 -15 -26
q4 -18 16 -18q8 0 15 13zM1350 340h-18q4 52 -4 59q-2 2 -4 -4q-5 -15 -3 -55h-18v78h18l-1 -15q2 8 9.5 13t14 2t6.5 -15q28 46 30 -29q0 -15 -1 -34h-18q4 52 -4 59q-2 2 -4 -4q-5 -15 -3 -55zM1432 389h8q1 11 -7 14.5t-17 1.5t-18 -6q-3 13 9 18.5t27.5 2.5t22.5 -11
q6 -6 4.5 -17.5t-0.5 -24t8 -12.5q2 -11 -3.5 -14.5t-14 -1t-13.5 8.5q-25 -22 -39 -1q-13 18 0 33q10 13 33 9zM1440 363v12q-23 5 -27 -9q-2 -11 9 -11q8 -1 18 8zM1537 432h-21v21h21v-21zM1488 404v14h49v-78h-21v64h-28zM1618 340h-21v99h-28v14h49v-113zM1706 340h-24
v25h24v-25zM1792 405q-27 -3 -24 -26q3 -20 23 -26q13 -4 26 4q1 -23 -27 -20q-30 3 -42 24q-5 9 -3 18q-6 24 26 37q30 12 42 -3q5 -5 4 -13q-15 5 -25 5zM1842 349q-18 18 -11 40t27 28.5t41 -8.5q18 -18 11 -40t-27 -28.5t-41 8.5zM1883 359q11 14 1 35q-10 22 -27 5
q-11 -14 -1 -35q10 -22 27 -5zM1938 390v-50h-17v78h17l-1 -15q2 8 9.5 13t14 2t6.5 -15q28 46 30 -29q0 -15 -1 -34h-17q5 59 -5 59t-7 -59h-17q-1 1 0 16q1 43 -4 44q-3 1 -8 -10zM0 1860h2066v-2232h-2066v2232zM16 -356h2034v2200h-2034v-2200z" />
    <glyph glyph-name="seven" unicode="7" horiz-adv-x="653" 
d="M516 702q20 0 15 -21q-1 -4 -4 -8l-454 -642q-16 -23 -43 -23q-22 0 -28 18t8 38l401 542q2 8 -6 8h-225q-24 0 -36 -4q-15 -5 -25 -12q-12 -9 -20 -19q-9 -13 -19 -31q-9 -17 -29 -17q-11 0 -16.5 8t-1.5 18l7 22q17 52 64.5 87.5t100.5 35.5h311z" />
    <glyph glyph-name="eight" unicode="8" horiz-adv-x="2185" 
d="M329 1021q-41 -12 -69.5 -3.5t-41.5 32.5t-20.5 58.5t-6 73.5t2 78t3 72.5t-1.5 56.5h45q4 -21 -1 -101t0 -148t33 -86q25 -8 41.5 4.5t22 32t5.5 44.5v254h51q-3 -35 -1 -92t5.5 -111.5t-12.5 -102t-55 -62.5zM554 1476v-36h-144v372h141v-41h-91v-121h74v-38h-74v-136
h94zM1880 1021h-52v50h52v-50zM1335 1141v248h48v-368h-38l-109 249v-249h-38v368h33zM1814 39q11 -52 -16.5 -77t-78.5 -16v188q55 7 81 -14.5t14 -80.5zM1745 115v-155q13 0 19 1t13.5 8.5t10.5 22.5q-2 8 1.5 47.5t-5.5 61.5t-39 14zM1746 -289h-22v188h22v-188zM329 115
h-43v-64h35v-18h-35v-87h-28v188h71v-19zM1097 115h-51v-64h38v-18h-38v-87h-19v188h70v-19zM490 1389q49 12 88.5 -15t33.5 -78l-39 -16q-9 63 -43 71q-25 7 -40 -19q-20 -36 15 -75q15 -16 38 -30q43 -22 64 -72t2 -93t-78 -46q-43 0 -69 29.5t-31 75.5l50 14
q-6 -57 33 -74q29 -14 49 7q24 24 0 70q-7 7 -27.5 25.5t-32.5 29.5t-29.5 31t-26 34t-14.5 33t-1.5 34.5t18.5 32.5t40 31zM1981 -227v126h21v-188h-19l-57 130v-130h-16v188h16zM815 1544l50 14q-3 -43 22.5 -68.5t59.5 -1.5q18 17 13 38.5t-19.5 39.5t-36.5 35
q-66 36 -80 103q-12 60 26 91q41 34 116 1q26 -16 32 -78l-38 -13q-1 46 -36 65t-57 -26q0 -25 12.5 -46t31 -37t38 -31t35.5 -35.5t20 -43.5q8 -45 -16.5 -79t-69.5 -34q-46 0 -73.5 30t-29.5 76zM1236 1512q-7 -49 -53 -67.5t-91 2t-48 69.5q-16 122 2 232q8 41 48 57.5
t82 3t56 -48.5q7 -26 9.5 -63.5t2 -57t-4 -71t-3.5 -56.5zM1096 1737q-5 -14 -6 -33.5t0.5 -47.5t1.5 -36q2 -12 -1 -46.5t2.5 -58.5t26.5 -36q32 -10 49.5 4.5t20 42.5t2.5 62t-3.5 63.5t1.5 45.5q7 31 -11.5 55.5t-45 22t-37.5 -37.5zM1133 1339q9 -22 11.5 -48.5t0 -65
t-2.5 -47.5q5 -42 0.5 -76.5t-28.5 -61t-68 -24.5q-37 0 -60.5 17.5t-33.5 41.5t-13 61t-0.5 66t6 68t3.5 57q9 39 50 55t82.5 3.5t52.5 -46.5zM1064 1059q23 14 28 55.5t1 94t-1 69.5q10 31 -9 53.5t-47 19.5t-40 -34q-5 -21 -2 -90t2 -92q-6 -40 13.5 -66.5t54.5 -9.5z
M1335 1688v-248h-41v372h33l101 -248v248h45v-372h-33zM1360 134v-174h45v-14h-71v188h26zM662 1021v368h143v-42h-95v-120h75v-37h-75v-138h95v-31h-143zM239 1612v-172h-47v372q12 -1 43 0t50.5 0t41 -11t31.5 -31q39 -67 -2.5 -120.5t-116.5 -37.5zM239 1771v-121
q39 -4 65 7.5t21 47.5q7 39 -20 56.5t-66 9.5zM520 33h-20v-87h-23v188q5 0 16.5 0.5t19 0.5t17 -1.5t16.5 -5.5q24 -11 25.5 -45.5t-25.5 -43.5l30 -93h-30zM500 115v-64q34 -5 43 23q9 24 -11 37q-13 8 -32 4zM647 1614v-174h-54v372h23.5h26.5t24.5 -0.5t26 -2.5t22.5 -5
t22 -8q41 -24 41.5 -88.5t-43.5 -80.5l48 -187h-48l-50 174h-39zM647 1771v-121q54 -12 74 30q17 35 -4 67q-22 35 -70 24zM1834 -101q11 -1 19 -4t13 -10t8 -11.5t4.5 -16t2 -16t0 -18.5t-0.5 -16q0 -60 -11 -78q-12 -20 -41 -20q-19 0 -31 8t-16 24.5t-5 27.5t-1 32v7
q0 20 0.5 30t3.5 25.5t9 22.5t17.5 11.5t28.5 1.5zM1815 -266q31 -21 40 37q9 55 -4 94q-3 10 -7 12q-9 4 -15.5 4.5t-10 -3.5t-6 -7t-3.5 -11.5t-1 -12v-13v-11.5q0 -3 -3 -27.5t-1 -41t11 -20.5zM1903 1476v-36h-145v372h52v-336h93zM1577 1529l-18 -89h-48l78 372h53
l77 -372h-48l-18 89h-76zM1617 1737l-32 -169h61zM837 -159q-4 44 32 55q32 11 54 -13q16 -17 11 -46h-29q5 46 -16 47q-17 1 -27 -25q-9 -24 -1 -52q-12 -42 10 -68q16 -20 28 -4q9 12 6 45h29q0 -55 -34 -70q-29 -13 -51 18q-27 38 -12 113zM872 -54v188h75v-19h-46v-64
h39v-18h-39v-73h46v-14h-75zM987 -289h-24v188h24v-188zM788 -106q21 -13 21 -46t-24 -41l29 -96h-26l-22 92h-21v-92h-29v188q6 0 24 1t28.5 0t19.5 -6zM745 -177q32 -7 39 18q6 23 -13 35q-11 7 -26 4v-57zM847 -54h-26v87h-52v-87h-24v188h24v-83h52v83h26v-188z
M1324 -239l28 138h23q-10 -48 -14 -68.5t-11.5 -50.5l-10 -40t-8.5 -20.5t-8 -10t-8 9.5t-8.5 20.5t-9.5 40t-11.5 50.5t-14.5 69h23zM1046 -101h27l42 -188h-25l-6 50h-40l-10 -50h-28zM1046 -226h34l-17 90zM1159 -101v-172h49v-16h-75v188h26zM1212 134q-2 -16 1.5 -61.5
t-3 -78.5t-31.5 -48q-28 -6 -44 6t-19 35t-3 51t3 53.5t-1 42.5h21q3 -12 -1 -57t0.5 -78.5t26.5 -38.5q24 5 28.5 38.5t1 78.5t-1.5 57h22zM1660 -177q20 -12 32.5 -38.5t5 -50t-38.5 -25.5q-24 -4 -44 23q-18 26 -1 35q6 3 16 3q-4 -23 18 -35q20 -11 28 8q2 4 2 11
q-3 11 -15.5 25.5t-25.5 27t-23 26.5t-9 29t18 28q21 23 53 5q25 -14 21 -33q-2 -12 -19 -18q-3 37 -23 39q-15 2 -21 -16q-7 -25 26 -44zM1312 -40v-14h-71v188h28v-174h43zM1395 -289v188h75v-19h-47v-57h38v-20h-38v-76h47v-16h-75zM1642 1389l56 -178l54 178h52
q-5 -17 -28.5 -85t-32.5 -99.5t-16.5 -85.5t-2.5 -98h-52q0 13 1 65.5t-1 64.5q-2 7 -35.5 106.5t-41.5 131.5h47zM1564 -106q19 -13 18 -47t-23 -42l27 -94h-24l-26 92h-17v-92h-29v188q5 0 23 1t30 0t21 -6zM1519 -177q32 -7 39 18q6 23 -13 35q-11 7 -26 4v-57zM240 -101
q36 4 50 -46t-1.5 -99.5t-49.5 -44.5q-15 0 -25.5 5.5t-15.5 11t-8 19.5t-3.5 19.5t0 23.5t0.5 20q0 20 0.5 30t3 25.5t8 22.5t16 11.5t25.5 1.5zM225 -266q30 -23 39 35q8 55 -5 95q-4 12 -8 13q-18 9 -28.5 -1t-10.5 -28q1 -8 -1 -36t0.5 -49t13.5 -29zM1438 1389h49v-337
h92v-31h-141v368zM1620 73v-127h-25v188h17l53 -124v124h24v-188h-18zM119 -291q-16 0 -27 7t-16.5 16t-8 26t-2.5 27.5t0.5 30t0.5 25.5q-3 43 33 56q32 10 53 -13q16 -17 11 -47h-23q-1 49 -21 48q-17 -1 -26 -30q-8 -23 -2 -48q-10 -39 13 -67q17 -22 29 -2q7 13 7 42h23
q0 -20 -2 -33t-12.5 -25.5t-29.5 -12.5zM732 134v-19h-34v-169h-29v169h-34v19h97zM410 -101h27l1 -188h-18v137q-28 -140 -40.5 -140t-40.5 140v-137h-24v188h30l34 -149zM402 138q33 0 46 -50.5t-2 -99.5t-48 -44q-36 -6 -50.5 47t1.5 104t53 43zM424 32q0 3 0.5 14.5
t0.5 20.5t-1 19.5t-4.5 17.5t-9.5 10q-14 9 -26 -2.5t-12 -30.5q2 -10 -1 -37t0 -48.5t19 -32.5q12 -3 19.5 2.5t10.5 19.5t3.5 23t0.5 24zM623 -289v188h75v-19h-48v-57h39v-20h-39v-76h48v-16h-75zM564 -101h26l3 -188h-17l-3 137l-32 -137h-21l-26 137l-4 -137h-19v188
h27l33 -149zM1880 1389q-8 -189 -17 -255t-18 -1t-17 256h52zM1491 -54h-21l37 188h30l40 -188h-27l-7 47q-13 3 -21.5 1t-12.5 -2t-6.5 -5t-3 -9t-3 -13.5t-5.5 -18.5zM1521 98l-14 -86h32zM265 729q-8 57 49 88q44 23 78 10q24 -9 19 -35q-20 7 -29.5 9.5t-23 1.5
t-25.5 -8q-19 -16 -25.5 -39.5t-0.5 -44.5t20 -37.5t36 -18t48 13.5q4 -36 -35 -41q-43 -6 -81 26q-37 31 -30 75zM497 829q29 1 49.5 -19.5t25 -50t0 -59.5t-25 -50.5t-49.5 -19.5q-29 -1 -49.5 19.5t-25 50.5t0 59.5t25 50t49.5 19.5zM527 684q12 28 1 82t-50 30
q-24 -19 -17 -78q6 -55 29 -63q18 -5 37 29zM694 702v122h25v-190h-33q-2 4 -5.5 10t-12.5 23t-17 31.5t-16.5 29.5t-14.5 24l-5 9v-127h-25v190h35zM737 799v25h152v-25h-57v-165h-38v165h-57zM921 634h-27l62 190h38l53 -190q-13 -3 -21.5 -1t-12.5 2t-7 5.5t-3.5 9.5
t-3 14t-5.5 19h-58zM967 778l-23 -72h43zM1095 815q29 17 70 15q46 -2 36 -38q-61 32 -91 -12q-23 -36 -8 -81q15 -47 58 -44q19 2 41 14q4 -7 1.5 -13t-2.5 -10t-5.5 -6.5t-7.5 -4t-9.5 -2.5t-11 -1.5t-11 -1t-10.5 -0.5q-45 -2 -70.5 34t-19.5 82t40 69zM1306 634h-38v165
h-57v25h151v-25h-56v-165zM1671 824v-190h-29v146l-7 -24q-7 -23 -13 -47l-7 -24h-29q-1 3 -2 7.5t-4.5 17t-6.5 23.5t-6.5 22.5t-5.5 18.5l-2 6v-146h-25v190h44q2 -5 4.5 -14t8 -28t9.5 -31l4 -12l26 85h41zM1821 799h-80v-54h68v-24h-68v-61h87v-26h-125v190h118v-25z
M95 338q-26 4 -26 22q1 19 22 28q13 5 27 1q1 11 -7 14.5t-17.5 1.5t-18.5 -6q-3 13 9 18.5t27.5 2.5t22.5 -11q6 -6 4.5 -17.5t-0.5 -24t8 -12.5q3 -9 -2.5 -14t-13.5 -3t-12 10q-1 -1 -6 -4.5t-8.5 -4.5t-8.5 -1zM93 372q-10 -14 4 -17q15 -3 21 9q2 5 0 11q-23 0 -25 -3z
M188 385v-45h-22v78h22l-1 -15q16 22 44 15v-32h-14q4 15 -7 15q-14 -1 -22 -16zM247 340q-4 7 5 20t24 28l16 16h-43v14h71q4 -6 -5.5 -19t-24 -27t-15.5 -16h45v-16h-73zM374 389h8q1 11 -7 14.5t-17 1.5t-18 -6q-3 13 9 18.5t27.5 2.5t22.5 -11q6 -6 4.5 -17.5t-0.5 -24
t8 -12.5q2 -11 -3.5 -14.5t-14 -1t-13.5 8.5q-25 -22 -39 -1q-13 18 0 33q10 13 33 9zM382 363v12q-23 5 -27 -9q-2 -11 9 -11q8 -1 18 8zM475 312q0 34 1 43q-31 -34 -47 -4q-13 24 -2 51q14 33 50 8q0 5 3 7t7.5 1t8.5 0v-106h-21zM467 361q6 3 8.5 14t-1.5 20t-14 8
q-15 0 -16 -22q-1 -21 12 -23q5 -1 11 3zM541 404q-12 -7 7 -13q48 -15 32 -36q-12 -18 -40 -18q-26 0 -25 22q39 -16 43 -1q0 3 -1 7q-3 2 -15.5 7t-20 10.5t-6.5 13.5q-1 18 27 24q29 6 35 -11q1 -4 0 -9q-26 8 -36 4zM633 341q-10 3 -13 13.5t-2 27.5t1 20h-17v14h17v19
h21v-19h29v-14h-29q-2 -43 10 -47q8 -3 20 3q4 -15 -10.5 -19t-26.5 2zM737 369v49h21v-78h-21l1 15q-38 -44 -48 12q-4 25 -1 51h21v-13q-1 -47 9 -48q7 -1 18 12zM849 340h-21l1 15q-31 -34 -47 -4q-13 24 -2 51q14 33 49 8q-1 5 -1 43h21v-113zM828 370v6v8t-0.5 7.5
t-2 6.5t-4.5 3.5t-8 1.5q-18 -3 -16 -25q2 -20 15 -21q8 0 16 13zM870 404v14h50v-78h-22v64h-28zM920 432h-22v21h22v-21zM1029 379q1 -25 -19.5 -36t-41.5 0t-20 36q-1 25 20 35.5t41.5 0t19.5 -35.5zM1001 359q11 14 2 35q-10 22 -27 5q-11 -14 -2 -35q10 -22 27 -5z
M1112 354v-14h-64v14h22v78h-22v12l43 4v-94h21zM1208 372v-11h-20v22q-18 -35 -32 -18q-13 16 -5 42q8 27 36 18q-25 28 -41 -1q-16 -28 -5 -57q11 -32 47 -11q-7 -28 -32 -17.5t-32 40.5q-5 21 6 41q35 45 57 24t13 -72h8zM1178 382l2 4q2 3 3 5.5t3 6.5t2 7v5.5t-2.5 4
t-6.5 1.5q-14 2 -17 -23q-2 -20 7 -19q4 0 9 8zM1273 314q-11 -7 -33 -3.5t-15 20.5q31 -10 40 -1q5 5 5 29q-27 -34 -44 -10q-15 22 -6 51q11 35 48 13q1 -1 3 -2q0 5 3 6.5t9 1t7 -0.5q-1 -7 0.5 -33.5t-1.5 -46t-16 -24.5zM1269 373v13.5t-4 13t-12 4.5q-20 -3 -15 -26
q4 -18 16 -18q8 0 15 13zM1350 340h-18q4 52 -4 59q-2 2 -4 -4q-5 -15 -3 -55h-18v78h18l-1 -15q2 8 9.5 13t14 2t6.5 -15q28 46 30 -29q0 -15 -1 -34h-18q4 52 -4 59q-2 2 -4 -4q-5 -15 -3 -55zM1432 389h8q1 11 -7 14.5t-17 1.5t-18 -6q-3 13 9 18.5t27.5 2.5t22.5 -11
q6 -6 4.5 -17.5t-0.5 -24t8 -12.5q2 -11 -3.5 -14.5t-14 -1t-13.5 8.5q-25 -22 -39 -1q-13 18 0 33q10 13 33 9zM1440 363v12q-23 5 -27 -9q-2 -11 9 -11q8 -1 18 8zM1537 432h-21v21h21v-21zM1488 404v14h49v-78h-21v64h-28zM1618 340h-21v99h-28v14h49v-113zM1706 340h-24
v25h24v-25zM1792 405q-27 -3 -24 -26q3 -20 23 -26q13 -4 26 4q1 -23 -27 -20q-30 3 -42 24q-5 9 -3 18q-6 24 26 37q30 12 42 -3q5 -5 4 -13q-15 5 -25 5zM1842 349q-18 18 -11 40t27 28.5t41 -8.5q18 -18 11 -40t-27 -28.5t-41 8.5zM1883 359q11 14 1 35q-10 22 -27 5
q-11 -14 -1 -35q10 -22 27 -5zM1938 390v-50h-17v78h17l-1 -15q2 8 9.5 13t14 2t6.5 -15q28 46 30 -29q0 -15 -1 -34h-17q5 59 -5 59t-7 -59h-17q-1 1 0 16q1 43 -4 44q-3 1 -8 -10zM0 1860h2066v-2232h-2066v2232zM16 -356h2034v2200h-2034v-2200z" />
    <glyph glyph-name="nine" unicode="9" horiz-adv-x="624" 
d="M487 631q35 -73 -1 -206q-33 -124 -97 -213q-66 -92 -149 -140q-45 -27 -105 -44q-56 -17 -113 -17q-12 0 -18 8.5t-3 20.5q4 14 17.5 23t26.5 6q34 -8 83 7h2q27 9 47 19q59 30 106 91q48 62 83 157l-4 2q-50 -30 -94 -44q-42 -13 -90 -13q-56 0 -89 24q-32 23 -40 69
t8 103q12 46 37 84q28 43 62 70q35 28 86 47q45 17 106 17q105 0 139 -71zM399 448q17 64 17 116q0 47 -22 72t-62 25q-39 0 -66 -13q-28 -14 -51 -36q-24 -24 -38 -52q-17 -34 -25 -66q-20 -75 -1 -114q20 -41 74 -41q13 0 37 4q18 3 36 9q12 4 36 16q15 8 33 20q6 5 11 11
q7 10 10 16q6 14 11 33z" />
    <glyph glyph-name="colon" unicode=":" horiz-adv-x="319" 
d="M123 124q21 0 31 -14.5t5 -35.5l-4 -16q-5 -21 -23.5 -35.5t-39.5 -14.5t-31.5 14.5t-5.5 35.5l4 16q5 21 24 35.5t40 14.5zM213 459q21 0 31 -14.5t5 -35.5l-4 -17q-5 -21 -24 -35.5t-40 -14.5t-31 14.5t-5 35.5l4 17q5 21 24 35.5t40 14.5z" />
    <glyph glyph-name="semicolon" unicode=";" horiz-adv-x="411" 
d="M214 131q17 0 26.5 -11.5t6.5 -28.5l-6 -27q-9 -36 -28 -63q-17 -25 -53 -56q-28 -23 -68 -50q-19 -12 -28 3t8 29q20 16 30 28q16 19 28 43t21 60l6 27q5 19 21.5 32.5t35.5 13.5zM297 459q20 0 30.5 -14.5t5.5 -34.5l-5 -16q-5 -20 -23.5 -34.5t-38.5 -14.5t-30 14.5
t-5 34.5l4 16q5 20 23.5 34.5t38.5 14.5z" />
    <glyph glyph-name="less" unicode="&#x3c;" horiz-adv-x="821" 
d="M717 636q19 8 32 -2t8 -29q-7 -24 -29 -32l-587 -228l465 -228q19 -9 12 -32q-5 -19 -23.5 -29t-33.5 -2l-477 241q-29 15 -19 50t46 50z" />
    <glyph glyph-name="equal" unicode="=" horiz-adv-x="792" 
d="M647 289q14 0 21 -9.5t3 -22.5q-4 -14 -16.5 -23.5t-25.5 -9.5h-536q-14 0 -21 10t-3 23t15.5 22.5t25.5 9.5h537zM701 492q14 0 21 -10t3 -23t-15.5 -22.5t-25.5 -9.5h-537q-14 0 -21 9.5t-3 22.5q4 14 16 23.5t25 9.5h537z" />
    <glyph glyph-name="greater" unicode="&#x3e;" horiz-adv-x="821" 
d="M739 393q29 -15 19 -50q-9 -34 -45 -49l-610 -243q-20 -8 -32.5 2t-7.5 29q7 24 29 32l590 229l-467 230q-19 9 -12 32q5 19 23.5 29t33.5 2z" />
    <glyph glyph-name="question" unicode="?" horiz-adv-x="821" 
d="M188 226q36 0 55 -25.5t9 -61.5l-8 -28q-10 -36 -42 -61.5t-68 -25.5t-54.5 25.5t-8.5 61.5l7 28q10 36 42 61.5t68 25.5zM746 1108q16 -54 -3 -124q-9 -36 -24 -66q-18 -36 -35 -59q-21 -29 -49 -58q-39 -41 -61 -61q-33 -30 -114 -102q-60 -54 -90 -87q-31 -34 -46 -63
q-19 -37 -31 -80q-2 -9 -10 -15.5t-17 -6.5h-73q-9 0 -13.5 6.5t-2.5 15.5l2 7q9 36 20 58q13 27 27 46q13 19 50 59q29 32 89 87q69 66 100 104q36 44 56 83q24 47 37 96q18 67 12 113q-6 47 -32 70q-27 24 -70 24q-68 0 -121 -41q-38 -30 -66 -77q-29 -46 -75 -46
q-28 0 -42 19.5t-7 47.5l5 18q26 65 148 111q30 11 54 17q77 20 141 20q105 0 164 -31q61 -32 77 -85z" />
    <glyph glyph-name="at" unicode="@" horiz-adv-x="1005" 
d="M944 550q4 -54 -15 -129q-24 -90 -68 -157q-44 -68 -104 -106q-59 -38 -123 -38q-23 0 -41 6t-30 18q-13 13 -16 32q-3 20 4 47q3 11 8 25l-6 1q-64 -69 -111 -98q-50 -31 -90 -31q-34 0 -54 18q-21 20 -24 51q-3 36 8 77q13 46 34 87q23 44 53 83q31 40 67 70t80 48
q46 19 86 19q33 0 55 -7q24 -8 43 -22l39 23q11 6 20 3q9 -2 12 -10.5t-1 -18.5l-119 -242q-12 -24 -18 -39q-5 -13 -10 -29q-16 -61 34 -61q37 0 75 30q37 30 68 85q31 57 47 116q27 99 13 168q-14 68 -68 103q-55 35 -145 35q-112 0 -210 -50q-95 -48 -167 -143t-103 -212
q-27 -104 -11 -172q17 -70 75 -104q59 -35 152 -35q46 0 85 6q32 5 60 13q11 3 18.5 -2t7.5 -15t-7.5 -19t-17.5 -12q-36 -9 -62 -13q-46 -7 -100 -7q-133 0 -207 43t-94 125q-19 80 13 200q24 92 78 173t132 144q77 62 172 96q96 34 193 34q96 0 161 -27t95 -74
q29 -45 34 -106zM565 309q27 37 46 78l9 20q14 31 15 33l9 27q9 34 -2 49q-10 15 -43 15q-19 0 -37 -6q-16 -5 -39 -20q-21 -14 -43 -37q-25 -27 -43 -55q-20 -31 -39 -71q-17 -36 -27 -73q-12 -45 -6 -67t35 -22q22 0 48 16q27 16 60 48q32 30 57 65z" />
    <glyph glyph-name="A" unicode="A" horiz-adv-x="2496" 
d="M2615 1626q12 -2 10 -14q-2 -9 -11 -11q-70 -10 -97 -112q-21 -80 -45 -207t-43 -245t-48.5 -260t-61.5 -264.5t-82 -245.5t-110 -215t-146.5 -161t-190.5 -96q-12 -3 -14 9q-2 8 6 12q69 35 119 84q2 2 5.5 5t5.5 5l1 2q1 2 2 2q1 1 2.5 3t2.5 3q42 45 77 111
q22 42 31 63q9 27 11 35q17 58 23 129q11 121 -15 260q-11 60 -30 126q-23 79 -39 124l-12 30l-12 30l-7 15l-6 15q-2 4 -4 8.5t-5 10.5t-5 9q-2 4 -6.5 12.5t-6.5 12.5q-3 -3 -6.5 -10t-6.5 -11l-11 -17q-63 -95 -108 -161.5t-111.5 -158.5t-120 -157.5t-125.5 -144.5
t-135.5 -134t-142.5 -111t-155.5 -91t-164 -59t-177.5 -29q-315 -19 -493 157q-139 137 -155 352q-16 210 91 399q113 200 319 291q123 55 268 62q48 3 103 -6q6 12 20 34q17 27 41 54q46 52 101 87q111 72 251 88q66 8 134 3q64 -3 133 -20q132 -33 245 -113
q57 -40 104 -87q32 -32 47 -49t43 -53q20 -28 30 -43q63 94 101.5 150t94 133t97.5 124.5t91.5 97.5t97 80.5t94.5 46.5q3 1 9.5 3t9.5 3l12 3h2q36 6 72 2h2v0zM1883 910q3 4 8.5 13t8.5 13q-13 23 -39 60q-13 19 -39 51q-21 26 -43 49q-25 26 -46 45q-41 36 -49 42
q-105 82 -228 119q-59 19 -127 25q-71 7 -131 1q-71 -7 -128 -26q-68 -23 -117 -56q-58 -38 -98 -86q-18 -21 -39 -52q-9 -15 -16 -29q92 -20 158 -78t96.5 -136t38 -171t-17.5 -182q27 -2 49 1q32 3 62 12q32 9 58 22q59 30 98 75q16 17 36 50q19 32 28 55q22 56 19 118
q-3 60 -34 111t-80 83q-47 31 -107 39q-60 7 -110 -12q-18 -7 -35.5 1.5t-24.5 26.5t1.5 35.5t26.5 24.5h2l2 1h1q45 11 75 12q38 2 76 -6q75 -15 136 -61q62 -46 96 -112q35 -67 35 -142q0 -24 -1 -36q-2 -18 -6 -36q-7 -32 -23 -68q-17 -37 -34 -62q-13 -20 -45 -54
q-50 -52 -114 -80t-135 -33q-35 -2 -62 1q-45 -144 -149 -239.5t-251 -102.5q-89 -4 -161.5 26.5t-116 86t-64 125t-10.5 149t50 152.5q15 24 42 26q16 0 28 -6l2 -2q41 -20 18 -64q-37 -76 -42.5 -156t18.5 -145.5t87.5 -105.5t155.5 -36q125 6 217.5 89t137.5 209
q-32 7 -37 9q-70 22 -121 66q-28 23 -48 49q-23 29 -38 57q-32 59 -45 128q-13 70 -4 135q5 37 13 66q7 25 24 63v1q-45 6 -91 5q-220 -9 -381 -182q-138 -149 -181 -360q-45 -218 35 -391q88 -192 302 -250q92 -25 203 -23q96 2 191.5 30t178.5 72.5t168.5 113.5t156.5 140
t148 164.5t136.5 175.5t129.5 184q6 9 106 157zM1038 516q20 68 23 137.5t-12 135t-47 119.5t-87 93t-127 54l-2 -4q-54 -121 -27 -254q14 -65 45 -120q17 -29 37 -52q14 -16 22 -23q3 -2 7.5 -6.5t8.5 -8t8 -6.5q48 -38 112 -57q13 -4 39 -8zM2089 282q29 108 67 285.5
t69 314.5t72.5 283.5t97 256.5t123.5 171q-46 -14 -92 -43.5t-95 -79t-91 -97.5t-97.5 -125.5t-94.5 -135t-101 -152.5q13 -22 28 -49q2 -5 7 -15.5t8 -15.5l3.5 -7t3.5 -8l7 -16q12 -29 25 -62q26 -70 40 -129q17 -73 22 -134q12 -137 -13 -268q-6 -35 -20 -84
q10 28 17.5 55.5t10.5 40.5z" />
    <glyph glyph-name="B" unicode="B" horiz-adv-x="2129" 
d="M1710 1508q84 -8 152.5 -31t111 -56t70 -74t30 -85t-9 -88t-47 -84t-84.5 -72t-120.5 -53.5t-155.5 -27.5q177 -62 263 -191t71 -282q-10 -106 -65.5 -195.5t-138.5 -148t-183.5 -92.5t-205.5 -39q-222 -11 -368 98q-171 -156 -389 -177q-85 -8 -146.5 -2.5t-96.5 16.5
l-35 10q-107 33 -185.5 102.5t-120 158t-53 193t8 207.5t71 200t128 172.5t187 124t239.5 55.5q23 1 45 0q12 18 19 26q3 3 8 8.5t7 8.5q1 1 6 7.5t8 9.5q15 16 31 31q22 21 68 55q65 47 148 86q62 29 158 60q61 18 80 23q21 5 82 19q100 20 165 27q70 9 147 7
q124 84 283 94q13 0 11 -12q-2 -9 -10 -9q-103 -10 -184 -80zM973 601q22 72 24 146t-16 141.5t-61 122t-107 83.5h-1l-2 1l-1 1h-1h-1q-21 9 -38 14q-5 2 -13 4l-1 -2l-1 -2q-2 -2 -10 -16q-1 -2 -2.5 -4t-2.5 -4l-5 -9q-1 -3 -4 -8.5t-5 -8.5t-4.5 -8.5t-3.5 -8.5l-4 -8
l-4 -9q-5 -12 -13 -36l-6 -18q-1 -3 -2.5 -9.5t-2.5 -9.5q-2 -6 -4 -18q0 -3 -1.5 -9.5t-2.5 -9.5q-8 -40 -8 -75q0 -40 7 -74q8 -40 25 -69q20 -34 48 -57q18 -14 32 -22q3 -1 8.5 -4t8.5 -5q1 0 5 -2t5 -2l9 -3q39 -13 77 -14q39 -1 78 11zM607 -59q227 11 365 205
q-40 52 -50 121q-6 37 -1 77q4 37 20 73q16 37 41 65q26 29 60 47q35 18 73 26q10 2 30 4q2 6 69 257q62 228 147.5 399.5t213.5 273.5v1q-49 1 -110 -2q-80 -4 -164 -23q-163 -38 -303 -125q-140 -86 -227 -206l15 -4q75 -24 129 -78.5t79.5 -124t32 -150.5t-13.5 -159
q49 27 87 74q51 63 74 143q6 19 9 39t3 40q2 44 -10 80q-13 40 -37 67t-60 43q-27 12 -69 16q-13 1 -35 -1q-3 -1 -8.5 -1t-8.5 -1q-2 0 -7.5 -1.5t-8.5 -1.5h-2q-19 0 -33 13.5t-14 32.5q0 36 34 45q8 2 25 2t25 -1q29 -4 48 -10q24 -6 45 -17q22 -11 40 -26q37 -28 61 -70
q23 -41 30 -84q7 -39 5 -85q-2 -30 -4 -43q-3 -21 -9 -42q-13 -45 -31 -79q-21 -41 -46 -71q-30 -37 -61 -61q-24 -18 -50 -31q-39 -140 -138.5 -234.5t-241.5 -101.5q-108 -6 -193 47v-1q-31 20 -47 36v1q-79 76 -92.5 193.5t47.5 231.5q13 22 39 24q18 0 27 -5l2 -2
q17 -8 22 -25t-5 -36q-34 -68 -40.5 -140t14.5 -132q10 -34 39 -69l-1 -1q17 -20 42 -37q1 0 2.5 -1t2.5 -2l1 -1h1q1 0 2.5 -1t2.5 -2v-1q59 -33 141 -29q116 6 202 81.5t129 190.5q-37 -10 -69 -10q-40 0 -86 13l-21 6q-7 2 -21 8q-22 8 -40 19q-38 22 -69 61
q-29 37 -44 80q-16 47 -19 90q-2 30 -1 46q0 15 4 45q1 4 2 11t2 11q2 16 4 22l6 21q1 4 3 11.5t3 10.5q10 28 16 42q8 19 20 41q3 5 8.5 13.5t7.5 12.5q-5 0 -15.5 -0.5t-16.5 -0.5q-101 -4 -191.5 -49.5t-156.5 -117.5t-113.5 -165.5t-69.5 -193t-16.5 -199.5t38 -185.5
t101.5 -152t167 -96.5q0 -1 1 -1t3.5 -1t3.5 -1l-1 1q8 -3 21.5 -7t54.5 -10t80 -6h-1h23q18 0 26 1zM983 163q87 130 157 378q-4 -1 -11 -2t-11 -1q-40 -7 -69 -22q-66 -34 -96 -104q-14 -31 -19 -70q-4 -35 2 -73t22 -68q10 -20 25 -38zM1803 455q10 67 7 130.5t-29.5 122
t-69 105.5t-111 81t-155.5 49q-7 -25 -21.5 -77t-21.5 -77q-39 -142 -88 -262q3 -2 7.5 -4.5t8.5 -5t8 -5.5q32 -24 54 -59q22 -36 28 -77q6 -42 -3 -83q-4 -18 -14 -40q-8 -16 -23 -37q-30 -38 -72 -54q-17 -7 -45 -11q-26 -4 -44 0q-15 3 -24 15t-6 27q2 14 13 23t24 8h1
q5 0 15 -1t15 -1q11 0 29 4q29 8 51 28q47 44 44 118q-2 22 -5 33q-5 18 -12 32q-15 29 -43 53q-10 8 -17 13q-107 -253 -256 -398q111 -81 261 -73q111 5 214 56t180.5 148t99.5 219zM1552 974q194 6 296 115q79 84 67 186q-11 103 -109 162q-52 32 -123 45
q-72 -77 -124 -200.5t-103 -303.5q38 -6 96 -4z" />
    <glyph glyph-name="C" unicode="C" horiz-adv-x="1169" 
d="M393 846q-55 3 -103 15q-52 -150 -62 -286.5t31.5 -249t136.5 -166.5q16 -9 36.5 -16.5t56 -16t84 -7.5t100.5 14q1 1 4 1t5 1q101 28 172 93q38 34 66 78q10 14 26 46q13 25 21 49q17 53 20 104q3 59 -11 107q-16 54 -54 89q-20 19 -44 29q-23 10 -49 13q-50 6 -100 -15
q-24 -10 -44 -26q-20 -15 -35 -35q-31 -40 -40 -91q-9 -50 5 -97q1 -3 9 -22q3 -7 11 -19q11 -17 30 -29q18 -11 36 -14q14 -2 20 -2h21l3 -1q16 -1 26.5 -13t9.5 -29q-1 -15 -11 -25.5t-24 -12.5q-17 -2 -32 1q-11 1 -31 7q-33 11 -58 33q-24 20 -41 52q-11 22 -13 29
q-5 18 -8 31q-11 58 7 121q18 61 57 102q21 23 44 37t51 22q27 7 54 9q31 2 54 -2q31 -5 52 -15q24 -11 46 -30q39 -36 59 -94q9 -25 13 -54q5 -32 5 -56q0 -29 -3 -57q-2 -19 -10 -55q-25 -111 -100 -204q-35 -43 -82 -80q-22 -18 -48 -33q-30 -18 -51 -27q-6 -3 -18.5 -8
t-18.5 -7h1h-1q-37 -14 -73 -21q-30 -6 -56 -9l-15 -2l-14 -1q-8 -1 -23 -1q-72 -2 -135 17t-101.5 47.5t-67 57t-39.5 48.5l-12 20q-78 142 -68 334t96 398q-100 75 -141 206.5t-18 273.5t100 253q12 16 31.5 22t38.5 -2q40 -19 15 -55q-72 -100 -101.5 -226t-6.5 -245.5
t98 -191.5q60 133 144 247t187.5 202.5t229.5 135.5t255 39q162 -9 196 -118q32 -100 -54 -238q-90 -145 -259 -249q-228 -140 -488 -130zM1001 1557q-108 3 -216.5 -52.5t-199 -150t-164.5 -215t-122 -252.5q38 -13 100 -16q281 -7 508 147q155 104 229 243q67 129 27 213
q-38 80 -162 83z" />
    <glyph glyph-name="D" unicode="D" horiz-adv-x="2148" 
d="M1695 1502q95 -30 168.5 -91t117.5 -141t66.5 -176.5t21 -200.5t-24.5 -211q-40 -190 -139.5 -343t-238 -243t-292.5 -99q-47 -3 -95 3q-1 0 -4 0.5t-5 0.5q-8 0 -11 1q-1 0 -2 0.5t-2 0.5q-67 11 -127 35q-48 20 -85 50q-4 3 -11 10l-2 -2q-171 -156 -389 -177
q-85 -8 -146.5 -2.5t-96.5 15.5l-35 10q-107 33 -185.5 102.5t-120 158t-53 193t8 207.5t71 200.5t128 173t187 124t239.5 55.5q22 1 43 0q74 111 191 200q118 88 246 136q44 16 67 22q46 12 69 16q74 13 141 14q68 1 142 -8q46 -6 69 -11l2 -1h3q124 84 282 94q3 0 5 -1h1
q7 -3 5 -12q-2 -6 -9 -8v-1q-55 -4 -103 -26q-46 -22 -82 -53zM669 850q0 -40 7 -74q8 -40 25 -69q20 -34 48 -57q18 -14 32 -22q3 -1 8.5 -4t8.5 -5q1 -1 5 -2t5 -2l9 -3q39 -13 77 -14q39 -1 78 11h1q22 72 24 146t-16 141.5t-61 122t-107 83.5l-1 1h-2l-1 1h-1v1l-18 6
q-11 4 -38 11q-19 -32 -33 -62.5t-19 -45.5l-4 -15l-6 -18q-1 -3 -2.5 -9.5t-2.5 -9.5q-2 -5 -4 -19q-1 -3 -2 -9t-2 -9q-8 -40 -8 -75zM972 155l7 10l-1 1q0 2 -1 2v1q-1 1 -2 3.5t-1 3.5q-21 42 -28 81q-8 42 -3 86q4 42 21 83q18 42 46 73q31 35 68 53q32 16 69 22
q13 47 35.5 132l31.5 119q132 485 356 669q-179 44 -349 -4h-1l-2 -1q-87 -21 -169 -73v1q-176 -103 -283 -272l50 -18q88 -38 142.5 -120.5t64.5 -179t-10 -200.5q49 27 87 74q51 63 74 142q6 19 9 40q3 19 3 40q2 43 -10 79q-13 41 -37 68q-22 25 -60 42q-30 14 -69 17
q-13 1 -35 -1q-5 0 -17 -2q-2 0 -7.5 -1.5t-8.5 -1.5h-2q-19 0 -33 13t-14 32q0 17 9.5 29.5t24.5 16.5q8 2 25 2q9 0 25 -2q34 -4 48 -9q19 -5 45 -18q25 -13 40 -25q37 -28 61 -70q23 -40 30 -84q7 -39 5 -86q-2 -28 -4 -42q-3 -21 -9 -42q-13 -45 -31 -79
q-23 -43 -46 -72q-28 -34 -61 -60q-24 -18 -50 -31q-39 -140 -138.5 -234.5t-241.5 -101.5q-108 -6 -193 47v-2q-29 19 -47 37v1q-79 76 -92.5 193t47.5 231q13 23 39 25q16 0 27 -6l2 -1q17 -8 22 -25t-5 -36q-34 -68 -40.5 -140t14.5 -132q10 -34 39 -69l-1 -1
q17 -20 42 -37q1 -1 2.5 -2t2.5 -2l1 -1h1q1 0 2.5 -1t2.5 -2v0q60 -34 141 -30q116 6 202 81.5t129 191.5q-37 -10 -69 -10q-44 0 -86 12q-4 1 -11 3.5t-10 3.5q-14 4 -21 7q-18 6 -40 20q-40 23 -69 60q-28 36 -44 81q-16 47 -19 90q-2 30 -1 46q0 15 4 45q1 3 2 11t2 11
q2 16 4 22l6 21q1 4 3 11.5t3 10.5q10 28 16 42t20 40q3 4 8 13t8 14q-21 0 -32 -1q-101 -4 -191.5 -49.5t-156.5 -117.5t-113.5 -165.5t-69.5 -193t-16.5 -199.5t38 -185.5t101.5 -152t167 -96.5v-1h1q1 -1 3.5 -1t3.5 -1h-1q8 -3 21.5 -6.5t54.5 -9.5t80 -6h22q18 0 26 1
q227 11 365 205zM1014 223q67 121 126 327l2 5q-35 -7 -56 -18q-20 -10 -35 -21q-17 -12 -30 -27q-55 -59 -63 -147q-8 -84 32 -156q16 24 24 37zM1882 686q33 126 39 246t-17 226.5t-84 188.5t-156 122q-74 -91 -135 -253q-42 -114 -125 -429q-31 -121 -77 -238q0 -1 2 -1
q1 0 2 -1q21 -11 37 -26q17 -16 31 -34q11 -15 22 -40q8 -18 13 -44q9 -46 0 -93q-9 -46 -39 -87q-30 -43 -79 -63q-22 -10 -50 -13q-32 -4 -51 1q-17 4 -26 18.5t-5 30.5q3 15 15 23.5t27 7.5h1q22 -2 33 -2q18 0 31 4q22 7 30 12q13 8 26 20q26 26 38 61t9 74
q-3 35 -24 71q-20 34 -53 55q-73 -175 -173 -299q-45 -60 -95 -109q97 -75 256 -74h8q130 8 244.5 96t195.5 228.5t129 320.5z" />
    <glyph glyph-name="E" unicode="E" horiz-adv-x="2283" 
d="M2050 1476q246 -2 331 86q-19 -95 -66.5 -149.5t-109.5 -59.5q-70 -5 -152 11t-213 55.5t-176 50.5q-28 -33 -49 -70v-1q-46 -77 -86 -183q-42 -114 -125 -429q0 -2 -1 -5t-1 -4l398 -3q11 0 11 -11q0 -10 -11 -10l-404 2q-28 -106 -69 -207l-10 -26q-73 -175 -173 -299
q-3 -4 -9.5 -12t-9.5 -12q39 -6 102.5 -15.5t109.5 -17t107.5 -16t111 -13t103 -8.5t102 -3t89.5 6q178 21 221 128q36 -92 16 -159.5t-79 -107t-139 -42.5q-94 -2 -223.5 33t-299 95t-251.5 83q-25 -28 -46 -48l-17 -17l-2 -2q-171 -156 -389 -177q-85 -8 -146.5 -2.5
t-96.5 15.5l-35 10q-107 33 -185.5 102.5t-120 158t-53 193t8 207.5t71 200.5t128 173t187 124t239.5 55.5q22 1 43 0q74 111 191 200q118 88 246 136q44 16 67 22q46 12 69 16q74 13 141 14q68 1 142 -8q46 -6 69 -11l2 -1h3q124 84 282 94q3 0 5 -1h1q7 -3 5 -12
q-2 -6 -9 -8v-1q-55 -4 -103 -26q-33 -15 -59 -35q-15 -10 -36 -30q229 -28 353 -29zM669 850q0 -40 7 -74q8 -40 25 -69q20 -34 48 -57q18 -14 32 -22q3 -1 8.5 -4t8.5 -5q1 -1 5 -2t5 -2l9 -3q39 -13 77 -14q39 -1 78 11h1q22 72 24 146t-16 141.5t-61 122t-107 83.5l-1 1
h-2l-1 1h-1v1l-18 6q-11 4 -38 11q-19 -32 -33 -62.5t-19 -45.5l-4 -15l-6 -18q-1 -3 -2.5 -9.5t-2.5 -9.5q-2 -5 -4 -19q-1 -3 -2 -9t-2 -9q-8 -40 -8 -75zM845 27q43 29 82 72t64 83.5t43.5 77t27.5 58.5l8 22q38 93 70 210l2 5l5 19q5 17 49 183h-34q-17 -32 -46 -70
q-28 -34 -61 -60q-24 -18 -50 -31q-39 -141 -138 -235t-242 -101q-108 -6 -193 47v-2q-29 19 -47 37v1q-79 76 -92.5 193t47.5 231q13 23 39 25q16 0 27 -6l2 -1q17 -8 22 -25t-5 -36q-34 -68 -40.5 -140t14.5 -132q10 -34 39 -69l-1 -1q17 -20 42 -37q1 -1 2.5 -2t2.5 -2
l1 -1h1q1 0 2.5 -1t2.5 -2v0q60 -34 141 -30q116 6 202 81.5t129 191.5q-37 -10 -69 -10q-44 0 -86 12q-4 1 -11 3.5t-10 3.5q-14 4 -21 7q-18 6 -40 20q-40 23 -69 60q-28 36 -44 81q-16 47 -19 90q-2 30 -1 46q0 15 4 45q1 3 2 11t2 11q2 16 4 22l6 21q1 4 3 11.5t3 10.5
q10 28 16 42t20 40q3 4 8 13t8 14q-21 0 -32 -1q-101 -4 -191.5 -49.5t-156.5 -117.5t-113.5 -165.5t-69.5 -193t-16.5 -199.5t38 -185.5t101.5 -152t167 -96.5v-1h1q1 -1 3.5 -1t3.5 -1h-1q8 -3 21.5 -6.5t54.5 -9.5t80 -6h-1h23q18 0 26 1q137 7 238 77zM1214 825
q61 222 143 390t203 271h-1h1l2 1q2 1 4.5 3.5l3.5 3.5q-179 44 -349 -4h-1l-2 -1q-87 -21 -169 -73v1q-176 -103 -283 -272l50 -18q88 -38 142.5 -120.5t64.5 -179t-10 -200.5q49 27 87 74q28 36 39 56l-68 1q-7 0 -9.5 6.5t1.5 11.5q3 3 8 3h79q15 32 24 64q6 19 9 40
q3 19 3 40q2 43 -10 79q-13 41 -37 68q-22 25 -60 42q-30 14 -69 17q-13 1 -35 -1q-7 0 -17 -2q-2 0 -7.5 -1.5t-8.5 -1.5h-2q-19 0 -33 13t-14 32q0 17 9.5 29.5t24.5 16.5q8 2 25 2q9 0 25 -2q34 -4 48 -9q19 -5 45 -18q25 -13 40 -25q37 -28 61 -70q22 -38 30 -84
q7 -39 5 -86q-2 -28 -4 -42q-3 -21 -9 -42q-12 -40 -21 -59h29q2 9 6.5 24.5t6.5 21.5z" />
    <glyph glyph-name="F" unicode="F" horiz-adv-x="1941" 
d="M2050 1476q246 -2 331 86q-19 -95 -66.5 -149.5t-109.5 -59.5q-70 -5 -152 11t-213 55.5t-176 50.5q-26 -31 -49 -71q-46 -77 -86 -183q-42 -114 -125 -429q0 -2 -1 -5t-1 -4l398 -3q11 0 11 -11q0 -10 -11 -10l-404 2q-28 -106 -69 -207l-10 -26q-19 -46 -50 -107
q-4 -8 -10.5 -22t-30.5 -56t-51.5 -81.5t-71.5 -90.5t-92 -92t-112.5 -77t-132.5 -54q-58 -18 -125 -24q-85 -8 -146.5 -2.5t-96.5 15.5l-35 10q-107 33 -185.5 102.5t-120 158t-53 193t8 207.5t71 200.5t128 173t187 124t239.5 55.5q22 1 43 0q74 111 191 200
q118 88 246 136q44 16 67 22q46 12 69 16q74 13 141 14q68 1 142 -8q46 -6 69 -11l2 -1h3q124 84 282 94q3 0 5 -1h1q7 -3 5 -12q-2 -6 -9 -8v-1q-55 -4 -103 -26q-33 -15 -59 -35q-15 -10 -36 -30q229 -28 353 -29zM669 850q0 -40 7 -74q8 -40 25 -69q20 -34 48 -57
q18 -14 32 -22q3 -1 8.5 -4t8.5 -5q1 -1 5 -2t5 -2l9 -3q39 -13 77 -14q39 -1 78 11h1q22 72 24 146t-16 141.5t-61 122t-107 83.5l-1 1h-2l-1 1h-1v1l-18 6q-11 4 -38 11q-19 -32 -33 -62.5t-19 -45.5l-4 -15l-6 -18q-1 -3 -2.5 -9.5t-2.5 -9.5q-2 -5 -4 -19q-1 -3 -2 -9
t-2 -9q-8 -40 -8 -75zM607 -50q137 7 238 77q43 29 82 72t64 83.5t43.5 77t27.5 58.5l8 22q38 93 70 210l2 5l5 19q5 17 49 183h-35q-19 -36 -45 -70q-28 -34 -61 -60q-24 -18 -50 -31q-39 -141 -138 -235t-242 -101q-108 -6 -193 47v-2q-29 19 -47 37v1q-79 76 -92.5 193
t47.5 231q13 23 39 25q16 0 27 -6l2 -1q17 -8 22 -25t-5 -36q-34 -68 -40.5 -140t14.5 -132q10 -34 39 -69l-1 -1q17 -20 42 -37q1 -1 2.5 -2t2.5 -2l1 -1h1q1 0 2.5 -1t2.5 -2v0q60 -34 141 -30q116 6 202 81.5t129 191.5q-37 -10 -69 -10q-44 0 -86 12q-4 1 -11 3.5
t-10 3.5q-14 4 -21 7q-18 6 -40 20q-40 23 -69 60q-28 36 -44 81q-16 47 -19 90q-2 30 -1 46q0 15 4 45q1 3 2 11t2 11q2 16 4 22l6 21q1 4 3 11.5t3 10.5q10 28 16 42t20 40q3 4 8 13t8 14q-21 0 -32 -1q-101 -4 -191.5 -49.5t-156.5 -117.5t-113.5 -165.5t-69.5 -193
t-16.5 -199.5t38 -185.5t101.5 -152t167 -96.5v-1h1q1 -1 3.5 -1t3.5 -1h-1q8 -3 21.5 -6.5t54.5 -9.5t80 -6h-1h23q18 0 26 1zM1561 1487q2 1 5 3.5t4 3.5q-179 44 -348 -4h-2l-2 -1q-87 -21 -169 -73v1q-176 -103 -283 -272l50 -18q88 -38 142.5 -120.5t64.5 -179
t-10 -200.5q49 27 87 74q28 36 39 56l-68 1q-7 0 -9.5 6.5t1.5 11.5q3 3 8 3h79q15 32 24 64q6 19 9 40q3 19 3 40q2 43 -10 79q-13 41 -37 68q-22 25 -60 42q-30 14 -69 17q-13 1 -35 -1q-5 0 -17 -2q-2 0 -7.5 -1.5t-8.5 -1.5h-2q-19 0 -33 13t-14 32q0 17 9.5 29.5
t24.5 16.5q8 2 25 2q9 0 25 -2q34 -4 48 -9q19 -5 45 -18q25 -13 40 -25q37 -28 61 -70q22 -38 30 -84q7 -39 5 -86q-2 -28 -4 -42q-3 -21 -9 -42q-12 -40 -21 -59h29q2 9 6.5 24.5t6.5 21.5q61 222 143 390t203 271h-1q1 0 1 0.5t1 0.5z" />
    <glyph glyph-name="G" unicode="G" horiz-adv-x="1792" 
d="M1550 659q26 44 71 70t97 26q-10 -20 -19.5 -43.5t-17 -43t-16 -50t-13.5 -48.5t-13 -54.5t-12 -51.5t-12 -57t-10.5 -54t-11 -59.5t-10.5 -56.5q-21 -106 -49 -196l-6 -20q-74 -227 -204 -361l-13 -13l-12 -13q-27 -24 -57 -45q-6 -5 -17.5 -13t-49.5 -28.5t-78.5 -35.5
t-100.5 -25.5t-120 -6.5h-3v0q-100 6 -180.5 55t-129 125.5t-73 169t-18 191.5t41.5 188q6 15 21 22t32 3q35 -8 22 -43q-28 -72 -39 -154t-5 -162.5t35 -152t76 -124t123 -78t171 -12.5q31 4 42 7q134 28 222 116q29 30 54 68q11 16 19.5 31.5t12.5 23.5l3 7v1
q45 95 79 257l3 17q8 39 21 113.5t17 97.5q15 79 31 145q-71 -128 -175 -207q-1 -1 -2.5 -2t-2.5 -2q-21 -15 -46 -31q-16 -10 -50 -26q-28 -12 -35 -14v-1q-37 -13 -71 -20q-27 -6 -54 -9l-14 -2l-14 -1q-8 -1 -23 -1q-69 -2 -130 16.5t-98.5 46t-64.5 55t-38 46.5l-12 20
q-59 100 -65.5 244.5t35.5 294.5q-2 0 -7 0.5t-7 0.5q-116 8 -211 39q-111 36 -191 99q-44 35 -78 76q-20 23 -33 43q-15 23 -27 48q-49 101 -38 214q11 116 75 207q35 49 78 82q19 15 47 31q23 13 50 24q52 21 108 30q60 10 112 7q117 -6 217 -60q48 -26 93 -65
q23 -20 41 -39q19 -20 37 -45q36 -49 65 -111q247 243 531 225q90 -5 140 -44t56 -97.5t-21.5 -129.5t-86.5 -142l-11 -11q-2 -2 -5.5 -6.5t-5.5 -6.5q-6 -7 -19 -20q-12 -13 -38 -37q-48 -45 -82 -69q-86 -65 -182 -113q-190 -96 -408 -122q-37 -4 -53 -5
q-28 -126 -29 -235.5t40.5 -199.5t122.5 -136q117 -63 268 -26q1 1 3.5 1t4.5 1q19 5 47 16q9 4 25.5 13t52.5 36t71.5 61t78 91.5t76.5 123.5q20 53 42 98q1 1 2.5 3.5t1.5 3.5zM892 1166v2q-71 -119 -112 -233l-9 -26q-14 -39 -28 -94q34 2 49 4q99 11 207 43
q96 28 196 79q94 48 179 113q45 35 80 69q19 18 37 37q3 3 5.5 6t6 7.5t5.5 6.5q1 2 5 5.5t5 5.5v1l1 1l13 16q1 2 3.5 5.5t4.5 4.5v1q67 87 85.5 169t-24 137t-142.5 57q-132 3 -260.5 -80.5t-235.5 -227.5q26 -95 33 -207q1 -20 -12.5 -35t-33.5 -17q-20 -1 -35.5 12.5
t-17.5 33.5v3q0 60 -5 101zM667 1002q79 174 195 310q-8 24 -18 48l-5 12q-1 2 -2.5 5.5t-2.5 5.5q-3 8 -11 22t-26 42q-57 85 -141 135q-87 52 -188 61q-48 4 -100 -2q-56 -7 -98 -23q-53 -20 -89 -46q-40 -28 -71 -70q-30 -41 -50 -88q-19 -45 -25 -98q-13 -108 29 -200
q10 -24 24 -45q17 -26 30 -43q35 -43 73 -74q44 -36 87 -58q42 -23 96 -41q50 -17 102 -27q44 -9 105 -14q3 0 8.5 -0.5t8.5 -0.5q20 76 53 155z" />
    <glyph glyph-name="H" unicode="H" horiz-adv-x="2064" 
d="M2360 1617q11 0 11 -11q0 -10 -9 -10q-64 -5 -115 -30.5t-90 -83t-64 -103t-50.5 -144.5t-36.5 -150.5t-34 -173.5q-7 -34 -10 -52l68 3q12 0 12 -11t-11 -11l-73 -3q-18 -88 -32 -151t-41.5 -155t-57 -157.5t-75.5 -138.5t-99.5 -119.5t-127.5 -79.5t-160 -38
q-12 0 -12 11t10 11q89 7 154.5 80t118.5 204q12 31 23.5 63.5t23.5 75.5t19 69t19.5 82t16.5 73.5t18.5 85t16.5 77.5l-361 -13q-2 -5 -4 -15t-4 -15q-31 -121 -77 -238l-10 -26q-73 -175 -173 -299q-45 -60 -95 -109l-17 -17l-2 -2q-171 -156 -389 -177
q-85 -8 -146.5 -2.5t-96.5 15.5l-35 10q-107 33 -185.5 102.5t-120 158t-53 193t8 207.5t71 200.5t128 173t187 124t239.5 55.5q22 1 43 0q67 102 175 188v0q3 2 8 6t8 6q98 74 211 122q104 46 224.5 77t219 43t182 17.5t129.5 4.5l47 -2l-2 -1q2 0 5.5 0.5t4.5 0.5
q3 0 5 -1h1q7 -3 5 -12q-2 -6 -9 -8v-1q-55 -4 -103 -26q-33 -15 -59 -35q-7 -5 -19.5 -14.5t-44 -44.5t-54.5 -76v-1q-46 -77 -86 -183q-41 -112 -111 -377l359 13q16 71 29.5 125t33 120.5t39.5 116.5t47.5 105t57.5 95t70 78.5t85 63.5t101 41.5t120 19.5zM985 1375
q-135 -96 -219 -230l50 -18q88 -38 142.5 -120.5t64.5 -179t-10 -200.5q49 27 87 74q39 48 62 106l-31 -1q-11 0 -11 11t11 11l39 1q0 3 2 7t2 7q6 19 9 40q3 19 3 40q2 43 -10 79q-13 41 -37 68q-22 25 -60 42q-30 14 -69 17q-13 1 -35 -1q-5 0 -17 -2q-2 0 -7.5 -1.5
t-8.5 -1.5h-2q-19 0 -33 13t-14 32q0 17 9.5 29.5t24.5 16.5q8 2 25 2q9 0 25 -2q34 -4 48 -9q19 -5 45 -18q25 -13 40 -25q37 -28 61 -70q23 -40 30 -84q7 -39 5 -86q-2 -28 -4 -42q-3 -21 -9 -42q-1 -2 -1 -4.5t-1 -3.5l8 1h16q132 481 355 663l41 30q79 52 164 75
q-132 -4 -257 -26t-208.5 -48.5t-160 -60.5t-108.5 -53t-56 -36zM669 850q0 -40 7 -74q8 -40 25 -69q20 -34 48 -57q18 -14 32 -22q3 -1 8.5 -4t8.5 -5q1 -1 5 -2t5 -2l9 -3q39 -13 77 -14q39 -1 78 11h1q22 72 24 146t-16 141.5t-61 122t-107 83.5l-1 1h-2l-1 1h-1v1l-18 6
q-11 4 -38 11q-19 -32 -33 -62.5t-19 -45.5l-4 -15l-6 -18q-1 -3 -2.5 -9.5t-2.5 -9.5q-2 -5 -4 -19q-1 -3 -2 -9t-2 -9q-8 -40 -8 -75zM1142 555l5 19q3 10 62 235l-14 -1h-11q-6 -17 -22 -49q-23 -43 -46 -72q-28 -34 -61 -60q-24 -18 -50 -31q-39 -141 -138 -235
t-242 -101q-108 -6 -193 47v-2q-29 19 -47 37v1q-79 76 -92.5 193t47.5 231q13 23 39 25q16 0 27 -6l2 -1q17 -8 22 -25t-5 -36q-34 -68 -40.5 -140t14.5 -132q10 -34 39 -69l-1 -1q17 -20 42 -37q1 -1 2.5 -2t2.5 -2l1 -1h1q1 0 2.5 -1t2.5 -2v0q60 -34 141 -30
q116 6 202 81.5t129 191.5q-37 -10 -69 -10q-44 0 -86 12q-4 1 -11 3.5t-10 3.5q-14 4 -21 7q-18 6 -40 20q-40 23 -69 60q-28 36 -44 81q-16 47 -19 90q-2 30 -1 46q0 15 4 45q1 3 2 11t2 11q2 16 4 22l6 21q1 4 3 11.5t3 10.5q10 28 16 42t20 40q3 4 8 13t8 14
q-21 0 -32 -1q-101 -4 -191.5 -49.5t-156.5 -117.5t-113.5 -165.5t-69.5 -193t-16.5 -199.5t38 -185.5t101.5 -152t167 -96.5v-1h1q1 -1 3.5 -1t3.5 -1h-1q8 -3 21.5 -6.5t54.5 -9.5t80 -6h22q18 0 26 1q137 7 238 77q43 29 82 72t64 83.5t43.5 77t27.5 58.5l8 22
q38 93 70 210z" />
    <glyph glyph-name="I" unicode="I" horiz-adv-x="1406" 
d="M1807 1617q7 -3 5 -11q-2 -6 -9 -8v-1q-53 -4 -97 -24q-26 -12 -57 -34q-7 -5 -19 -14t-41.5 -42.5t-51.5 -72.5q-44 -72 -82 -174q-40 -109 -119 -409q-32 -125 -73 -227l-10 -24q-70 -168 -165 -285q-40 -53 -90 -103l-16 -17l-2 -2q-161 -148 -370 -168
q-80 -7 -139 -2t-93 15l-33 9q-102 31 -177 97t-114.5 150.5t-50 184t8 197.5t67.5 190.5t121.5 164.5t178 118.5t228.5 52.5q21 2 41 0q64 97 167 179v0l15 12q91 69 200 115q99 43 214 73t208.5 41.5t173 16.5t124.5 4l44 -1l-2 -1q1 0 4 0.5t5 0.5q3 0 5 -1h1zM637 887
q0 -43 6 -71q8 -37 25 -65q22 -37 45 -55q11 -9 30 -20q5 -3 17 -9l9 -3q2 0 4.5 -1t3.5 -2q38 -13 74 -14q37 -1 74 11h1q21 68 23 138.5t-15.5 134.5t-58.5 116t-102 80l-1 1h-1q-1 0 -1 0.5t-1 0.5h-1q-2 1 -7.5 3.5t-8.5 3.5q-12 4 -36 10q-18 -30 -31.5 -59.5
t-18.5 -43.5l-4 -14q-1 -3 -2.5 -8.5t-2.5 -8.5q-4 -12 -5 -18q0 -3 -2 -9t-2 -9t-2 -9t-2 -9q-7 -42 -7 -71zM1533 1529q72 49 156 71q-125 -4 -244.5 -25t-198.5 -46t-152 -58t-103 -50.5t-54 -33.5q-127 -90 -208 -219l47 -17q125 -54 173 -189.5t15 -286.5q46 25 83 70
q50 63 71 136q6 24 8 37q3 20 3 39q1 36 -10 75q-11 37 -35 64t-57 41q-31 13 -66 15q-17 2 -33 0q-6 0 -16 -2q-2 0 -5 -1t-5.5 -1.5t-4.5 -0.5h-3q-18 0 -31 12.5t-13 30.5q0 34 33 43q8 2 23 2q16 0 24 -1q21 -3 45 -9q19 -5 43 -17q18 -9 38 -24q35 -26 58 -67
q21 -38 29 -79q7 -36 5 -82q-2 -26 -4 -40q-4 -28 -8 -40q-9 -35 -30 -76q-18 -36 -44 -68q-28 -35 -57 -57q-24 -18 -48 -29q-38 -134 -132 -224t-230 -96q-104 -6 -184 44v-1q-21 13 -45 35l1 1q-75 72 -88 183.5t45 220.5q12 21 37 23q14 0 25 -6l2 -1q36 -18 16 -58
q-32 -65 -38 -133t14 -126q9 -33 36 -66q17 -21 39 -35h1q1 -1 2.5 -2t2.5 -2q1 0 1 -1q1 0 2.5 -1t2.5 -2h1q56 -32 133 -28q110 5 192 77t123 182q-31 -9 -65 -9q-45 0 -82 11q-3 1 -9.5 3.5t-10.5 3.5q-11 3 -20 7q-16 6 -38 19q-38 23 -65 57q-29 36 -43 77
q-15 42 -18 85q-2 29 -1 44q0 15 4 43l3 21q1 5 5 20q1 3 2.5 10.5t2.5 10.5q1 4 3 10.5t3 9.5q10 28 16 41q9 19 19 38q13 23 14 25h-29q-96 -4 -182 -47.5t-149 -112t-108.5 -157.5t-66.5 -183.5t-15.5 -190t36.5 -177t96.5 -144.5t158.5 -92h1q1 -1 3 -1t3 -1
q7 -3 20 -6.5t52 -9.5t76 -6h21q17 0 25 1q128 6 227 74q64 44 117.5 118.5t74.5 127.5l21 52q35 86 67 199l2 5l5 19q10 37 31 117.5t32 120.5q127 465 339 637z" />
    <glyph glyph-name="J" unicode="J" horiz-adv-x="1730" 
d="M2136 1616q7 -4 6 -11t-10 -9v-1q-55 -4 -107 -27q-26 -12 -62 -37q-8 -5 -21 -15t-46 -47t-57 -80v-1q-46 -77 -90 -191q-43 -116 -132 -451q-36 -138 -80 -250l-11 -27q-56 -134 -129 -242q-7 -12 -20 -31.5t-56.5 -74.5t-91 -102t-122 -98.5t-151.5 -80.5
q-4 -2 -19 -7q-4 -1 -13 -4.5t-14 -5.5q-60 -19 -112 -29q-8 -2 -17.5 -3.5t-21.5 -3t-18 -2.5q-5 -1 -14.5 -2t-14.5 -1t-14.5 -1t-14.5 -2q-54 -4 -115 -1q-70 6 -113 16q-114 26 -211 91q-44 29 -88 73q-41 41 -73 90q-31 47 -51 103q-21 58 -28 112q-7 55 -1 116
q3 31 9 58q5 22 16 56q20 57 52 105q34 50 79 87t103 60q55 22 116 27t120 -9q57 -13 112 -46q49 -29 93 -80q41 -49 64 -105q25 -60 26 -122q2 -67 -19 -126q-43 -126 -158 -197q-57 -34 -125 -45q-63 -10 -135 8q-23 6 -35.5 26.5t-6.5 43.5t26.5 35t43.5 6q2 0 6 -2
q45 -17 90 -14q21 1 46 8q21 6 44 17q41 20 77 59q17 18 30 39q14 22 23 44q19 46 21 98q1 51 -15 99q-16 47 -49 91q-31 42 -75 72q-42 29 -96 45q-49 15 -105 13q-110 -3 -201 -72q-86 -65 -127 -174q-40 -106 -28 -218q6 -53 25 -109q18 -51 48 -100q60 -98 154 -161
q91 -62 206 -87q104 -23 223 -10q3 1 10 2t10 1q47 8 87 19h3q31 10 40 13l1 1l9 3q66 25 126 64t103.5 83t77 84.5t57.5 82t34.5 62t17.5 37.5q0 1 0.5 2.5t1.5 2.5l8 21q38 92 74 220l1 5l6 21q14 49 37 138.5t33 124.5q65 237 153.5 415.5t219.5 286.5l43 32
q78 53 172 78q-138 -4 -269.5 -27t-219.5 -51t-167 -63.5t-113.5 -56t-58.5 -37.5q-139 -98 -230 -242l-15 -23q-20 -33 -34.5 -65.5t-18.5 -48.5l-5 -16q-4 -12 -6 -19q-4 -12 -6 -19q-2 -8 -4 -20q-1 -4 -2 -9.5t-2 -9.5q-8 -42 -8 -79q0 -48 6 -78q7 -38 27 -72
q20 -36 50 -60q10 -9 34 -23l18 -9q2 -1 5.5 -2.5t4.5 -1.5q2 0 5 -2t4 -2q39 -14 81 -15q24 -1 58 6h1l21 6q30 9 65 31l1 1q0 1 1 1t2 1t3.5 2.5t3.5 2.5q33 24 60 57q56 68 78 150q6 22 9 41q4 28 4 43q1 41 -11 83q-12 41 -39 71q-25 28 -62 44q-31 14 -73 17
q-19 2 -37 0q-3 0 -8.5 -1t-8.5 -1q-1 0 -7 -1.5t-10 -1.5h-3q-20 0 -34.5 13.5t-14.5 33.5q0 17 10 30.5t26 17.5q9 2 26 2q8 0 26 -2q36 -4 51 -9q16 -5 46 -19q26 -14 43 -27q38 -29 63 -73q22 -39 32 -88q8 -39 6 -90q-2 -28 -4 -44q-2 -17 -10 -44q-11 -39 -32 -83
q-21 -43 -48 -76q-33 -39 -64 -63q-25 -19 -53 -32q-1 -1 -5 -3q-9 -5 -11 -5q-19 -8 -42 -13q-33 -7 -59 -7q-43 0 -90 13l-10.5 3.5t-11.5 3.5q-10 3 -22 8q-21 9 -42 21q-41 24 -72 63q-30 38 -47 85q-17 48 -20 94q-2 32 -1 48q0 7 5 47q1 4 2 11.5t1 11.5q1 6 5 23
q4 16 6 23q1 2 3.5 10t3.5 13q4 11 12 31q32 92 112 182q60 69 126 121l1 1q10 8 16 12q107 81 221 128q109 48 236 80.5t230 45t190.5 18.5t136.5 5l49 -2l-3 -1q1 0 5 0.5t6 0.5q4 0 6 -1v-1z" />
    <glyph glyph-name="K" unicode="K" horiz-adv-x="2025" 
d="M2223 1556q8 0 8 -8t-8 -8q-45 0 -85 -30t-73.5 -77.5t-68 -105.5t-78 -117.5t-95.5 -110t-128 -86t-167 -42.5q75 -38 121.5 -107.5t64 -150t23.5 -169t7 -170t7.5 -147.5t31.5 -106t73 -41q23 -1 54 16q6 3 11 -2q6 -6 0 -12q-42 -42 -96 -64t-99 -20
q-73 2 -109.5 56.5t-40 137.5t2 188.5t15 204t0.5 191t-42 142.5q-13 19 -34 36q-1 1 -4 2.5t-4 2.5q-24 15 -54 19q-10 -35 -27.5 -101.5t-24.5 -93.5q-31 -121 -77 -238l-10 -26q-73 -175 -173 -299q-45 -60 -95 -109l-17 -17l-2 -2q-171 -156 -389 -177
q-85 -8 -146.5 -2.5t-96.5 15.5l-35 11q-107 33 -185.5 102.5t-120 158t-53 193t8 207.5t71 200t128 172.5t187 124t239.5 55.5q22 1 43 0q67 102 175 188v0q3 2 8.5 6.5t7.5 6.5q95 71 211 121q104 46 224.5 77t219 43t182 17.5t129.5 4.5l47 -2h-2h10q3 0 5 -1h1
q7 -3 5 -11q-2 -6 -9 -8v-2q-58 -5 -103 -25q-29 -14 -59 -36q-7 -5 -19.5 -14.5t-44 -44.5t-54.5 -76q-46 -77 -86 -183q-29 -79 -70 -225q16 -2 31 0h-1q27 2 47 7v0q47 13 90 45l1 1q42 32 88 87t82 110t83 114t93.5 103.5t111.5 73t138 27.5zM669 846q0 -40 7 -74
q8 -40 25 -69q20 -34 48 -57q18 -14 32 -22q3 -2 8.5 -5t8.5 -4q2 -1 5 -2t5 -1t5 -2t4 -2q39 -13 77 -14q39 -1 78 11l1 1q22 72 24 146t-16 141.5t-61 122t-107 83.5h-1l-2 1h-1l-1 1h-1q-3 1 -8.5 3.5t-8.5 3.5q-11 4 -38 11q-19 -32 -33 -63t-19 -46l-4 -15l-6 -18
q-1 -3 -2.5 -9t-2.5 -9q-2 -5 -4 -19q0 -3 -1.5 -9.5t-2.5 -9.5q-8 -40 -8 -75zM1214 821q132 485 356 669l41 31q77 51 164 74q-132 -4 -257.5 -26t-208.5 -48.5t-159.5 -60.5t-108.5 -53t-56 -36q-135 -96 -219 -230l50 -17q131 -57 182 -200t15 -301q49 27 87 74
q51 63 74 143q6 20 9 39q3 20 3 40q2 44 -10 80q-13 40 -37 67t-60 43q-27 12 -69 16q-13 1 -35 -1q-3 0 -8.5 -1t-8.5 -1q-12 -2 -16 -2h-2q-19 0 -33 13t-14 32q0 16 9.5 28.5t24.5 16.5q8 2 25 2t25 -1q29 -4 48 -10q21 -6 44 -17q24 -12 41 -26q38 -29 61 -70
q22 -39 30 -83q7 -39 5 -86q-2 -30 -4 -43q-3 -21 -9 -42q-13 -45 -31 -79q-21 -41 -46 -71q-30 -37 -61 -61q-20 -15 -50 -30q-39 -141 -138 -235.5t-242 -101.5q-108 -6 -193 47v-1q-31 20 -47 36v1q-79 76 -92.5 193.5t47.5 231.5q13 22 39 24q18 0 27 -5l2 -2
q17 -8 22 -24.5t-5 -35.5q-34 -68 -40.5 -140.5t14.5 -132.5q10 -34 39 -69l-1 -1q17 -20 42 -37q1 -1 2.5 -2t2.5 -1h1l1 -1q1 -1 2.5 -2t2.5 -1v-1q59 -33 141 -29q116 6 202 81.5t129 190.5q-37 -10 -69 -10q-40 0 -86 13l-21 6q-7 2 -21 8q-18 6 -40 20q-40 23 -69 60
q-28 36 -44 81q-16 47 -19 89q-2 30 -1 46q0 15 4 45q1 3 2 10.5t2 11.5q2 16 4 22q1 3 3 11t3 11l6 21q10 28 16 42q8 19 20 41q3 4 8.5 12.5t7.5 13.5q-5 0 -15.5 -0.5t-16.5 -0.5q-101 -4 -191.5 -49.5t-156.5 -117.5t-113.5 -165.5t-69.5 -193t-16.5 -199.5t38 -185.5
t101.5 -152t167 -96.5q0 -1 1 -1q1 -1 3.5 -1h3.5h-1q8 -3 21.5 -7t54.5 -10t80 -6h-1h23q18 0 26 1q137 7 238 77q43 29 82 72t64 83.5t43.5 77t27.5 58.5l8 22q38 93 70 210l2 5l5 20q13 47 35.5 132t31.5 118zM1458 986h1l-1 1v-1z" />
    <glyph glyph-name="L" unicode="L" horiz-adv-x="1617" 
d="M1489 1605q90 -5 140 -44t56 -97.5t-21.5 -129.5t-86.5 -142l-10 -11q-2 -2 -6 -6.5t-6 -6.5q-12 -14 -18 -20q-12 -13 -38 -37q-45 -41 -83 -69q-88 -67 -181 -113q-190 -96 -408 -122q-6 -1 -17.5 -2t-17.5 -2q-6 -21 -22.5 -74.5t-23.5 -76.5t-22 -70t-23 -71
t-21.5 -62.5t-23.5 -62.5t-22.5 -53t-24 -51t-23.5 -40q-1 -1 -7 -11q114 -45 193 -72t195.5 -48.5t220.5 -16.5q43 2 75 6.5t71 15t68 33.5t45 56q40 -121 -23.5 -193t-181.5 -78q-51 -2 -110.5 9.5t-109 28t-119 49t-113 55.5t-120.5 64.5t-113 60.5q-132 -174 -335 -184
q-135 -7 -193 75t-12 168.5t164 89.5q97 2 286 -74q2 3 4.5 10t3.5 10q20 51 43 126t54 185t52 178q0 3 2 7.5t2 6.5q-2 0 -7 0.5t-8 0.5q-114 8 -210 39q-111 36 -191 99q-44 35 -78 76q-19 23 -33 43q-18 28 -28 48q-49 101 -38 214q11 115 76 207q36 50 77 82
q19 15 47 31q20 11 51 24q57 23 108 31q56 9 111 6q117 -6 217 -60q51 -28 94 -65q23 -20 41 -39q14 -15 36 -45q36 -49 65 -111q247 243 531 225zM221 37q76 4 132 59t102 157q-167 78 -275 77q-96 -1 -140 -71q-37 -61 -10 -126q31 -74 124 -92q31 -6 67 -4zM631 813l3 9
q3 8 7 19.5t11 30t15 38.5t18.5 45t21.5 50t25 53t28 54.5t30.5 54.5t33.5 53q33 48 71 92q-10 32 -17 48l-5 12q-1 2 -3 5.5t-3 5.5q-3 8 -11 22q-16 28 -25 42q-57 85 -141 135q-87 52 -188 61q-48 4 -101 -2q-55 -7 -97 -23q-53 -20 -89 -46q-40 -28 -71 -70
q-30 -41 -50 -88q-20 -48 -26 -98q-13 -108 29 -200q8 -19 25 -45t30 -43q35 -43 73 -74q44 -36 87 -58q42 -23 96 -41q47 -16 102 -27q44 -9 104 -14q3 0 8.5 -0.5t8.5 -0.5zM1573 1220q67 87 85.5 169t-23.5 137t-142 57q-45 1 -96 -10q-99 -27 -189 -91
q-111 -81 -207 -223q23 -89 29 -191q1 -20 -12.5 -35t-33.5 -17q-20 -1 -35.5 12.5t-17.5 33.5v3q0 37 -3 73q-83 -154 -131 -315h1q0 -1 -1 -3.5t-1 -3.5q5 0 14.5 1t14.5 2q101 12 208 43q101 30 196 78q87 44 178 114q45 35 80 69q19 18 37 37q6 6 18 20q2 2 5 5.5t4 5.5
l1 1l1 1l12 16q2 2 4.5 5.5t3.5 4.5v1z" />
    <glyph glyph-name="M" unicode="M" horiz-adv-x="2629" 
d="M2855 1618q12 0 10 -12q-2 -8 -9 -8q-52 -4 -93.5 -30t-70 -64.5t-51.5 -98t-37 -119.5t-27.5 -142t-22.5 -152t-22 -162t-26 -161q-17 -91 -39.5 -172.5t-63.5 -173.5t-92.5 -158.5t-130 -114t-171.5 -53.5q-12 0 -12 12q0 8 10 10q232 22 342 652q8 43 23 137t24 144.5
t25.5 131.5t33.5 133t40.5 112.5t54 106.5t67.5 81q-93 -49 -180.5 -146.5t-156.5 -216.5t-133.5 -253t-122 -264.5t-110.5 -242t-109.5 -194t-110.5 -111.5q26 93 26 243.5t-15 289t-28 311t-9 285.5q6 97 28 169l12 33q26 67 55 103q-10 -6 -30 -20q-7 -5 -19.5 -15
t-44 -45t-54.5 -76q-46 -77 -86 -183q-41 -112 -125 -430q-31 -121 -77 -238l-10 -26q-73 -175 -173 -299q-45 -60 -95 -109l-17 -17l-2 -2q-171 -156 -389 -177q-85 -8 -146.5 -2.5t-96.5 16.5l-35 10q-107 33 -185.5 102.5t-120 158t-53 193t8 207.5t71 200t128 172.5
t187 124t239.5 55.5q29 2 43 1q66 100 175 187v1q3 2 8 6t8 6q95 71 211 121q104 46 224.5 77t219 43t182 17.5t129.5 3.5l47 -1h-2q2 0 5.5 0.5t4.5 0.5q3 0 5 -1h1v-1q7 -3 5 -11q-2 -6 -9 -8v-2q-28 -2 -48 -7q-38 -17 -49 -87.5t-0.5 -168.5t25.5 -229t29 -259
t10.5 -269.5t-29.5 -249.5q52 95 171 358.5t190 398.5q58 108 112.5 189.5t123.5 159t149.5 128t170.5 70.5q46 18 105 21zM669 817q0 -40 7 -74q8 -40 25 -69q20 -34 48 -57q18 -14 32 -22q3 -1 8.5 -4t8.5 -5q2 0 5 -1t5 -2t5 -2t4 -2q39 -13 77 -14q39 -1 78 11l1 1
q22 72 24 146t-16 141.5t-61 122t-107 83.5h-1l-2 1l-1 1h-1q-3 1 -8.5 3.5t-8.5 3.5q-9 4 -39 11q-19 -32 -33 -63t-19 -46l-4 -15l-6 -18q-1 -3 -2.5 -9t-2.5 -9q-2 -5 -4 -19q0 -3 -1.5 -9.5t-2.5 -9.5q-8 -40 -8 -75zM1611 1492q77 51 164 74q-132 -4 -257.5 -26
t-209 -48t-159.5 -60.5t-108 -53t-56 -35.5q-134 -96 -219 -231l50 -17q88 -38 142.5 -120.5t64.5 -179t-10 -200.5q51 28 87 73q51 63 74 143q6 19 9 39q3 19 3 41q2 43 -10 79q-13 40 -37 67t-60 43q-27 12 -69 16q-18 2 -35 0q-3 0 -8.5 -1t-8.5 -2q-12 -2 -16 -2h-2
q-19 0 -33 13t-14 32q0 36 34 45q8 2 25 2t25 -1q29 -4 48 -10q24 -6 45 -17q22 -11 40 -26q37 -28 61 -70q23 -41 30 -83q7 -39 5 -86q-2 -30 -4 -43q-3 -19 -9 -41q-14 -47 -31 -80q-21 -41 -46 -71q-30 -36 -60 -60q-22 -17 -51 -31q-39 -141 -138.5 -235.5
t-241.5 -101.5q-108 -6 -193 47v-1q-31 20 -47 36v1q-79 76 -92.5 193.5t47.5 231.5q13 22 39 24q18 0 27 -5l2 -2q17 -8 22 -24.5t-5 -35.5q-34 -68 -40.5 -140.5t14.5 -132.5q10 -34 39 -69h-1q17 -20 42 -37v-1q1 0 2.5 -1t2.5 -2l1 -1h1q1 0 2.5 -1t2.5 -2v0
q60 -34 141 -30q116 6 202 81.5t129 190.5q-33 -9 -69 -9q-44 0 -86 12l-21 6q-7 2 -21 8q-18 6 -40 20q-40 23 -69 60q-28 36 -44 81q-16 42 -19 90q-2 30 -1 45q0 15 4 45q1 4 2 11t2 11q2 16 4 22q1 3 3 10.5t3 11.5l6 21q10 28 16 42q8 19 20 41q3 4 8.5 12.5t7.5 13.5
h-32q-101 -4 -191.5 -49.5t-156.5 -118t-113.5 -166t-69.5 -192.5t-16.5 -199.5t38 -186t101.5 -152t167 -96.5h1q1 -1 3.5 -1t3.5 -1h-1q8 -3 21.5 -7t54.5 -10t80 -6h22q18 0 26 1q137 7 238 77q43 29 82 72t64 83.5t43.5 77t27.5 58.5l8 22q38 93 70 210l2 5l5 20
q13 47 35.5 132l31.5 119q132 485 356 669z" />
    <glyph glyph-name="N" unicode="N" horiz-adv-x="2373" 
d="M2795 1616q23 2 34 -19t3 -44.5t-32 -25.5q-91 -10 -168 -49t-132 -88.5t-103 -132.5t-77.5 -151t-60.5 -177t-46 -177t-39 -183q-23 -113 -35.5 -168.5t-37.5 -141t-48 -128.5t-58 -81.5t-78 -49.5q-8 0 -14 6t-6 14h1q5 1 10.5 2.5t17 9.5t20 20.5t14 38t4.5 58.5
q-4 92 -47 230.5t-93.5 260.5t-100.5 265t-64 237q-15 121 19 189q1 2 4 7.5t5 8.5q-40 -40 -72 -96q-46 -77 -86 -183q-42 -114 -125 -429q-31 -121 -77 -238l-10 -26q-73 -175 -173 -299q-45 -60 -95 -109l-17 -17l-2 -2q-171 -156 -389 -177q-85 -8 -146.5 -2.5
t-96.5 15.5l-35 10q-107 33 -185.5 102.5t-120 158t-53 193t8 207.5t71 200.5t128 173t187 124t239.5 55.5q22 1 43 0q67 102 175 188v0q3 2 8 6t8 6q98 74 211 122q104 46 224.5 77t219 43t182 17.5t129.5 4.5l47 -2l-2 -1q2 0 5.5 0.5t4.5 0.5q3 0 5 -1h1q7 -3 5 -12
q-2 -6 -9 -8v-1q-55 -4 -103 -26l-2 -1l-2 -1h2q-28 -16 -42 -44q-4 -7 -6 -19l-1 -2q-8 -46 27.5 -145t90.5 -221t108 -254t82.5 -275t12.5 -253q24 68 49 174.5t44 209.5t48 223.5t60 226.5t81 208.5t110 177.5t147.5 126.5t193.5 62.5zM669 702q0 -40 7 -74q8 -40 25 -69
q21 -36 48 -58q14 -11 32 -21q3 -2 8.5 -5t8.5 -4q1 -1 5 -2.5t5 -1.5l9 -3q39 -13 77 -14q39 -1 78 11h1q22 72 24 146t-16 141.5t-61 122t-107 83.5l-1 1h-2l-1 1h-1v1l-18 6q-11 4 -38 11q-19 -32 -33 -63t-19 -45l-4 -15l-6 -18q-1 -3 -2.5 -9.5t-2.5 -9.5q-2 -5 -4 -19
q-1 -3 -2 -9t-2 -9q-8 -40 -8 -75zM1611 1376q79 52 164 75q-132 -4 -257.5 -26t-208.5 -48.5t-159.5 -60.5t-108.5 -53t-56 -36q-135 -96 -219 -230l50 -18q88 -38 142.5 -120.5t64.5 -179t-10 -200.5q49 27 87 74q51 63 74 142q6 18 9 40q3 20 3 40q2 43 -10 79
q-13 41 -37 68q-22 25 -60 42q-30 14 -69 17q-13 1 -35 -1q-5 0 -17 -2q-2 0 -7.5 -1.5t-8.5 -1.5h-2q-19 0 -33 13t-14 32q0 17 9.5 29.5t24.5 16.5q8 2 25 2q9 0 25 -2q34 -4 48 -9q19 -5 45 -18q25 -13 40 -25q37 -28 61 -70q23 -40 30 -84q7 -39 5 -86q-2 -28 -4 -42
q-3 -21 -9 -42q-13 -45 -31 -79q-23 -43 -46 -72q-28 -34 -61 -60q-24 -18 -50 -31q-39 -140 -138.5 -234.5t-241.5 -101.5q-108 -6 -193 47v-2q-29 19 -47 37v1q-79 76 -92.5 193t47.5 231q13 23 39 25q16 0 27 -6l2 -1q17 -8 22 -25t-5 -36q-34 -68 -40.5 -140t14.5 -132
q10 -34 39 -69l-1 -1q17 -20 42 -37q1 -1 2.5 -2t2.5 -2l1 -1h1q1 0 2.5 -1t2.5 -2v0q60 -34 141 -30q116 6 202 81.5t129 191.5q-37 -10 -69 -10q-44 0 -86 12q-4 1 -11 3.5t-10 3.5q-14 4 -21 7q-18 6 -40 20q-40 23 -69 60q-28 36 -44 81q-16 42 -19 90q-2 30 -1 46
q0 15 4 45q1 4 2 11t2 11q2 16 4 22l6 21q1 3 3 10.5t3 11.5q10 28 16 42t20 40q3 5 8 14t8 13q-21 0 -32 -1q-101 -4 -191.5 -49.5t-156.5 -118t-113.5 -166t-69.5 -192.5t-16.5 -199.5t38 -186t101.5 -152t167 -96.5h1q1 -1 3.5 -1t3.5 -1h-1q8 -3 21.5 -7t54.5 -10t80 -6
q4 0 11 0.5t11 0.5q18 0 26 1q137 7 238 77q43 29 82 72t64 83.5t43.5 77t27.5 58.5l8 22q38 93 70 210l2 4l5 20q13 47 35.5 132l31.5 119q132 485 356 669z" />
    <glyph glyph-name="O" unicode="O" horiz-adv-x="1794" 
d="M1657 1369q114 -127 93 -382q-13 -154 -57 -293.5t-109 -246.5t-147 -193.5t-172 -141.5t-183 -84t-181 -28q-119 2 -210 49.5t-144 129.5t-77 186t-18 225q3 46 3 47t0.5 1t0.5 1q1 7 2.5 21t2.5 21q0 2 0.5 4t0.5 3q-44 8 -93 24q-109 35 -191 100q-46 36 -78 75
q-16 19 -33 44t-27 47q-49 101 -38 215q11 116 75 207q33 46 78 81q19 15 47 31q29 16 50 25q52 21 108 30t112 6q119 -6 217 -59q48 -26 93 -65q19 -16 41 -40q1 -1 19 -22q122 111 262 169.5t287 49.5q114 -7 183 -71t83 -166zM1629 1297l2 40q-29 40 -70 65
q-59 35 -133 35q-129 0 -249 -97t-203 -247q15 -69 20 -151q1 -20 -12.5 -35.5t-33.5 -17.5q-20 -1 -35.5 13t-17.5 34v3q0 31 -1 47v7q0 3 -0.5 9t-0.5 9h-1q-4 50 -12 93.5t-14 62.5l-6 19q-4 13 -14 39q-153 -229 -200 -491l-5 -37q-1 -2 -1 -6t-1 -6q106 -2 195 14
q84 12 163 36q96 28 196 79q94 48 179 113q45 35 80 69q13 12 37 38q3 3 5.5 6t6 7.5t5.5 6.5q1 2 5 5.5t5 5.5v1l1 1l13 16q1 2 3.5 5.5t4.5 4.5v0q83 107 89 204zM1395 1580q-136 3 -262 -72.5t-231 -208.5q16 -30 23 -46q24 -50 43 -120l-1 -1q0 -1 1 -2.5t1 -2.5
q89 150 207.5 245.5t236.5 95.5q126 0 208 -64q-21 78 -79.5 125.5t-146.5 50.5zM374 728q46 -15 91 -24q12 73 31 137t32 91l13 27q92 215 247 376q-53 74 -132 121q-85 51 -188 60q-52 5 -100 -1q-52 -6 -98 -24q-53 -20 -89 -46q-42 -29 -71 -69q-30 -41 -50 -88
q-19 -45 -25 -98q-13 -109 29 -201q10 -24 24 -45q10 -16 30 -42q35 -43 73 -74q44 -36 87 -58q46 -26 96 -42zM1699 978q15 191 -40 309q-2 5 -6 13q-6 -109 -109 -234l-11 -12q-2 -2 -5.5 -6.5t-5.5 -6.5l-19 -19q-18 -20 -38 -38q-43 -40 -82 -68q-86 -65 -182 -113
q-190 -96 -408 -122q-6 -1 -17.5 -2t-17.5 -2v-1q-50 -5 -119 -5q-7 -54 -7 -92q-2 -96 18 -176t63 -143t115.5 -100.5t169.5 -41.5q84 -4 176 32.5t179.5 112t160 178t122.5 243t63 294.5z" />
    <glyph glyph-name="P" unicode="P" horiz-adv-x="2078" 
d="M2120 1286q44 -95 35 -219q-18 -199 -181 -328q-47 -32 -97 -52q-51 -19 -87 -27q-53 -12 -113 -14q-158 -5 -294 62q-24 -82 -56 -163l-10 -26q-73 -175 -173 -299q-45 -60 -95 -109l-17 -17l-2 -2q-171 -156 -389 -177q-85 -8 -146.5 -2.5t-96.5 15.5l-35 11
q-107 33 -185.5 102.5t-120 158t-53 193t8 207.5t71 200t128 172.5t187 124t239.5 55.5q22 1 43 0q19 27 41 56h-1q4 6 11.5 16t35 40t61 58t90 63t119.5 62q108 46 257.5 67t318.5 9q123 81 279 91q3 0 5 -1h1q7 -3 5 -11q-2 -6 -9 -8v-2q-58 -5 -103 -25q-29 -14 -59 -36
v1q-8 -6 -21 -17q61 -5 128 -19q47 -12 91.5 -31.5t100 -67t88.5 -111.5zM669 846q0 -40 7 -74q8 -40 25 -69q20 -34 48 -57q18 -14 32 -22q3 -2 8.5 -5t8.5 -4q2 -1 5 -2t5 -1t5 -2t4 -2q39 -13 77 -14q39 -1 78 11l1 1q22 72 24 146t-16 141.5t-61 122t-107 83.5h-1l-2 1
h-1l-1 1q-3 1 -8.5 3.5t-8.5 3.5q-9 4 -39 11q-19 -32 -33 -63t-19 -46l-4 -15l-6 -18q-1 -3 -2.5 -9t-2.5 -9q-2 -5 -4 -19q0 -3 -1.5 -9.5t-2.5 -9.5q-8 -40 -8 -75zM1214 821q132 485 356 669l18 14q-137 9 -288 -23q-148 -31 -274 -99.5t-230 -196.5q-14 -19 -30 -44
l50 -17q131 -57 182 -200t15 -301q49 27 87 74q51 63 74 143q6 20 9 39q3 20 3 40q2 44 -10 80q-13 40 -37 67t-60 43q-27 12 -69 16q-13 1 -35 -1q-3 0 -8.5 -0.5t-8.5 -1.5q-12 -2 -16 -2h-2q-19 0 -33 13t-14 32q0 16 9.5 28.5t24.5 16.5q8 2 25 2t25 -1q29 -4 48 -10
q24 -6 45 -17q22 -11 40 -26q38 -29 61 -70q22 -39 30 -83q7 -39 5 -86q-2 -30 -4 -43q-3 -21 -9 -42q-13 -45 -31 -79q-21 -41 -46 -71q-32 -39 -60 -61q-18 -13 -51 -30q-39 -141 -138 -235.5t-242 -101.5q-108 -6 -193 47v-1q-31 20 -47 36v1q-79 76 -92.5 193.5
t47.5 231.5q13 22 39 24q18 0 27 -5l2 -2q17 -8 22 -24.5t-5 -35.5q-34 -68 -40.5 -140.5t14.5 -132.5q10 -34 39 -69l-1 -1q17 -20 42 -37q1 -1 2.5 -2t2.5 -1h1l1 -1q1 -1 2.5 -2t2.5 -1v-1q59 -33 141 -29q116 6 202 81.5t129 190.5q-37 -10 -69 -10q-40 0 -86 13l-21 6
q-7 2 -21 8q-18 6 -40 20q-40 23 -69 60q-28 36 -44 81q-16 47 -19 89q-2 30 -1 46q0 15 4 45q1 3 2 10.5t2 11.5q2 16 4 22q1 3 3 11t3 11l6 21q10 28 16 42q8 19 20 41q3 4 8.5 12.5t7.5 13.5q-5 0 -15.5 -0.5t-16.5 -0.5q-101 -4 -191.5 -49.5t-156.5 -117.5
t-113.5 -165.5t-69.5 -193t-16.5 -199.5t38 -185.5t101.5 -152t167 -96.5q0 -1 1 -1q1 -1 3.5 -1h3.5h-1q8 -3 21.5 -7t54.5 -10t80 -6h22q18 0 26 1q137 7 238 77q43 29 82 72t64 83.5t43.5 77t27.5 58.5l8 22q38 93 70 210l2 5l5 20q13 47 35.5 132t31.5 118zM1996 1103
q11 92 -15.5 170t-102.5 137.5t-196 75.5q-40 -42 -67 -90q-46 -77 -86 -183q-41 -112 -125 -430q-2 -7 -5.5 -20.5t-5.5 -20.5q93 -50 194 -50q153 0 269.5 111t139.5 300z" />
    <glyph glyph-name="Q" unicode="Q" horiz-adv-x="1794" 
d="M1750 983q-22 -270 -132.5 -480t-275.5 -340q33 -23 65 -40q37 -20 68 -28.5t51.5 -6t36.5 10.5t24.5 20t14 22.5t6.5 18.5l2 7q2 7 4 19q2 8 8 8q7 0 9 -7q13 -91 -28 -173q-18 -31 -47.5 -47.5t-74.5 -17.5t-112 32.5t-146 101.5q-163 -90 -322 -87q-119 2 -210 49.5
t-144 129.5t-77 186t-18 225l3 48l1 1q1 7 2.5 21t2.5 21q0 2 0.5 4.5t0.5 3.5q-44 8 -93 24q-111 36 -191 99q-44 35 -78 76q-19 23 -33 43q-15 23 -27 48q-49 101 -38 214q11 116 75 207q35 49 78 82q19 15 47 31q23 13 50 24q52 21 108 30q60 10 112 7q114 -5 217 -60
q48 -26 93 -65q23 -20 41 -39q1 -1 19 -22q122 111 262 169t287 49q114 -7 183 -70.5t83 -165.5q114 -127 93 -383zM1395 1577q-136 3 -262 -72.5t-231 -208.5q16 -30 23 -46q24 -50 43 -120l-1 -1q0 -1 1 -3t1 -3q89 150 207.5 245.5t236.5 95.5q126 0 208 -64
q-21 79 -79.5 126.5t-146.5 50.5zM848 1221q-153 -229 -200 -491l-5 -36q-1 -2 -1 -6t-1 -6q111 -2 195 13q78 11 163 37q101 30 196 78q90 46 179 114q45 35 80 69q19 18 37 37q3 3 5.5 6t6 7.5t5.5 6.5q1 2 5 5.5t5 5.5v1l1 1l13 16q1 1 3.5 5t4.5 5v1q83 107 89 203l2 41
q-28 38 -70 64q-59 35 -133 35q-129 0 -249 -96.5t-203 -246.5q15 -69 20 -152q1 -20 -12.5 -35t-33.5 -17q-20 -1 -35.5 12.5t-17.5 33.5v3q0 31 -1 47v7q0 3 -0.5 9.5t-0.5 9.5l-1 -1q-4 50 -12 93.5t-14 62.5l-6 19q-4 13 -14 39zM541 955q92 215 247 376
q-53 74 -132 121q-87 52 -188 61q-48 4 -100 -2q-56 -7 -98 -23q-53 -20 -89 -46q-40 -28 -71 -70q-30 -41 -50 -88q-19 -45 -25 -98q-13 -108 29 -200q10 -24 24 -45q17 -26 30 -43q35 -43 73 -74q44 -36 87 -58q42 -23 96 -41q53 -18 91 -25q12 73 31 137t32 91zM998 115
q78 -3 161 27l-23 23q-79 80 -153 132t-123.5 69.5t-87.5 24t-56 1.5l-18 -4q-1 0 -3.5 -1t-3.5 -1l-9 -3q-13 -5 -24 -13q36 -115 120.5 -182t219.5 -73zM1282 205q163 107 279.5 308.5t137.5 460.5q15 192 -40 310q-2 5 -6 13q-6 -110 -109 -235l-11 -11q-2 -2 -5.5 -6.5
t-5.5 -6.5q-6 -7 -19 -20q-12 -13 -38 -37q-48 -45 -82 -69q-86 -65 -182 -113q-190 -96 -408 -122q-6 -1 -17.5 -2t-17.5 -2v-1q-50 -5 -119 -5q-7 -54 -7 -92q-2 -106 22 -191q10 8 16 12q72 41 163 35q33 -3 67.5 -11.5t60.5 -16.5t61.5 -26.5t54 -28t56 -35.5t49.5 -34
t52.5 -38.5t47.5 -35.5z" />
    <glyph glyph-name="R" unicode="R" horiz-adv-x="2215" 
d="M1677 646q-63 -1 -120 8q60 -39 116 -108.5t93.5 -141t77.5 -144.5t72 -125t72 -76t83 -4q25 12 42 38q4 6 10 3q7 -3 5 -11q-19 -56 -57.5 -99t-79.5 -62q-50 -25 -95.5 -10t-79 54t-67 101.5t-60 131t-58 143t-60 138t-66.5 115t-78 74.5q-7 4 -21 10q-6 3 -18 6
q-2 1 -8 1h-1q-1 1 -2 1q-26 -84 -50 -144l-10 -26q-73 -175 -173 -299q-45 -60 -95 -109l-17 -17l-2 -2q-171 -156 -389 -177q-85 -8 -146.5 -2.5t-96.5 15.5l-35 11q-107 33 -185.5 102.5t-120 158t-53 193t8 207.5t71 200t128 172.5t187 124t239.5 55.5q22 1 43 0
q19 27 41 56h-1q4 6 11.5 16t35 40t61 58t90 63t119.5 62q108 46 257.5 67t318.5 9q123 81 279 91q3 0 5 -1h1q7 -3 5 -11q-2 -6 -9 -8v-2q-58 -5 -103 -25q-29 -14 -59 -36v1q-8 -6 -21 -17q61 -5 128 -19q47 -12 91.5 -31.5t100 -67t88.5 -111.5q44 -95 35 -219
q-18 -199 -181 -328q-47 -32 -97 -52q-51 -19 -87 -27q-53 -12 -113 -14zM669 846q0 -40 7 -74q8 -40 25 -69q20 -34 48 -57q18 -14 32 -22q3 -2 8.5 -5t8.5 -4q2 -1 5 -2t5 -1t5 -2t4 -2q39 -13 77 -14q39 -1 78 11l1 1q22 72 24 146t-16 141.5t-61 122t-107 83.5h-1l-2 1
h-1l-1 1q-3 1 -8.5 3.5t-8.5 3.5q-9 4 -39 11q-19 -32 -33 -63t-19 -46l-4 -15l-6 -18q-1 -3 -2.5 -9t-2.5 -9q-2 -5 -4 -19q0 -3 -1.5 -9.5t-2.5 -9.5q-8 -40 -8 -75zM1147 571q13 47 35.5 132t31.5 118q132 485 356 669l18 14q-137 9 -288 -23q-148 -31 -274 -99.5
t-230 -196.5q-14 -19 -30 -44l50 -17q131 -57 182 -200t15 -301q49 27 87 74q51 63 74 143q6 20 9 39q3 20 3 40q2 44 -10 80q-13 40 -37 67t-60 43q-27 12 -69 16q-13 1 -35 -1q-3 0 -8.5 -0.5t-8.5 -1.5q-12 -2 -16 -2h-2q-19 0 -33 13t-14 32q0 16 9.5 28.5t24.5 16.5
q8 2 25 2t25 -1q29 -4 48 -10q24 -6 45 -17q22 -11 40 -26q38 -29 61 -70q22 -39 30 -83q7 -39 5 -86q-2 -30 -4 -43q-3 -21 -9 -42q-13 -45 -31 -79q-21 -41 -46 -71q-32 -39 -60 -61q-18 -13 -51 -30q-39 -141 -138 -235.5t-242 -101.5q-108 -6 -193 47v-1q-31 20 -47 36
v1q-79 76 -92.5 193.5t47.5 231.5q13 22 39 24q18 0 27 -5l2 -2q17 -8 22 -24.5t-5 -35.5q-34 -68 -40.5 -140.5t14.5 -132.5q10 -34 39 -69l-1 -1q17 -20 42 -37q1 -1 2.5 -2t2.5 -1h1l1 -1q1 -1 2.5 -2t2.5 -1v-1q59 -33 141 -29q116 6 202 81.5t129 190.5
q-37 -10 -69 -10q-40 0 -86 13l-21 6q-7 2 -21 8q-18 6 -40 20q-40 23 -69 60q-28 36 -44 81q-16 47 -19 89q-2 30 -1 46q0 15 4 45q1 3 2 10.5t2 11.5q2 16 4 22q1 3 3 11t3 11l6 21q10 28 16 42q8 19 20 41q3 4 8.5 12.5t7.5 13.5q-5 0 -15.5 -0.5t-16.5 -0.5
q-101 -4 -191.5 -49.5t-156.5 -117.5t-113.5 -165.5t-69.5 -193t-16.5 -199.5t38 -185.5t101.5 -152t167 -96.5q0 -1 1 -1q1 -1 3.5 -1h3.5h-1q8 -3 21.5 -7t54.5 -10t80 -6h22q18 0 26 1q138 7 239 77h-1q43 29 82 72t64 83.5t43.5 77t27.5 58.5l8 22q38 93 70 210l2 5z
M1393 742q93 -50 194 -50q153 0 269.5 111t139.5 300q11 92 -15.5 170t-102.5 137.5t-196 75.5q-40 -42 -67 -90q-46 -77 -86 -183q-41 -112 -125 -430q-2 -7 -5.5 -20.5t-5.5 -20.5z" />
    <glyph glyph-name="S" unicode="S" horiz-adv-x="1345" 
d="M1598 1533q3 -18 3 -35q0 -2 -0.5 -5t-0.5 -4q-3 -28 -12 -52l-9 -21q-17 -32 -48 -67q-21 -24 -60 -55q-55 -45 -133 -92q-62 -36 -93 -53q0 -16 1.5 -76t1.5 -87q0 -143 -17 -270t-62 -255t-115 -224.5t-183 -166t-259 -91.5q1 -1 3 -2.5t3 -2.5q54 -48 123 -74
q31 -13 69 -21q2 -1 35 -6q3 -1 8.5 -1t8.5 -1q2 0 5 -0.5t4 -0.5h4h2h1q23 -1 38.5 -18t14.5 -40t-18 -38.5t-40 -14.5h-4l-3 1h-6q-2 0 -6 1t-6 1q-16 2 -22 4q-15 3 -43 11q-34 10 -82 31q-40 18 -77 44q-41 29 -68 56q-25 25 -52 62q-264 -6 -401 156q-111 133 -103 332
q8 197 128 362q136 188 358 249q64 17 133 22q170 13 262 -92q3 2 8.5 4.5t8.5 3.5l36 18l19 8l18 8q12 6 36.5 17t36.5 16q7 3 21 9.5t21 9.5q0 50 5 112l3 26q19 193 101 286q2 2 5 5.5t13 13.5t21.5 19.5t29 22t36 22t42 18.5t47.5 13t53 3t57 -8q13 -3 25 -8
q14 -6 24 -12q40 -27 50 -73zM880 965q-129 -75 -219 -172q-114 -125 -158 -265q-11 -32 -19 -74q-7 -33 -10 -76q-4 -46 -1 -79q42 -13 95 -8q73 5 138 43t110.5 95t75.5 129t39.5 144t-3 142t-48.5 121zM93 463q-3 -91 21 -173t71.5 -147t125 -104t174.5 -40
q-18 31 -28 53q-18 39 -30 81q-10 36 -17 83q-2 17 -4 55q-77 35 -121 108.5t-44 159.5t42 176q11 22 37 24q11 1 25 -5l1 -1q36 -16 18 -56q-44 -93 -33 -191.5t76 -151.5q2 34 4 51q12 83 42 161q29 74 76 147q43 66 104 127q57 57 125 105q48 33 104 63q-84 95 -243 85
q-89 -6 -180 -52.5t-167 -123t-125.5 -191t-53.5 -243.5zM585 7q95 15 172.5 58t129.5 101.5t90 139t59.5 160t33.5 176t15 176.5t2 171q-2 52 -2 78q-5 -2 -15.5 -7t-15.5 -8q-48 -24 -72 -35l-18 -8l-18 -9q-6 -3 -17.5 -9t-17.5 -9l-12 -6q40 -55 55 -130.5t7 -153.5
t-40 -156t-81 -140t-121.5 -103t-155.5 -47q-45 -3 -84 3q0 -3 1.5 -10t2.5 -11q9 -48 18 -73q10 -30 29 -68q22 -42 55 -80zM1560 1426q18 38 18 72q0 17 -5 37q-11 32 -39 50t-65 17q-64 -7 -108.5 -41.5t-68 -91t-33.5 -115t-12 -131.5l-2 -22v-28q38 21 83 47
q76 46 130 89q36 31 57 54q32 36 45 63z" />
    <glyph glyph-name="T" unicode="T" horiz-adv-x="1671" 
d="M2253 1698q244 27 318 125q-7 -96 -48.5 -156t-101.5 -72q-41 -7 -87.5 -8t-102.5 5t-98.5 12t-112.5 17.5t-107 17.5q-51 6 -95 6q-18 -6 -26 -10q-33 -15 -59 -35q-7 -5 -19.5 -14.5t-44 -44.5t-54.5 -76v-1q-46 -77 -86 -183q-42 -114 -125 -429q-31 -121 -77 -238
l-10 -26q-73 -175 -173 -299q-45 -60 -95 -109l-17 -17l-2 -2q-171 -156 -389 -177q-85 -8 -146.5 -2.5t-96.5 15.5l-35 10q-107 33 -185.5 102.5t-120 158t-53 193t8 207.5t71 200.5t128 173t187 124t239.5 55.5q22 1 43 0q67 102 175 188v0q3 2 8 6t8 6q98 74 211 122
q109 48 234.5 80t235.5 43.5t179 15t124 2.5v0q4 0 11 -0.5t9 -0.5h1q55 3 103 2q177 2 273 13zM669 915q0 -40 7 -74q8 -40 25 -69q20 -34 48 -57q18 -14 32 -22q3 -2 8.5 -5t8.5 -4q1 -1 5 -2.5t5 -1.5l9 -3q39 -13 77 -14q39 -1 78 11h1q22 72 24 146t-16 141.5t-61 122
t-107 83.5l-1 1h-2h-1l-1 1l-1 1q-3 1 -8.5 3t-8.5 3q-11 4 -38 11q-19 -32 -33 -62.5t-19 -45.5l-4 -15l-6 -18q-1 -3 -2.5 -9.5t-2.5 -9.5q-2 -5 -4 -19q-1 -3 -2 -9t-2 -9q-8 -40 -8 -75zM1754 1658l15 6q-131 -5 -255 -27t-207 -48.5t-158.5 -60.5t-107.5 -52.5
t-56 -35.5q-135 -96 -219 -230l50 -18q88 -38 142.5 -120.5t64.5 -179t-10 -200.5q49 27 87 74q51 63 74 142q6 19 9 40q3 19 3 40q2 43 -10 79q-13 41 -37 68q-22 25 -60 42q-30 14 -69 17q-13 1 -35 -1q-3 -1 -8.5 -1t-8.5 -1q-2 0 -7.5 -1.5t-8.5 -1.5h-2q-19 0 -33 13
t-14 32q0 17 9.5 29.5t24.5 16.5q8 2 25 2q9 0 25 -2q34 -4 48 -9q19 -5 45 -18q25 -12 40 -25q37 -28 61 -70q23 -41 30 -84q7 -39 5 -86q-2 -28 -4 -42q-3 -21 -9 -42q-13 -45 -31 -79q-23 -43 -46 -72q-28 -34 -61 -60q-24 -18 -50 -31q-39 -141 -138 -235t-242 -101
q-108 -6 -193 47v-2q-29 19 -47 37v1q-79 76 -92.5 193t47.5 231q13 23 39 25q16 0 27 -6l2 -1q17 -8 22 -25t-5 -36q-34 -68 -40.5 -140t14.5 -132q10 -34 39 -69l-1 -1q17 -20 42 -37q1 0 2.5 -2t2.5 -2h1l1 -1q1 -1 2.5 -2t2.5 -1v0q60 -34 141 -30q116 6 202 81.5
t129 191.5q-37 -10 -69 -10q-44 0 -86 12q-4 1 -11 3.5t-10 3.5q-14 4 -21 7q-18 6 -40 20q-40 23 -69 60q-28 36 -44 81q-16 47 -19 90q-2 30 -1 46q0 15 4 45q1 4 2 11.5t1 10.5q1 9 5 22l6 21q1 3 3 10.5t3 11.5q10 28 16 42t20 40q3 5 8 14t8 13q-21 0 -32 -1
q-101 -4 -191.5 -49.5t-156.5 -117.5t-113.5 -165.5t-69.5 -193t-16.5 -199.5t38 -185.5t101.5 -152t167 -96.5v-1h1q1 0 3.5 -1t3.5 -1h-1q8 -3 21.5 -6.5t54.5 -9.5t80 -6h-1h23q18 0 26 1q137 7 238 77q43 29 82 72t64 83.5t43.5 77t27.5 58.5l8 22q38 93 70 210l2 5
l5 19q13 47 35.5 132l31.5 119q132 485 356 669l41 30q71 47 143 69z" />
    <glyph glyph-name="U" unicode="U" horiz-adv-x="1898" 
d="M1940 1580q60 31 127 31q-4 -6 -12 -18.5t-31 -59.5t-45 -104t-50 -155t-50 -209q-146 -728 -334 -972q-26 -30 -40 -44l-19 -18l-4 -5q-40 -34 -81 -47q-13 -3 -28 -3h-61q18 15 36 33q41 43 77 97q15 23 27.5 45t17.5 33l4 10q66 136 113 368l5 24q11 59 31.5 174
t22.5 127q20 104 32 155q-24 -54 -46 -106t-32 -78l-9 -25q-347 -825 -652 -843q-55 -3 -90.5 22.5t-49 76t-15.5 113t10 144t28.5 155.5t39.5 161q26 94 65.5 208t97.5 251.5t131.5 250t144.5 158.5q6 1 17 4q-83 -9 -175.5 -32.5t-165.5 -51t-134.5 -54t-94.5 -44.5
l-34 -17q61 -62 66.5 -168t-36 -218.5t-115.5 -205.5l-15 -19q-126 -146 -270 -155q-112 -6 -149 89q-40 101 19 254q70 182 238 322q88 74 194 125l5 2q-21 8 -46 10q-31 3 -69 -4q-60 -12 -130 -51q-57 -32 -114 -84q-51 -47 -94 -105q-85 -115 -126 -252
q-41 -135 -36 -278q1 -61 15 -140q8 -46 14 -69q9 -33 21 -67q49 -136 135 -242q43 -52 91 -93l36 -28q2 -1 6.5 -4l9 -6t8.5 -6q31 -21 60 -35q18 -10 28 -14h1q105 -46 230 -56q18 -2 31 -15.5t12 -31.5q-1 -19 -15 -31.5t-33 -10.5h-1l-1 1h-1q-83 12 -147 33
q-70 23 -138 62q-55 32 -107 76l-22 20l-30 28q-23 24 -63 76q-87 119 -132 263q-10 31 -18 72q-10 48 -14 72q-12 72 -12 145q-1 147 44 288q46 144 134 258q93 121 218 192q69 39 136 51q45 8 75 4q34 -3 65 -19q158 74 322.5 117.5t246.5 52.5t149 10q2 0 7 1t7 2
q5 1 6.5 -4.5t-3.5 -7.5q-36 -26 -80 -99.5t-69 -134.5l-26 -61q-64 -164 -120.5 -349.5t-95.5 -364t-30.5 -296.5t75.5 -119q59 -2 131.5 70.5t139.5 183.5t139 262.5t126.5 286.5t106.5 277q4 13 11.5 36t32 82.5t50 108t64.5 95t78 61.5zM388 607q59 3 120 45.5
t109.5 107.5t84.5 146t50.5 159t1 148.5t-58.5 112.5q-184 -110 -308 -299q-104 -159 -112 -285q-6 -111 72 -131q18 -5 41 -4z" />
    <glyph glyph-name="V" unicode="V" horiz-adv-x="1847" 
d="M2335 1611q13 1 23 -7t13.5 -20.5t2 -25.5t-10.5 -23.5t-23 -11.5q-117 -13 -218.5 -70t-176.5 -143.5t-140 -195t-115 -227t-95.5 -237.5t-87.5 -228.5t-84.5 -196.5t-93.5 -146t-108 -73l-8 -1q-5 -1 -8.5 2t-3.5 8q0 9 10 11q5 1 13 3q3 1 6.5 2.5t12 11t14 23
t10.5 41t4 63.5q-3 108 -50 277.5t-98.5 348t-62.5 292.5q-10 72 1.5 140.5t35 117t58 93t60 68t51.5 42.5q-78 -12 -163 -36t-151.5 -49.5t-121.5 -49.5t-84 -40l-30 -15q61 -62 66.5 -168.5t-36.5 -219t-116 -204.5l-16 -19q-127 -147 -270 -154q-111 -6 -149 89
q-39 100 21 253q70 182 238 321q89 74 195 125l4 2q-24 10 -46 11q-31 3 -69 -4q-63 -12 -130 -50q-55 -31 -113 -84q-54 -49 -95 -105q-87 -118 -127 -251q-42 -134 -37 -278q1 -68 14 -140q6 -35 15 -69q11 -42 20 -67q48 -136 134 -243q38 -48 91 -93l35 -28
q15 -10 25 -16q28 -19 60 -36q12 -6 28 -13l1 -1v1q107 -48 230 -57q18 -2 30.5 -15.5t11.5 -31.5q-1 -19 -15 -31.5t-33 -10.5h-2q-79 11 -148 34q-70 23 -138 62q-57 33 -107 77l-22 20l-29 29q-35 36 -63 75q-85 116 -131 264q-10 31 -18 72q-6 28 -13 71q-12 82 -12 146
q-2 148 45 288q46 143 135 257q96 123 218 192q69 39 137 51q41 7 74 3q35 -3 66 -20q310 143 616 173q2 0 6 0.5t5 0.5q11 1 14.5 -9.5t-5.5 -16.5q-68 -45 -103 -114q-36 -72 -31 -159q5 -41 13 -79q11 -43 14 -57q12 -45 33 -115.5t38.5 -130.5t38 -134.5t34 -142.5
t22.5 -138t8 -137.5t-13 -126.5q-12 -66 -49 -117q36 41 73 111t68.5 152t68 180.5t72 198t80 202.5t91.5 196.5t107.5 177.5t127 147t152 104.5t179.5 51.5zM388 632q59 3 120 45t110 107t85 145.5t51 158.5t1.5 148.5t-57.5 112.5q-184 -110 -309 -298
q-105 -159 -113 -284q-7 -111 71 -131q18 -5 41 -4z" />
    <glyph glyph-name="W" unicode="W" horiz-adv-x="2058" 
d="M2485 1622q23 2 33.5 -20t2.5 -45t-32 -25q-119 -12 -214 -68t-158.5 -141.5t-112.5 -193.5t-81 -227t-58.5 -238t-52 -230.5t-54 -201t-71 -152t-97.5 -81.5q-5 -1 -9.5 2t-4.5 8q0 8 8 10q1 1 4 2t4 1q5 5 12.5 16t18.5 59.5t7 113.5q-7 90 -35.5 229t-56 254.5
t-46.5 249t-12 226.5q-61 -118 -125.5 -286.5t-112.5 -310t-99 -275t-105 -218t-110 -100.5h-3q-5 -1 -9 3t-4 9q0 8 9 10q1 0 4 1t4 2q36 32 42 114q4 87 -14 221.5t-41 253.5t-40.5 261t-13.5 241q-1 77 21.5 145.5t53.5 112t74.5 81t73.5 55t60 30.5q-66 -9 -107 -16
q-130 -23 -235 -53q-54 -15 -113 -38q-74 -28 -110 -45q-115 -53 -203 -118q-40 -30 -88 -76q-47 -47 -76 -86q-37 -50 -62 -97q-27 -51 -45 -105q-38 -113 -32 -224q3 -64 17 -113q6 -21 19 -53t25 -51q60 -103 169 -148q26 -10 56 -18q14 -5 28 -6q5 -1 14.5 -2t14.5 -1
q57 -3 115 14q57 16 108 48q54 34 92 74q42 45 69 95q29 53 39 111q6 29 6 59q0 29 -6 58q-14 59 -51 102t-92 62q-51 17 -106 6q-49 -10 -92 -45q-20 -17 -37 -37q-6 -7 -16 -21l-8 -11q-2 -4 -8 -10l-2 -2q-14 -16 -34 -17t-36 13q-14 13 -16.5 31t7.5 33q6 10 10 14
q2 2 5.5 6.5t5.5 6.5q16 16 25 24q26 23 56 41q61 37 133 40q31 1 68 -7q18 -5 32 -10q11 -4 31 -14q59 -32 97 -85t50 -116q12 -60 -1 -125q-12 -60 -41 -117q-27 -53 -72 -101q-89 -94 -208 -131q-68 -20 -124 -19q-26 0 -63 7q-27 5 -61 17t-59 25q-31 16 -54 34
q-27 21 -48 43q-29 31 -41 49q-38 53 -59 115q-20 59 -28 126q-3 32 -3 65q0 22 4 64q2 21 10 63q11 47 16 63q3 10 23 60q11 28 27 58q26 50 70 107q39 51 85 94q49 45 99 80q98 68 221 116q111 43 237 70q124 26 242 38q80 8 176 13q1 0 4.5 -1.5t7 -5.5t2.5 -9l-15 -2
q-90 -29 -141 -100l-15 -24q-46 -80 -46 -190q3 -81 33 -323t36 -376q14 -281 -57 -427q44 67 88 179.5t107.5 305t95.5 282.5q50 150 118 305q11 27 32 69q34 70 60 103q57 80 108 94q4 2 14 6q-22 -25 -24.5 -89t10.5 -159t29.5 -195.5t35 -231t25.5 -232.5
q7 -85 8 -145.5t-11 -146t-43 -143.5q33 48 61 132t50 180t45.5 209.5t51.5 225.5t63 223t85 207t112 172t150.5 124t194.5 58z" />
    <glyph glyph-name="X" unicode="X" horiz-adv-x="2062" 
d="M2458 1609q23 -4 27.5 -28t-10 -44.5t-37.5 -16.5q-108 19 -208 -5.5t-176.5 -75.5t-152.5 -137.5t-130 -169t-116 -194.5l11 -22q36 -65 63 -116t63.5 -133t57.5 -148t33.5 -147t3.5 -144.5t-43.5 -125.5t-97.5 -105q29 49 30.5 120t-14 141.5t-53.5 167t-72.5 170
t-86.5 175.5q-335 -654 -748 -786q-45 -18 -103 -26t-93 -7h-36h-6q-34 2 -51 4l-80 15q-103 26 -189.5 82.5t-146 142.5t-84.5 190t-2.5 234t96.5 264q11 17 29 23t38 -2q41 -15 19 -55q-68 -125 -92.5 -243t-8 -211.5t62.5 -171.5t113.5 -131t150.5 -82l9 -3
q51 -18 105 -24q1 0 4 -0.5t5 -0.5h1q33 -3 64 -3q36 1 80 6h1q56 8 85 17v1q100 28 195 87.5t172 134.5t152 174.5t132 193.5t114 205q-1 2 -3 4.5t-3 4.5q-271 532 -109 698l3 3l2 2l5 5l1 1q28 26 59 38l-84 -14q-8 -1 -25.5 -3.5t-26.5 -4.5q-5 -1 -15 -2.5t-15 -2.5v0
q-106 -20 -205 -48q-54 -15 -113 -38q-74 -28 -110 -45q-115 -53 -203 -118q-40 -30 -88 -76q-47 -47 -76 -86q-37 -50 -62 -97q-27 -51 -45 -105q-38 -113 -32 -224q3 -59 18 -113q8 -29 18 -53q13 -32 25 -51q60 -102 170 -148q28 -11 55 -18q14 -5 28 -6q5 0 14.5 -1
t14.5 -2q57 -3 115 14q60 17 108 47q52 32 92 75q42 45 69 95q30 55 40 111q6 29 6 59q0 28 -6 57q-14 59 -52 103q-37 43 -92 62q-51 17 -106 6q-49 -10 -92 -45q-20 -17 -37 -37q-6 -7 -16 -21l-7 -11q-2 -4 -8 -10l-2 -3q-14 -16 -34.5 -16.5t-36.5 13.5q-14 13 -16.5 31
t7.5 33q6 10 10 14l12 12q3 3 11 11.5t13 13.5q26 23 56 41q61 37 133 40q31 1 68 -7q22 -6 33 -10q7 -3 30 -14q61 -33 98 -85q36 -51 49 -116q12 -60 -1 -125q-12 -60 -41 -117q-27 -53 -72 -101q-89 -94 -208 -131q-68 -20 -124 -19q-26 0 -63 7q-34 6 -61 16
q-29 10 -59 26q-31 16 -54 34q-30 23 -48 42q-27 28 -41 50q-38 53 -59 115q-20 59 -28 126q-3 32 -3 65q0 22 4 64q2 21 10 63q10 42 16 62q4 14 23 61q11 28 27 58q26 50 70 107q36 48 86 94q47 44 98 79q101 70 221 117q111 43 237 70q124 26 242 38q79 8 177 13
q2 -1 5 -2q10 -6 4 -18q-1 0 -2 -1t-2 -1q-13 -7 -22 -16q-19 -13 -27 -40l-2 -6q-12 -44 2 -118.5t45 -156.5t57.5 -142t52.5 -111q66 122 123.5 212.5t138 186.5t160 152.5t182.5 85t213 8.5z" />
    <glyph glyph-name="Y" unicode="Y" horiz-adv-x="1818" 
d="M1987 1630q10 2 10 -8v-1q0 -8 -8 -10q-33 -5 -63.5 -40.5t-58.5 -104t-51 -142t-50 -187t-46.5 -204.5t-49 -228.5t-49.5 -227.5q-2 -9 -5 -28t-5 -29q-24 -125 -58 -231l-8 -24q-90 -271 -241 -426l-15 -15l-15 -15q-25 -23 -66 -53q-7 -6 -21 -15.5t-59 -34t-93 -42
t-119.5 -29.5t-141.5 -8h-3v0q-118 8 -213.5 65.5t-152.5 147.5t-86 199t-21.5 226t48.5 222q7 18 25 26.5t38 3.5q19 -4 26 -17.5t0 -33.5q-33 -85 -46.5 -181.5t-6 -191.5t42 -180t90 -146.5t145.5 -91.5t202 -15q17 2 49 8q160 36 263 138q34 34 64 80q12 19 22.5 37
t14.5 27l4 9q54 112 93 304l5 21q9 47 24.5 135.5t19.5 112.5q14 77 37 171q-248 -543 -488 -565q-53 -5 -88.5 19t-50 73t-18.5 109t5.5 139t23.5 151t34 157q22 91 54 194t80 234t110.5 241t125.5 165q27 22 57 32l-59 2q-9 0 -26.5 1t-26.5 2q-5 0 -15 0.5t-15 0.5v0
q-100 3 -210 -5q-61 -5 -119 -12q-49 -6 -117 -22q-115 -25 -223 -74q-55 -25 -102 -55q-50 -33 -92 -69q-40 -35 -81 -82q-34 -40 -65 -93q-61 -106 -78 -213q-10 -61 -7 -114q1 -17 7 -56q3 -19 15 -55q37 -112 135 -179q22 -15 50 -30q10 -6 26 -11q5 -2 14.5 -5t13.5 -4
q57 -16 116 -11q56 4 115 25q54 19 105 53q50 33 88 79q38 45 61 101q14 36 18 55q6 29 6 58q0 61 -29 111q-30 52 -77 80t-102 28q-49 0 -99 -26q-26 -14 -44 -28q-1 -1 -20 -17l-10 -9q-6 -6 -10 -9h-1q-16 -12 -37 -9.5t-34 18.5q-11 15 -10 33.5t14 31.5q2 2 6.5 6
t6.5 6t6.5 5.5t7.5 4.5q9 6 29 18q39 21 63 29q70 24 138 12q35 -6 66 -21q14 -7 29 -17q11 -7 27 -19q51 -42 78 -104q27 -61 25 -124q0 -58 -27 -122q-24 -58 -65 -106q-36 -44 -91 -83q-107 -74 -231 -86q-62 -6 -125 8q-31 7 -61 20q-33 14 -56 28q-26 16 -52 37
q-28 25 -46 45q-23 26 -38 51q-15 24 -30 58q-27 63 -34 124q-7 62 -1 129q3 30 11 64q10 42 17 62q14 40 23 60q14 31 29 57q10 19 34 55q18 27 39 51q32 40 90 90q53 44 103 74q58 35 113 58q106 45 241 68q111 19 246 19q127 0 244 -13q93 -10 169 -22h7q13 0 11 -12
q0 -8 -8 -10q-42 -10 -74 -71q-78 -150 -168 -461q-122 -418 -117 -635q4 -157 83 -156q196 0 477 735q181 630 397 673q5 0 17 2z" />
    <glyph glyph-name="Z" unicode="Z" horiz-adv-x="2211" 
d="M1856 94q33 21 38 24q48 34 106 28t99 -49l2 -1q-91 -75 -187 -117q-108 -48 -213 -55q-101 -8 -216 20q-57 15 -101 32q-58 23 -95 42q-114 59 -229 149q-25 -16 -47 -29q-186 -112 -403 -109q-18 0 -52 2q-18 1 -52 7q-30 5 -50 10l-13 3l-12 3q-2 0 -6.5 2t-6.5 2
t-6 1.5t-6 2.5q-101 33 -181 95q-82 64 -136 151q-57 91 -77 189q-10 51 -12 102q-1 46 7 103q8 52 24 101q17 52 40 96q26 50 55 89q27 36 70 79q42 40 82 67q50 33 94 52q51 22 104 32q49 10 109 8q115 -5 211 -63q50 -30 87 -71q41 -46 63 -93q25 -52 32 -107
q8 -60 1 -111q-13 -106 -79 -199q-42 -60 -102 -103q15 -16 47 -48q36 -36 72 -69q26 -24 75 -65q14 -12 16 -13q70 70 120 146q34 55 100.5 166t95.5 158h-144q-13 0 -13 14q0 5 4.5 9t9.5 4h160q266 438 475 617l9 7q-6 1 -17 4.5t-16 5.5q-31 10 -106.5 34t-116.5 36
q-139 41 -223 55q-127 21 -219 6q-54 -10 -94 -31t-67 -58q-24 -33 -34 -80q-5 -25 -5 -46v-22q0 -2 0.5 -6t0.5 -5v-5l1 -2v-1q-5 1 -13 3.5t-29 11.5t-37.5 20t-32 31t-19.5 43q-17 64 24 120q2 4 7 11t24 26t42.5 35t64.5 32.5t88 24.5t114.5 6t143.5 -19q38 -8 57 -13
q91 -23 226 -77q21 -8 98.5 -39.5t119.5 -47.5q9 -4 28 -11t29 -11l16 12q141 101 278 112q33 3 57 -3q19 -6 30 -13q15 -10 23 -22q5 -7 8 -14l2.5 -5t2.5 -5.5t1 -4.5q4 -13 2 -32q-2 -12 -4 -16q-3 -7 -7 -14q-9 -16 -19 -25q-20 -19 -53 -31q-24 -9 -59 -14
q-60 -7 -119 0q-37 5 -99 18l-2 -3q-30 -35 -63.5 -81.5t-59 -85.5t-64 -103.5t-59 -100t-65 -114.5t-61.5 -110h222q13 0 13 -14q0 -5 -4.5 -9t-9.5 -4h-237q-60 -104 -106 -177q-48 -84 -103 -156l-5 -7l-17 -20q-2 -2 -5.5 -7t-5.5 -7l-17 -20q-3 -4 -9 -10t-9 -10
q-42 -45 -74 -75q-22 -21 -70 -59q17 -12 37 -25q90 -57 172 -92q98 -41 182 -55q50 -8 93 -8q49 0 91 7t87 23q40 14 81 38zM2092 1518q-70 -32 -144 -110q42 -13 79 -20q20 -4 56 -8q29 -2 57 0q34 4 56 11q27 9 47 26q23 21 26 46q4 25 -14 49q-10 12 -25 19q-2 2 -3 2
h-1q-40 16 -134 -15zM398 96q308 -79 569 149q-4 3 -12 11q-37 35 -73 70q-35 35 -70 73l-51 57q-14 -8 -21 -11q-27 -14 -49 -20q-26 -8 -52 -12q-53 -8 -106 6q-51 13 -94 50q-20 17 -35 41q-16 25 -20 52q-5 30 6 57q10 25 36 46q20 16 52 23q21 5 55 1q9 -1 27 -5
q14 -3 26 -9q19 -8 46 -27q38 -27 77 -70q6 -7 17.5 -19.5t16.5 -18.5q4 -4 12 -13.5t12 -14.5q53 43 86 101q23 39 37 85q15 49 16 90q5 96 -37 173q-41 79 -119 125q-76 46 -169 52q-91 6 -180 -26q-88 -32 -161 -94q-75 -62 -125 -144q-51 -82 -72 -178q-10 -48 -12 -97
q0 -32 1 -48q2 -25 6 -49q10 -52 26 -94q1 -4 4 -11.5t5 -11.5q5 -11 11 -22q14 -30 23 -44q51 -85 132 -144q73 -55 159 -79zM733 488q-14 16 -21 25q-2 2 -13.5 16.5t-18.5 21.5q-36 43 -69 68q-21 16 -39 24q-12 5 -22 8q-13 4 -22 5q-27 4 -44 0q-26 -5 -40 -16
q-19 -14 -26 -32q-8 -18 -5 -42q3 -22 15 -41q11 -18 30 -34q38 -31 83 -42q23 -6 46 -6q22 0 47 5q42 8 87 33q2 1 6 3.5t6 3.5z" />
    <glyph glyph-name="bracketleft" unicode="[" horiz-adv-x="579" 
d="M501 834q8 0 12 -6t2 -13q-5 -18 -24 -18h-118l-229 -857h118q8 0 12 -6t2 -13q-5 -18 -24 -18h-153q-20 0 -29.5 13.5t-4.5 32.5l225 838q5 20 22.5 33.5t36.5 13.5h152z" />
    <glyph glyph-name="backslash" unicode="\" horiz-adv-x="516" 
d="M454 -45q7 -17 -3.5 -32.5t-29.5 -15.5q-25 0 -33 22l-326 839q-7 17 3.5 32.5t29.5 15.5q25 0 33 -23z" />
    <glyph glyph-name="bracketright" unicode="]" 
d="M486 834q16 0 24.5 -11t3.5 -28l-229 -853q-5 -17 -19 -28t-30 -11h-160q-8 0 -12 5.5t-2 12.5q6 19 24 19h118l229 857h-118q-8 0 -11.5 5.5t-1.5 12.5q6 19 24 19h160z" />
    <glyph glyph-name="asciicircum" unicode="^" horiz-adv-x="487" 
d="M139 361q-10 -25 -36 -25q-21 0 -32.5 18t-3.5 37l141 321h68l143 -322q8 -19 -3 -36.5t-32 -17.5q-26 0 -36 24l-106 256z" />
    <glyph glyph-name="underscore" unicode="_" horiz-adv-x="546" 
d="M451 -27q14 0 23.5 -9.5t9.5 -22.5t-9.5 -22.5t-23.5 -9.5h-355q-14 0 -23.5 9.5t-9.5 22.5t9.5 22.5t23.5 9.5h355z" />
    <glyph glyph-name="grave" unicode="`" horiz-adv-x="305" 
d="M227 620q8 -16 -1.5 -31.5t-27.5 -15.5q-17 0 -26 12l-98 119h113z" />
    <glyph glyph-name="a" unicode="a" horiz-adv-x="964" 
d="M1037 437q-133 -325 -264 -408q-3 -2 -8 -5q-17 -10 -31 -14q-2 -1 -5 -1q-29 -9 -46 -10q-35 -3 -63 3.5t-43 19t-24.5 25t-12.5 21.5l-3 10q-27 73 -17 168q-30 -74 -87 -138q-41 -49 -89 -75q-47 -26 -111 -29q-95 -3 -151 49q-57 53 -75 131q-19 82 -4 172
q15 92 63 172q47 78 129 131q79 51 189 51q37 0 70 -12q34 -13 58 -39q33 -37 45 -80q12 -45 12 -91l45 138q15 47 47 68q31 21 61 16t46 -35q17 -32 -1 -86q-5 -16 -22 -71q-11 -35 -31 -111q-13 -48 -31 -126q-15 -64 -21 -119q-3 -26 -3 -46q0 -9 1.5 -20t8.5 -27
t19.5 -23t37.5 0.5t58 35.5q89 80 184 286q12 26 30 69h39zM530 397q8 57 5 105q-3 50 -18 89q-14 37 -44 61t-74 24q-57 0 -104 -48q-47 -49 -80 -120q-34 -74 -50 -155q-16 -80 -13 -154q3 -73 27 -119q24 -47 76 -44q43 3 86 31q42 28 70 60q47 58 77 128q30 71 42 142z
" />
    <glyph glyph-name="b" unicode="b" horiz-adv-x="878" 
d="M914 437h39q-33 -78 -49 -110q-20 -41 -38 -65v-1l-1 -1l-1 -1v-1q-6 -8 -10 -13l-1 -1q-24 -27 -25 -28q-18 -16 -43 -32q-77 -45 -178 -45q-12 0 -38 2q-22 -26 -34 -38q-53 -53 -128 -80q-55 -20 -109 -20q-53 0 -82 23q-30 24 -33 55q-3 27 10 53q15 30 52 51
q72 40 202 16h1q2 -1 5 -1t5 -1q3 5 5 10l12 29q26 68 37 146q11 77 5 138q-6 63 -31 103t-72 37q-40 0 -83 -29q-42 -29 -69 -60q-44 -52 -71 -113q-30 -67 -41 -130l-43 -235q-7 -45 -37 -65q-28 -19 -58 -16q-28 3 -48 28q-15 20 -14 50q18 137 101 506q7 32 20.5 85
t56 186.5t85.5 231.5q32 69 71 134q85 141 197 228q113 88 264 100q37 2 55 1q5 0 4 -5q-1 -2 -4 -3q-84 -16 -157 -56q-30 -16 -39 -23l-3 -2q-68 -48 -118 -117q-54 -74 -92 -155q-45 -96 -72 -173q-28 -81 -52 -171q-23 -84 -36 -147l-7 -30q-6 -26 -17.5 -77.5
t-17.5 -77.5q8 13 24 35q8 10 24 32q38 44 90 73q46 26 109 29q80 3 132 -36q52 -38 76 -102t23 -139q-2 -81 -27 -152l-17 -41q-4 -10 -21 -38l-8 -12q111 -3 186 48q1 0 3 2t3 2q44 32 88 120q1 4 5 10.5t5 9.5q12 26 30 69zM373 78q38 29 69 87l-1 1q-115 21 -177 -12
q-22 -12 -35 -31l-1 -1q-3 -5 -5 -12t-2.5 -18.5t9 -23.5t28.5 -21q13 -5 28 -5q39 0 87 36z" />
    <glyph glyph-name="c" unicode="c" horiz-adv-x="628" 
d="M663 437h39q-32 -76 -58 -129l-10 -20q-33 -62 -75 -115q-6 -9 -17 -22.5t-47.5 -47.5t-76 -58t-100 -38.5t-121.5 -3.5q-38 7 -67 20q-11 5 -19 10l-1 1q-11 6 -29 22q-57 54 -74 130q-19 82 -4 172q15 91 63 171q47 78 127 131q21 14 51 26q4 2 11.5 5t29 9.5
t41.5 10.5t46.5 3.5t47.5 -7.5l2 -1l2 -1l4 -2q53 -23 51 -88q-1 -36 -13 -53v0q0 -1 -2 -2.5t-2 -2.5q-9 -12 -17.5 -15.5t-12.5 -1.5l-4 2q-3 3 -1 10q14 39 14.5 66.5t-9.5 38t-21.5 15.5t-20.5 4l-10 -1l1 1q-50 -4 -93 -46q-48 -47 -81 -118q-34 -74 -50 -156
q-9 -48 -11 -80q-9 -126 43 -187q22 -22 44 -32q49 -20 116 4q49 19 108 65q55 47 103 116q39 55 76 134q3 8 13 29t14 32z" />
    <glyph glyph-name="d" unicode="d" horiz-adv-x="964" 
d="M1339 1564q5 0 4 -5q-1 -2 -4 -3q-85 -17 -158 -56q-26 -14 -38 -23l-3 -2q-68 -48 -118 -117q-54 -74 -92 -155q-45 -96 -72 -173q-28 -81 -52 -171q-22 -84 -36 -147l-7 -29q-1 -6 -4 -19t-4 -19v-1q-3 -13 -9.5 -42.5t-10.5 -45.5q-2 -9 -6 -29q0 1 0.5 1t0.5 1
l-32 -160q-53 -299 -7 -324q34 -13 93 37q89 80 184 286q12 26 30 69h39q-133 -325 -264 -408q-3 -2 -8 -5q-17 -10 -31 -14q-2 -1 -5 -1q-29 -9 -46 -10q-58 -5 -99 19q-17 11 -29 26t-15 24l-3 10q-27 73 -17 168q-1 -4 -4 -10l-5 -10q-28 -62 -78 -118q-41 -49 -89 -75
q-47 -26 -111 -29q-95 -3 -151 49q-57 53 -75 131q-19 82 -4 172q15 92 63 172q47 78 129 131q79 51 189 51q37 0 70 -12q34 -13 58 -39q33 -37 45 -80q10 -37 12 -77q4 17 10.5 49t10.5 47q7 32 20.5 85t55.5 186.5t85 231.5q29 61 72 134q85 141 197 228q113 88 264 100
q37 2 55 1zM530 397q8 57 5 105q-3 50 -18 89q-14 37 -44 61t-74 24q-57 0 -104 -48q-47 -49 -80 -120q-34 -74 -50 -155q-16 -80 -13 -154q3 -73 27 -119q24 -47 76 -44q43 3 86 31q42 28 70 60q47 58 77 128q30 71 42 142z" />
    <glyph glyph-name="e" unicode="e" horiz-adv-x="632" 
d="M667 437h39q-32 -76 -58 -129l-10 -20q-33 -62 -75 -115q-6 -8 -16 -21t-44.5 -45.5t-71.5 -56t-94 -40t-114 -10.5q-86 0 -141 50q-57 54 -75 132q-19 82 -4 173q15 90 64 172q38 63 89 104v0q0 1 1 1t2 1q59 49 130 71q5 2 12.5 4t30 5.5t42.5 3.5t43.5 -7.5
t39.5 -22.5q10 -10 15 -19q2 -3 4.5 -9t6 -25.5t1 -40.5t-17 -54t-41.5 -67l-1 -2l-3 -3q-12 -15 -27 -30q-88 -86 -235 -96q-6 -32 -9 -65q-9 -126 43 -187q22 -22 44 -32q49 -20 116 4q49 19 108 65q55 47 103 116q39 55 76 134q3 8 13 29t14 32zM166 378v-1
q140 12 216 99q25 31 40 59.5t18.5 47t2 34.5t-4.5 22.5t-5 9.5q-18 24 -59 19q-50 -8 -94 -52q-43 -50 -70 -105q-12 -28 -17 -42l-6 -16q-9 -25 -21 -75z" />
    <glyph glyph-name="f" unicode="f" horiz-adv-x="423" 
d="M812 1564q5 0 4 -5q-1 -2 -4 -3q-85 -17 -158 -56q-26 -14 -38 -23l-3 -2q-68 -48 -118 -117q-54 -74 -92 -155q-45 -96 -72 -173q-28 -81 -52 -171q-23 -84 -36 -147l-7 -29v-1q-2 -7 -4 -18.5t-4 -18.5v-1q-3 -12 -9.5 -42t-10.5 -46q-2 -9 -6 -29q0 1 0.5 1t0.5 1
l-32 -161q-1 -4 -3 -12.5t-2 -12.5l-27 -141q20 -12 35 -26q85 4 149 48q1 0 2.5 2t2.5 2q46 33 89 120q2 4 5 10.5t4 9.5q12 26 30 69h40q-33 -78 -49 -110q-20 -41 -38 -65l-1 -1v-1l-1 -1l-1 -1q-6 -8 -10 -13l-1 -1q-24 -27 -25 -28q-20 -18 -42 -32q-54 -31 -125 -41
l-11 -1q26 -44 41 -91q20 -64 28 -133q8 -74 4 -136q-1 -22 -7 -68q-3 -23 -13 -67q-18 -73 -47 -129q-2 -4 -6.5 -12t-6.5 -12q-84 -132 -180 -124q-42 5 -69.5 37t-35 57.5t-10.5 51.5q0 1 -0.5 5t-0.5 6q-23 283 140 949q15 71 35.5 150.5t55.5 197t84 232.5t102 196
q79 126 187 211q113 88 264 100q37 2 55 1zM149 139q-3 0 -10.5 0.5t-11.5 0.5l-34 -153q-49 -226 -65 -356q-3 -29 -4 -56.5t1.5 -62.5t16 -53t36.5 -11q17 6 41 30q1 2 3.5 4t3.5 4q20 24 36 51q31 55 48 119q16 63 21 128q4 56 -3 130q-6 68 -25 127q-16 52 -47 98h-7z
" />
    <glyph glyph-name="g" unicode="g" horiz-adv-x="921" 
d="M996 437q-24 -60 -56 -124q-1 -2 -2 -5v-1q-1 -1 -4.5 -7t-5.5 -11v0q-18 -33 -43 -69t-67.5 -87.5t-102.5 -97.5t-126 -75q-39 -128 -74 -224q-51 -138 -117 -253l-3 -6q-6 -12 -27 -44q-35 -54 -76.5 -95t-80.5 -63t-67 -33t-55 -17l1 1q2 0 2 1q-32 -8 -61 -8
q-24 0 -43 4q-52 11 -84 48.5t-40 94.5q-6 50 7.5 106t48 117t103.5 121.5t164 108.5q2 1 5.5 2.5t5.5 2.5v0q76 38 206 92q3 1 8.5 4t8.5 4q10 32 14 47l12 41l52 196q-17 -31 -31 -51q-22 -32 -35 -47q-42 -46 -91 -73q-48 -26 -110 -29q-91 -3 -148 49q-55 50 -73 129
q-19 81 -4 170q15 94 62 170q49 80 126 130q78 51 186 51q37 0 70 -12t57 -39q32 -36 44 -76q13 -46 13 -86q6 19 17 74q2 11 6.5 35t7.5 36q9 41 37 58t55 14q28 -3 47 -27q18 -24 11 -62l-54 -255q-28 -131 -61 -254l-13 -49q-5 -18 -15 -56q98 55 174.5 136t145.5 218
l7 14q24 56 26 61h40zM390 -184q4 12 16 56q-17 -6 -46 -16.5t-105 -48.5t-136 -81h-1q-17 -11 -41 -32q-67 -55 -108 -118l-15 -24q-28 -50 -37 -107q-2 -14 -3 -22v1q-1 -21 0.5 -40.5t3.5 -28.5l3 -9q29 -89 141 -64q77 22 149 119q36 49 67 110q25 53 52 125
q34 93 60 180zM526 396q7 52 4 104q-3 54 -17 88q-16 39 -44 62q-31 23 -73 23q-57 0 -106 -47q-48 -46 -81 -117q-32 -68 -49 -154q-15 -76 -12 -154q3 -71 29 -118t77 -44q41 3 84 31q42 28 70 60q44 53 76 126q30 69 42 140z" />
    <glyph glyph-name="h" unicode="h" horiz-adv-x="833" 
d="M908 437q-133 -324 -265 -408q-3 -2 -8 -5q-17 -10 -31 -14q-2 -1 -5 -1q-2 -1 -4.5 -2t-3.5 -1q-33 -10 -59.5 -7.5t-46 7t-34.5 17t-25 23.5t-16.5 26.5t-9.5 25t-5 19.5q-5 29 -3 62q3 70 30 163q28 95 44 161q18 74 18 122t-46 48q-50 0 -105 -58t-100 -127
q-33 -49 -55 -96q-21 -45 -33 -90q-10 -37 -22 -96q-6 -30 -20 -111q-8 -48 -37 -67t-59 -16q-29 3 -49 28q-20 24 -12 69q2 9 4.5 25t3.5 24q32 185 91 440q7 32 20.5 85t56 186.5t85.5 231.5q32 69 71 134q85 141 197 228q113 88 264 100q37 2 55 1q5 0 4 -5q-1 -2 -4 -3
q-84 -16 -157 -56q-30 -16 -39 -23l-3 -2q-68 -48 -118 -117q-54 -74 -92 -155q-45 -96 -72 -173q-20 -60 -29 -90q-29 -103 -58 -226t-43 -194l-14 -71q24 42 54 87q31 47 68 85q39 41 83 64q47 25 98 25q86 0 116 -51t27 -124q-3 -78 -26 -162q-21 -79 -42 -163
q-2 -9 -6 -25q-3 -11 -6 -32t-0.5 -54t16.5 -47q33 -29 103 30q89 80 184 286q12 26 30 69h40z" />
    <glyph glyph-name="i" unicode="i" horiz-adv-x="438" 
d="M217 738q-34 0 -57 23q-22 22 -22 55q0 34 22 55t57 21t57 -21t22 -55q0 -33 -22 -55q-23 -23 -57 -23zM512 437q-133 -324 -265 -408q-3 -2 -8 -5q-16 -9 -31 -14q-2 -1 -5 -1q-29 -9 -46 -10q-39 -4 -71 6q-30 8 -51 31t-29 49t-12 51t-4 42l1 16q0 35 4 66
q10 76 25 139q14 57 35 130q7 24 18.5 59.5t12.5 40.5q15 47 48 68q32 21 63 16q29 -4 46 -36t-1 -85q-2 -6 -22 -72q-11 -35 -31 -111q-11 -41 -31 -127q-15 -64 -21 -119q-3 -30 -3 -55q1 -16 5.5 -29.5t16.5 -27.5t38.5 -7t63.5 38q89 80 184 286q12 26 30 69h40z" />
    <glyph glyph-name="j" unicode="j" horiz-adv-x="395" 
d="M177 738q-34 0 -57 23t-23 55q0 34 23 55q22 21 57 21t57 -21t22 -55q0 -33 -22 -55q-23 -23 -57 -23zM467 437q-28 -70 -55 -124q-1 -2 -2 -5h-1v-1l-9 -18h-1q-14 -25 -31 -51.5t-49.5 -68.5t-67.5 -77t-85.5 -72t-104.5 -60h-1q-39 -128 -74 -224q-52 -142 -116 -253
q0 -1 -1.5 -3t-2.5 -3q-11 -21 -26 -44q-35 -54 -76.5 -95t-80.5 -63t-67 -33t-55 -17l1 1q2 0 2 1q-32 -8 -61 -8q-24 0 -43 4q-52 11 -84.5 48.5t-40.5 94.5q-6 50 7.5 106t48.5 117t104 121.5t164 108.5l10 5h1q76 38 206 92q3 1 8.5 4t8.5 4q10 32 14 47l6 21
q57 219 143 586q4 21 12 61q4 14 7 20v0q11 26 30 38q28 17 55 14t46 -27q18 -24 11 -62l-54 -255q-28 -131 -61 -254l-12 -49q-5 -18 -15 -56q98 55 174.5 136t145.5 218l7 14q24 56 26 61h39zM-139 -184q12 38 17 56q-17 -6 -46 -16.5t-105 -48.5t-136 -81h-1
q-17 -11 -41 -32q-67 -55 -108 -118q-3 -4 -8 -12t-8 -12q-28 -50 -37 -107q-2 -14 -3 -22l1 1q-1 -21 0.5 -40.5t3.5 -28.5l2 -9q29 -90 142 -64q77 22 149 119q33 45 66 110q25 53 52 125q35 93 60 180z" />
    <glyph glyph-name="k" unicode="k" horiz-adv-x="802" 
d="M875 437q-133 -325 -264 -408q-3 -2 -8 -5q-16 -9 -31 -14q-2 -1 -5 -1q-29 -9 -46 -10q-28 -3 -57 3q-61 8 -89.5 59t2.5 156q11 39 11 66q0 39 -17 67t-43.5 40.5t-45.5 17.5t-36 6h-8q-84 -134 -120 -247l-13 -72q-7 -45 -37 -65q-28 -19 -58 -16q-28 3 -48 28
q-15 20 -14 50q18 137 101 506q7 32 20.5 85t55.5 186.5t85 231.5q29 61 72 134q85 141 197 228q113 88 264 100q37 2 55 1q5 0 4 -5q-1 -2 -4 -3q-85 -17 -158 -56q-26 -14 -38 -23l-3 -2q-68 -48 -118 -117q-54 -74 -92 -155q-45 -96 -72 -173q-28 -81 -52 -171
q-23 -84 -36 -147l-7 -30q-6 -26 -17.5 -77.5t-17.5 -77.5l-33 -171q0 -1 -1 -3t-1 -3q51 86 87 138l18 24l6 9q46 63 77 97q46 46 91 70q83 45 160 14h1h1q1 -1 2 -1q20 -9 33 -21q24 -24 24 -59q0 -69 -86 -133q-60 -42 -171 -69q30 -5 53 -15t34.5 -20t18.5 -19t9 -15
l1 -6q9 -23 9 -64q0 -35 -21 -129q-2 -32 -2 -43q1 -12 3.5 -23t11 -24t21 -17.5t36 4.5t53.5 34q89 80 184 286q12 26 30 69h39zM267 437q44 0 103 15t109 48t50 73v2q-1 21 -18 35t-42 15h-6q-63 0 -132 -81q-3 -4 -26 -32q-18 -24 -48 -75h10z" />
    <glyph glyph-name="l" unicode="l" horiz-adv-x="432" 
d="M806 1564q5 0 4 -5q-1 -2 -4 -3q-84 -16 -157 -56q-30 -16 -39 -23l-3 -2q-68 -48 -118 -117q-54 -74 -92 -155q-45 -96 -72 -173q-28 -81 -52 -171q-23 -84 -36 -147l-7 -29v-1q-2 -7 -4 -18.5t-4 -18.5v-1q-3 -12 -9.5 -42t-10.5 -46q-2 -9 -6 -29q0 1 0.5 1t0.5 1
l-32 -161q-52 -298 -7 -323q34 -13 93 37q89 80 184 286q12 26 30 69h39q-133 -325 -264 -408q-3 -2 -8 -5q-16 -9 -31 -14q-2 -1 -5 -1q-29 -9 -46 -10q-22 -3 -47 1q-95 7 -115 117q-34 170 131 707q4 12 11 36t9 31h1q44 131 79 210q32 69 71 134q85 141 197 228
q113 88 264 100q37 2 55 1z" />
    <glyph glyph-name="m" unicode="m" horiz-adv-x="1316" 
d="M1389 437q-133 -324 -265 -408q-3 -2 -8 -5q-16 -9 -31 -14q-2 -1 -5 -1q-18 -5 -35 -8q-1 0 -2 -0.5t-2 -0.5h-1q-5 -1 -15 -1h-3l-1 -1h-2q-11 0 -29 2q-16 2 -23 3q-79 19 -97 109q-6 31 -3 68q4 69 30 163q34 122 44 161q20 77 19 122q-2 48 -46 48q-31 0 -62 -22
q-33 -24 -63 -55q-24 -25 -59 -73q-25 -34 -50 -76q-26 -45 -34 -63q-18 -38 -26 -56q-12 -72 -24 -132q-17 -83 -20 -102q-11 -48 -38 -67q-28 -19 -58 -16q-28 3 -51 29q-21 24 -13 69q3 21 17 80q15 65 27 116q17 71 26 128q11 71 14 120q3 53 -8 87q-10 33 -37 33
q-29 0 -60 -22q-30 -21 -62 -55q-24 -25 -59 -73q-30 -41 -51 -76q-24 -41 -43 -88q-16 -40 -27 -81q-11 -44 -17 -86q-7 -50 -16 -98q-8 -48 -37 -67t-59 -16q-29 3 -50 29q-20 24 -12 69q20 108 42 234q22 124 57 274q12 47 43 69q29 21 60 18q29 -3 47 -32q17 -29 5 -80
l-30 -143q25 44 56 88q37 52 68 85q40 42 82 64q45 24 100 24q50 0 79 -22q30 -23 45 -61q15 -39 18 -90q3 -55 -1 -105q36 61 84 128q50 70 98 106q63 44 134 44q86 0 115 -50q31 -53 28 -125q-3 -78 -26 -162q-21 -79 -42 -163q-2 -9 -10 -42v-6q-3 -30 -3 -55
q1 -16 5.5 -29.5t16.5 -27.5t38.5 -7t63.5 38q89 80 184 286q12 26 30 69h40z" />
    <glyph glyph-name="n" unicode="n" horiz-adv-x="856" 
d="M929 437q-133 -324 -265 -408q-3 -2 -8 -5q-16 -9 -31 -14q-2 -1 -5 -1q-17 -6 -37 -9q-1 0 -4 -0.5t-5 -0.5h-5q-2 0 -5 -0.5t-5 -0.5q-10 0 -28 2h-7q-41 6 -69 32t-36 47t-11 42q0 1 -0.5 5t-0.5 5q-2 15 0 49q4 74 29 163q6 22 22 77.5t23 83.5q20 74 18 122
q-1 48 -45 48q-27 0 -51 -14q-25 -15 -52 -40q-23 -22 -50 -57q-21 -27 -47 -64q-33 -51 -59 -102q-22 -43 -36 -91q-13 -43 -24 -97q-2 -10 -19 -114q-8 -48 -37 -67t-60 -16q-28 3 -49 29q-20 24 -12 69q20 108 42 234q25 142 56 274q12 46 42 69q28 21 60 18
q30 -3 48 -32q18 -28 6 -80l-12 -59l-18 -86q24 40 80 120q43 62 93 99q63 44 133 44q87 0 116 -50q30 -51 27 -125q-3 -78 -26 -162q-21 -79 -42 -163q-7 -29 -8 -37q0 -2 -1 -6t-1 -5q-3 -30 -3 -55q1 -12 3.5 -23t11 -24t21 -17.5t36 4.5t53.5 34q89 80 184 286
q12 26 30 69h40z" />
    <glyph glyph-name="o" unicode="o" horiz-adv-x="708" 
d="M743 437h39q-14 -34 -42 -95l-4 -9l-2 -4q-1 -1 -2.5 -5.5t-3.5 -7.5h-1q-23 -42 -56 -70q-25 -21 -51 -33q-3 -1 -8 -3.5t-22 -8.5t-32.5 -8.5t-39 -4.5t-41.5 4q-36 -64 -82 -112t-95 -68q-4 -2 -11 -5t-30 -6.5t-46 -2.5t-55.5 13t-62.5 36q-1 1 -4 3.5t-4 3.5h-1
q-31 27 -51 65q-30 56 -37 130q-8 88 24 189t97 171q96 102 222 102h13q38 -2 61 -8q6 -1 16 -3.5t35.5 -18.5t43.5 -41q39 -53 43 -139q7 -99 -34 -222q-2 -6 -18 -43l-1 -3q40 -7 75 1t58 27t37 35.5t24 34.5q1 3 3.5 7t3.5 6l3 6v1l1 1v0l8 16q12 26 30 69zM426 398
q24 12 53 12q9 0 29 -2q7 67 2 105q-6 68 -36.5 113t-88.5 47h-2h-1q-7 0 -10 -1q-15 -3 -33 -12.5t-44.5 -32t-56.5 -69t-56 -110.5q-46 -112 -51 -206.5t27 -144.5q21 -28 28 -34v0q5 -4 13 -9t28.5 -10.5t42.5 -3t52.5 21t60.5 53.5l1 1q0 1 2 2.5t2 2.5l2 2q0 1 1 2l2 2
q28 34 50 77q-24 14 -36 27q-10 10 -18 24l-8 21q-6 20 -3 49q0 1 0.5 2.5t0.5 2.5v1q7 45 47 67z" />
    <glyph glyph-name="p" unicode="p" horiz-adv-x="897" 
d="M930 437h39q-33 -78 -49 -110q-20 -41 -38 -65v-1l-1 -1l-1 -1v-1q-6 -8 -10 -13l-1 -1q-24 -27 -25 -28q-18 -16 -43 -32q-77 -45 -178 -45q-11 0 -37 2l-1 -1v1q-22 -26 -34 -38q-53 -53 -128 -80q-55 -20 -109 -20q-53 0 -82 23q-30 24 -33 55q-3 27 10 53
q15 30 52 51q72 40 202 16h1q5 0 8 -1q1 3 3 7t3 7l13 30q28 74 38 148q11 79 5 141q-6 64 -32 105t-73 38q-42 0 -84 -30q-41 -29 -69 -62q-42 -46 -66 -97q-20 -44 -31 -79q-24 -117 -61 -282q-7 -32 -20.5 -85t-55.5 -186.5t-85 -231.5q-34 -74 -71 -135
q-84 -140 -198 -228q-113 -88 -263 -100q-28 -1 -55 0q-2 0 -3.5 2t-0.5 4t3 2q85 17 158 56q26 14 38 23l4 2q66 47 117 117q57 78 93 155q42 88 71 173q20 60 29 90q29 103 58 226t43 194l14 71l46 237q0 1 0.5 2.5t0.5 2.5q1 4 2 12t2 12q14 78 16 88q8 49 36 67
q29 19 59 16q29 -3 50 -29q19 -24 12 -68q-2 -9 -4.5 -25t-3.5 -24v-1q0 -2 -1 -6.5t-2 -7.5q4 5 11 13.5t10 12.5q7 10 23 30q39 47 89 74q47 26 111 29q81 3 135 -37q53 -40 77 -103q25 -68 24 -142q-2 -59 -14 -107q-17 -79 -62 -145q110 -3 185 48q1 0 3 2t3 2
q44 32 88 120q2 4 5 10.5t5 9.5q12 26 30 69zM389 78q38 29 69 87l-1 1q-115 21 -177 -12q-22 -12 -35 -31l-1 -1q-3 -5 -5 -12t-2.5 -18.5t9 -23.5t28.5 -21q13 -5 28 -5q39 0 87 36z" />
    <glyph glyph-name="q" unicode="q" horiz-adv-x="929" 
d="M1004 437q-18 -45 -41 -94l-21 -46l-1 -1q-39 -81 -93 -145q-63 -75 -135 -107l-8 -3l6 -8q48 -75 72 -196q2 -8 5.5 -23t10.5 -61t10.5 -91t0.5 -106.5t-15 -114.5q-10 -56 -32 -98v0q-19 -37 -47 -60q-8 -7 -22 -15q-63 -32 -131 7q-6 3 -7 4q-50 34 -77 89
q-33 65 -44 165q-10 91 -7 176v0q0 5 1 15t1 15q4 96 18 195q14 115 37 240l-1 14q-5 -9 -15 -25q-7 -11 -21 -35q-38 -50 -84 -81t-107 -40q-93 -12 -153 33q-61 46 -86 120q-26 76 -20 167q6 93 46 173q42 83 113 140q74 59 181 69q39 3 71 -5q35 -9 62 -33q42 -36 59 -89
q17 -54 17 -107q10 49 26 114l13 52q10 31 34 50q42 29 83 13q30 -11 39 -43q5 -21 -2 -54q-5 -19 -14 -60t-14 -62q-20 -81 -36 -162l-13 -65l-14 -74h1l-13 -77q20 -12 35 -26q1 -1 5 -4.5t6 -5.5q1 1 4 2t4 1q15 6 31 15v1q1 0 2.5 1t2.5 1q6 4 20 14q72 52 131 149l8 14
q30 56 49 99q12 26 30 69h39zM513 418q2 59 -5 103q-7 47 -26 85q-17 35 -50 55t-76 16q-59 -6 -102 -56q-44 -51 -69 -124q-27 -78 -34 -156q-7 -84 3 -153q10 -67 41 -112q30 -44 81 -36q39 6 82 39q39 31 64 66q41 61 63 131t28 142zM752 -188q-23 135 -79 212
q-11 -2 -33 -2q-12 0 -19 1q-64 -344 -58 -531q0 -8 3 -36t16 -73.5t32 -67.5q22 -22 45 -18q25 7 43 27l9 9q28 36 44 111q16 87 15.5 169t-9.5 141z" />
    <glyph glyph-name="r" unicode="r" horiz-adv-x="690" 
d="M763 437q-133 -325 -264 -408q-3 -2 -8 -5q-15 -9 -32 -14q-2 -1 -4 -1q-2 -1 -6.5 -2t-6.5 -2q-15 -5 -33 -6q-3 0 -8.5 -0.5t-7.5 -0.5q-65 3 -99 36q-20 20 -27 32q-17 28 -24 60q-13 59 -7 127q5 64 22 140q17 77 32 128q19 64 30 95l12 27q-56 -12 -117 -12
q-26 0 -50 3q-12 2 -17 3h-2q-35 -113 -91 -243h-40q39 87 82 209q3 6 13 43q-1 0 -3.5 1t-3.5 1q-26 9 -47 23q-17 13 -33 32q-19 25 -22 60q0 19 6 33v0l4 8q8 13 20 20.5t20 8.5l8 1q26 5 54 -14q8 -4 13 -10l1 -1l2 -2l2 -2t1 -2v-1l1 -1q36 -48 22 -131q41 -6 85 -2
q67 7 127 28q24 10 50 16q25 6 50 -9q17 -11 25 -35q7 -22 -5 -57q-6 -17 -24 -71q-10 -31 -32 -115q-16 -60 -30 -133q-13 -67 -17 -111q-11 -77 12 -116q13 -22 34 -22q33 0 80 39q89 80 184 286q12 26 30 69h39z" />
    <glyph glyph-name="s" unicode="s" horiz-adv-x="528" 
d="M561 437h39q-20 -47 -42 -96q0 -1 -2 -4t-2 -5q-24 -47 -64 -96q-81 -98 -198 -144q6 -75 -41 -152q-12 -20 -16 -24q-86 -112 -224 -110q-44 5 -70 29q-17 18 -21 48q-1 4 -1 12q3 63 86 120q29 20 64.5 37t56.5 24l21 7l-8 27q-7 22 -22 46q-14 24 -28 43
q-43 73 -60.5 142.5t-14.5 115.5t19 87.5t28 59.5t24 30q33 33 70 55q50 26 93 26q47 1 91 -18q83 -42 62 -119q-11 -40 -49 -80q-20 -16 -41 -13t-38 15q-5 3 -3 11q2 5 5 7q24 13 42.5 43.5t26.5 62.5q2 24 -15 30t-35 0l-18 -5q-37 -15 -64.5 -53t-40.5 -92t4.5 -128.5
t67.5 -151.5q32 -50 43 -96q101 41 176 131q19 23 35 47.5t23 37.5l6 13l10 23q9 19 25 57zM141 -35q12 36 9 76v0l1 5q-93 -33 -151 -84q-35 -29 -43 -60q-3 -9 -1 -21q2 -7 6 -15q5 -8 13 -15q2 -2 5 -4l1 -1h1q1 -1 2 -1q2 -1 3 -1q17 -6 36 -4q48 5 86 61q13 17 27 50
q0 1 0.5 1t0.5 1t0.5 1t0.5 1v1z" />
    <glyph glyph-name="t" unicode="t" horiz-adv-x="446" 
d="M326 871q-3 -9 -8.5 -28.5t-8.5 -27.5l-42 -140q-11 -36 -30 -100q-39 -132 -65 -245q-9 -39 -15 -70q-36 -203 21 -216l1 -1h2h2h3q32 0 79 39q88 79 183 286q19 40 31 69h39q-133 -324 -265 -408h1q-3 -2 -8 -5q-15 -9 -32 -14q-2 -1 -4 -1q-39 -8 -68 -9t-52 10.5
t-38.5 24.5t-26.5 33t-16.5 35.5t-9.5 33.5q-1 2 -2 6.5t-1 6.5q-9 62 2 146q11 86 31 169q19 77 47 169l50 163q4 13 12.5 37.5t12.5 36.5h-154q-29 0 -29 18t29 18h165l31 87q14 48 50 71q33 22 65 17q33 -6 48 -37q17 -34 -1 -91l-16 -47h165q21 0 21 -18t-21 -18h-178z
" />
    <glyph glyph-name="u" unicode="u" horiz-adv-x="827" 
d="M901 437q-133 -325 -264 -408q-3 -2 -8 -5q-16 -9 -31 -14q-2 -1 -5 -1q-88 -23 -142 12l-9 6q-30 23 -45 60q-14 35 -17 85q-3 46 5 101q-6 -11 -17.5 -34.5t-17.5 -35.5q-19 -36 -37 -64q-35 -53 -73 -92q-40 -42 -106 -45q-70 -5 -104 31q-33 35 -44 95t-2 132
q9 78 25 145q17 71 36 132q19 60 30 93q15 47 48 68q32 21 62 16q29 -4 45 -36q17 -32 -1 -85q-13 -39 -23 -72q-5 -17 -31 -111q-14 -51 -29 -126q-15 -73 -20 -119q-6 -51 -1 -89q5 -36 29 -36q30 0 63 33q32 32 66 83q73 114 113 232q26 77 81 242q15 48 47 68
q31 21 62 16q29 -4 46 -36q16 -31 -2 -85q-2 -6 -22 -72q-8 -27 -31 -112q-13 -48 -31 -126q-8 -38 -11 -56q-27 -171 26 -183l1 -1h2h2h3q32 0 79 39q89 80 184 286q12 26 30 69h39z" />
    <glyph glyph-name="v" unicode="v" horiz-adv-x="638" 
d="M686 373q-2 -4 -5 -11q-2 -5 -6 -14.5t-19 -33t-32 -42t-46 -34.5t-60 -18q-2 0 -6.5 -0.5t-6.5 -0.5q-6 0 -18 2q-40 6 -70 32q-1 1 -3.5 3t-3.5 3q-125 -216 -243 -251h-2l-1 -1q-10 -3 -28 -5q-70 -5 -104 31q-33 35 -44 94q-11 60 -2 132q10 78 25 144q17 72 36 131
q7 21 16.5 52t12.5 41q15 45 49 67q32 21 61 16t45 -35q15 -29 -2 -85q-2 -6 -22 -72q-8 -27 -31 -110q-13 -46 -29 -126q-15 -72 -20 -118q-3 -21 -3 -38q0 -43 14 -63q10 -11 24.5 -11.5t31 10t33.5 25.5t35 36.5t33 42t31 44t25.5 38.5t18.5 30q2 4 5.5 10t4.5 7
q-7 12 -12 24t-6 19l-2 6q-10 30 -14 68q-11 112 20 206q18 55 47.5 81t56.5 24t49 -21q48 -48 12 -175q-9 -32 -14 -45q-1 0 -1 -1q-10 -30 -22 -54q-28 -65 -65 -134q13 -15 24 -22q2 -2 6 -4.5t16 -7t25 -6t32 3.5t38 18q20 13 37 33.5t24 34.5l7 14l6 12l5 11
q9 19 25 57h39q-11 -28 -27 -64zM405 338q5 9 34 67q19 39 36 81q15 38 25 83q9 39 1 70q-10 39 -32 36q-23 -3 -40 -31q-15 -23 -27 -68q-10 -38 -13 -83q-3 -42 0 -84q3 -38 16 -71z" />
    <glyph glyph-name="w" unicode="w" horiz-adv-x="1032" 
d="M1078 373q-2 -4 -5 -11q-2 -5 -6 -14.5t-19 -33t-32 -42t-46 -34.5t-60 -18q-2 0 -6.5 -0.5t-6.5 -0.5q-6 0 -18 2q-40 6 -70 32q-3 2 -7 6q-125 -216 -243 -251h-2l-1 -1q-10 -3 -28 -5q-70 -5 -104 31q-33 35 -44 94q-9 57 -2 126q-20 -38 -30 -56q-21 -40 -33 -58
q-35 -53 -73 -92q-39 -41 -106 -44q-70 -5 -104 31q-33 35 -44 94q-11 60 -2 132q9 78 25 145q17 71 36 132q19 60 30 93q15 47 48 68q32 21 62 16q29 -4 45 -36q17 -32 -1 -85q-13 -39 -23 -72q-5 -17 -31 -111q-14 -51 -29 -126q-15 -73 -20 -119q-6 -51 -1 -89
q5 -36 29 -36q30 0 63 33q36 36 66 83q43 66 72 130q25 54 45 113q0 1 0.5 2t0.5 2q17 72 36 131q6 18 16 50t14 43q15 46 48 67q32 21 61 16t45 -35t-1 -85q-13 -39 -23 -72q-6 -19 -17 -60t-13 -50q-17 -60 -30 -126q-15 -72 -20 -118q-3 -21 -3 -38q0 -43 14 -63
q10 -11 24.5 -11.5t31 10t33.5 25.5t35 36.5t33 42t31 44t25.5 38.5t18.5 30q2 4 5.5 10t4.5 7q-7 12 -12 24t-6 19l-2 6q-10 30 -14 68q-11 112 20 206q18 55 47.5 81t56.5 24t49 -21q49 -49 13 -175q-6 -21 -15 -45q-1 0 -1 -1q-10 -30 -22 -54q-28 -65 -65 -134
q13 -15 24 -22q2 -2 6 -4.5t16 -7t25 -6t32 3.5t38 18q20 13 37 33.5t24 34.5l7 14l6 12l5 11q9 19 25 57h39q-11 -28 -27 -64zM797 338q5 9 34 67q19 39 36 81q15 38 25 83q9 39 1 70q-10 39 -32 36q-23 -3 -40 -31q-15 -23 -27 -68q-10 -38 -13 -83q-3 -42 0 -84
q3 -38 16 -71z" />
    <glyph glyph-name="x" unicode="x" horiz-adv-x="839" 
d="M913 437q-115 -281 -230 -382q-2 -2 -5.5 -5t-15.5 -12t-25.5 -16.5t-34 -15.5t-41 -12t-47.5 -3.5t-54 8.5q-28 7 -50.5 21t-31.5 24l-9 11q-39 45 -58 121l-31 -42q-173 -241 -336 -246q-13 0 -13 12q0 5 5.5 13t16.5 10q40 5 80 31.5t80.5 75.5t72 94.5t75.5 116.5
l31 47q-7 71 -4 239q2 115 -41 142v1q-4 2 -12 4l-13 1q-28 -4 -60 -49t-50 -88l-18 -44q-17 -45 -41 -100h-40q30 68 56 136v-1q37 99 82 146q13 13 25 21l1 1q1 0 1 0.5t1 0.5q31 20 67.5 21.5t57.5 -6.5l22 -8q13 -5 26 -15t30.5 -30.5t32.5 -58t23 -87.5l22 27
q122 154 241 163q20 0 21 -16q-1 -14 -14 -17q-54 -8 -112.5 -72.5t-127.5 -175.5l-21 -33v-11q-2 -119 1 -180q2 -33 3 -52q1 -14 4.5 -29t14.5 -37.5t27.5 -35.5t47.5 -13.5t70 19.5q2 1 11 7q8 5 22 15q1 1 3.5 2.5t4.5 3t4 3.5t6.5 6t6.5 6v1q83 83 170 273q19 40 31 69
h39z" />
    <glyph glyph-name="y" unicode="y" horiz-adv-x="778" 
d="M850 437q-28 -70 -55 -124q-1 -2 -2 -5h-1v-1l-9 -18h-1q-14 -25 -31 -51.5t-49.5 -68.5t-67.5 -77t-85.5 -72t-104.5 -60h-1q-39 -128 -74 -224q-52 -142 -116 -253q0 -1 -1.5 -3t-2.5 -3q-11 -21 -26 -44q-35 -54 -76.5 -95t-80.5 -63t-67 -33t-55 -17q0 1 1 1t2 1
q-32 -8 -61 -8q-24 0 -43 4q-52 11 -84.5 48.5t-40.5 94.5q-6 50 7.5 106t48.5 117t104 121.5t164 108.5l10 5h1q76 38 206 92q3 1 8.5 4t8.5 4q10 32 14 47l6 21q9 33 57 230q-3 -6 -9.5 -18.5t-10.5 -18.5q-1 -3 -25 -41q-31 -48 -72 -91q-39 -41 -104 -44q-69 -4 -103 31
q-33 35 -44 93q-10 60 -1 130q10 79 25 143q20 84 35 130q26 80 30 92q15 47 47 67q32 21 61 16q27 -4 44 -36q16 -29 -1 -84q-5 -16 -22 -71q0 -1 -30 -109q-17 -62 -30 -124q-12 -58 -19 -118q-6 -54 -2 -88q4 -35 30 -35q29 0 62 33q35 35 65 82q38 57 71 128
q30 66 50 128q14 60 38 161q2 11 6.5 31.5t6.5 29.5q4 14 7 20v0q11 26 30 38q28 17 55 14t46 -27q18 -24 11 -62l-54 -255q-28 -131 -61 -254l-12 -49q-5 -18 -15 -56q98 55 174.5 136t145.5 218l7 14q24 56 26 61h39zM244 -184q12 38 17 56q-17 -6 -46 -16.5t-105 -48.5
t-136 -81h-1q-17 -11 -41 -32q-67 -55 -108 -118q-3 -4 -8.5 -12t-7.5 -12q-28 -50 -37 -107q-2 -14 -3 -22l1 1q-1 -21 0.5 -40.5t3.5 -28.5l2 -9q29 -90 142 -64q77 22 149 119q33 45 66 110q25 53 52 125q34 93 60 180z" />
    <glyph glyph-name="z" unicode="z" horiz-adv-x="862" 
d="M935 437q-15 -39 -38 -86v-1q-4 -7 -11 -21.5t-10 -21.5l-9 -19q-1 -2 -2 -4.5t-2 -3.5v-1v-1q-87 -173 -246 -292q-28 -20 -50 -34q40 -103 21 -214q-22 -119 -85 -211q-66 -95 -167 -155q-20 -12 -38 -20v0q-38 -18 -75 -26q-85 -20 -136.5 -12.5t-73.5 26.5l-22 18
q-33 31 -43 74q-12 49 5 107q16 57 62 107q37 44 88 81q59 42 110 73q38 23 116 65q59 31 108 60q-9 43 -20 71q-7 17 -14 30q-2 5 -6 12l-12 18h-1q-13 16 -33 32q-51 -30 -98.5 -44.5t-69.5 -13.5l-22 1q-18 2 -26 5q-12 3 -21 11q-17 15 -5.5 37t43.5 42q18 12 50 22h1
q1 1 2 1h1q10 3 21 5h-1q39 7 78 3q87 69 138 189q6 13 16 41q7 22 8 29l2 7q8 32 9 61q7 99 -38 147l-7 7q-37 32 -82 35q-45 2 -87 -16t-73 -49t-47.5 -52t-29.5 -41q-12 -20 -23.5 -42t-17.5 -35l-5 -12l-14 -32h-39v1l1 1q0 1 1 2q1 3 8.5 21.5t11.5 27.5q2 6 8 18t8 18
q4 9 11 23.5t32.5 52.5t55 67.5t77 55.5t99.5 29q12 1 38 1q59 -3 108 -22q6 -2 18 -8q51 -27 81 -77q20 -36 29 -77q9 -45 6 -91q-15 -162 -201 -313q19 -11 22 -13q65 -36 107 -98q0 -1 1.5 -2t2.5 -2q1 -2 3 -5.5t5 -9t5 -9.5q155 101 249 257q36 64 64 126q12 26 30 69
h40zM426 -271q17 89 14 152q-14 -7 -38.5 -19t-89 -48.5t-118 -72.5t-108 -84.5t-76.5 -89.5q-29 -54 -26.5 -103.5t32 -78t78.5 -37.5t114 18q27 13 57 41q64 64 103 145q40 82 58 177z" />
    <glyph glyph-name="braceleft" unicode="{" horiz-adv-x="516" 
d="M469 833q8 1 12.5 -5t2.5 -14q-5 -16 -22 -18q-53 -6 -92 -36q-51 -39 -73 -121q-10 -40 -13 -85q-3 -51 -9 -72q-10 -40 -43 -68q-32 -27 -69 -39l-2 -9q30 -12 48 -39q17 -25 6 -68q-8 -26 -29 -72q-24 -52 -33 -85q-24 -87 7 -125q24 -30 73 -36q17 -2 12 -18
q-6 -21 -25 -19q-93 6 -132 51q-44 51 -15 156q11 41 36 93q26 54 30 69q9 34 -9 55q-14 16 -45 21q-8 2 -12 9t0 16q7 16 24 18q34 5 56 21q29 21 38 55q4 16 7 70q3 49 14 92q27 102 97 152q61 45 160 51z" />
    <glyph glyph-name="verticalbar" unicode="|" horiz-adv-x="212" 
d="M106 -114q-15 0 -25.5 11t-10.5 26v828q0 15 10.5 26t25.5 11t26 -11t11 -26v-828q0 -15 -11 -26t-26 -11z" />
    <glyph glyph-name="braceright" unicode="}" horiz-adv-x="518" 
d="M417 392q16 -2 14 -18q-1 -9 -8.5 -16t-16.5 -9q-34 -5 -57 -21q-29 -21 -38 -55q-4 -16 -7 -69q-3 -55 -13 -93q-29 -105 -99 -156q-61 -45 -160 -51q-8 -1 -12.5 5t-2.5 14q5 16 22 18q53 6 92 36q50 38 74 125q10 40 13 85q3 47 10 72q10 41 42 68t69 39l2 9
q-29 11 -47 39q-17 25 -6 68q8 26 29 72q22 47 32 85q22 83 -8 121q-24 30 -73 36q-17 2 -12 18q6 21 25 19q93 -6 132 -51q44 -52 17 -152q-9 -34 -37 -92q-26 -53 -30 -70q-9 -34 9 -55q14 -17 45 -21z" />
    <glyph glyph-name="asciitilde" unicode="~" horiz-adv-x="731" 
d="M660 416q15 -13 -1 -30q-30 -34 -75 -69q-58 -44 -123 -44q-63 0 -129 51q-67 52 -109 52q-35 0 -69 -23q-23 -15 -49 -46q-16 -19 -33 -8q-15 10 -1 29q33 44 78 77q50 38 107 38q58 0 126 -51t110 -51q43 0 75 22q28 19 57 49q8 8 17.5 9.5t15.5 -3.5z" />
    <glyph glyph-name="nonbreakingspace" unicode="&#xa0;" horiz-adv-x="727" 
 />
    <glyph glyph-name="exclamdown" unicode="&#xa1;" horiz-adv-x="428" 
d="M307 780q26 -2 40 -27t8 -59l-4 -27q-6 -34 -28 -57.5t-48 -21.5t-40.5 27t-8.5 59l5 26q6 35 28.5 58t47.5 22zM247 436q13 -1 20.5 -13.5t5.5 -28.5l-75 -660q-4 -36 -27 -61t-50 -23q-26 2 -40 28t-7 61l135 658q4 17 14.5 28.5t23.5 10.5z" />
    <glyph glyph-name="cent" unicode="&#xa2;" 
d="M411 609q61 -12 81 -34q21 -23 8 -57q-10 -20 -32 -25q-1 0 -3 -0.5t-3 -0.5q-23 0 -28 22q-3 19 -11 32q-13 19 -36 22l-108 -403q30 3 60 18q23 11 45 28q22 16 32 -1q9 -16 -9 -30q-42 -32 -70 -47q-38 -19 -74 -25l-19 -71q-7 -26 -33 -26q-11 0 -17 7.5t-3 18.5
l18 67q-90 3 -122 68q-31 63 1 181q18 69 56 123q38 55 89 88t111 42l18 70q3 11 13 18.5t21 7.5t16.5 -7.5t2.5 -18.5l-17 -67h13zM226 167l107 400q-51 -15 -91 -67q-39 -50 -62 -135q-25 -92 -13 -140q12 -47 59 -58z" />
    <glyph glyph-name="sterling" unicode="&#xa3;" horiz-adv-x="700" 
d="M645 572q1 -17 -10 -30.5t-28 -15.5q-18 -3 -32.5 8.5t-17.5 29.5q-5 27 -18 43q-26 32 -74 32q-50 0 -95 -34q-43 -33 -55 -79q-14 -54 -10 -135h102q17 0 27.5 -13t5.5 -30q-7 -25 -33 -25h-106q3 -23 -2 -41q-10 -40 -42 -85q-33 -47 -88 -92q37 10 70 10q42 0 83 -11
q73 -19 103 -19q21 0 52 9q17 5 32 -4.5t16 -27.5q2 -28 -24 -38q-13 -5 -46 -13q-25 -6 -48 -6q-12 0 -38 4q-24 6 -56 17q-37 13 -56 17q-28 4 -43 4q-34 0 -74 -12q-19 -5 -31 -10q-18 -7 -34.5 3t-18.5 29q-3 26 18 39q40 23 72 58q43 44 61 111q8 30 8 58h-46
q-17 0 -27.5 13t-5.5 30q7 25 33 25h45q-1 41 1 76q1 21 8 46q26 97 111 151q68 43 151 43q84 0 126 -46q31 -34 34 -89z" />
    <glyph glyph-name="currency" unicode="&#xa4;" 
d="M510 689q14 -23 -6 -41l-50 -44q17 -54 4 -110q-14 -61 -53 -110l24 -37q17 -28 -7 -50q-14 -13 -31.5 -10t-27.5 19l-16 26q-50 -33 -102 -32q-51 1 -87 37l-41 -37q-11 -11 -26.5 -8.5t-22.5 15.5q-14 23 6 41l50 44q-16 52 -3 111q14 60 53 109l-24 37q-8 12 -6 26
t12 24q14 13 32 10.5t28 -18.5l16 -26q49 32 101 31q51 -1 87 -37l41 37q11 10 26 8t23 -15zM426 494q13 58 -13 99.5t-76 43.5q-39 1 -75 -23.5t-58 -65.5q-12 -21 -18 -47q-5 -26 -4 -42q2 -44 27 -72.5t65 -29.5q50 -2 94.5 38.5t57.5 98.5z" />
    <glyph glyph-name="yen" unicode="&#xa5;" horiz-adv-x="731" 
d="M630 712q25 0 35.5 -23t-5.5 -42l-233 -278h118q17 0 28 -13.5t7 -30.5q-7 -27 -35 -27h-171l-18 -69h154q17 0 27 -13t6 -29q-7 -25 -33 -25h-172l-42 -156h-87l42 156h-156q-17 0 -27 13t-5 29q7 25 32 25h174l18 69h-153q-17 0 -27.5 14t-6.5 31q6 26 34 26h137
l-86 283q-7 22 7 41t37 19q34 0 44 -33l64 -216v-1q6 -21 28 -25t35 13q4 6 14 18l185 229q12 15 31 15z" />
    <glyph glyph-name="section" unicode="&#xa7;" 
d="M72 45q0 14 9 25t22 12h2q15 2 27 -7.5t14 -24.5q3 -32 14 -45q18 -24 58 -25q38 -1 66 22q27 22 34 53q4 22 -5 42q-18 37 -104 113q-51 46 -64 65q-17 24 -24 55t0 65q9 41 40 77q19 21 40 32q12 7 16.5 20.5t-0.5 26.5q-5 10 -8 24q-5 21 2 55q12 58 60 98t109 39
q70 -1 102 -43q24 -31 24 -82q0 -14 -9.5 -25t-23.5 -12h-2q-15 -1 -26 9t-13 25q-1 25 -11 39q-14 21 -49 23q-32 1 -61 -21q-27 -21 -33 -48q-5 -24 4 -43q15 -31 94 -101q56 -51 67 -65q21 -27 27 -56q6 -30 -1 -62q-13 -52 -47 -85q-9 -9 -32 -22q-13 -7 -17 -21.5
t3 -27.5q7 -12 10 -28q7 -31 0 -67q-9 -40 -35 -73q-27 -34 -67 -52q-39 -17 -81 -16q-72 1 -105 45q-26 35 -26 87zM254 279q19 -16 53 -48q23 -21 47 -4q12 9 23 22q20 23 24 43q6 25 -8 54q-13 28 -68 78q-27 24 -44 41q-23 23 -48 4q-10 -7 -25 -22q-17 -18 -23 -45
q-6 -29 5 -53q12 -26 64 -70z" />
    <glyph glyph-name="dieresis" unicode="&#xa8;" horiz-adv-x="395" 
d="M110 608q-18 0 -31 13t-13 31v8q0 18 13 31.5t31 13.5t31 -13.5t13 -31.5v-8q0 -18 -13 -31t-31 -13zM285 608q-18 0 -31 13t-13 31v8q0 18 13 31.5t31 13.5t31 -13.5t13 -31.5v-8q0 -18 -13 -31t-31 -13z" />
    <glyph glyph-name="copyright" unicode="&#xa9;" horiz-adv-x="821" 
d="M566 519q49 -3 53.5 -39t-29.5 -74l-3 -3l-2 -2t-1 -2l-5 -5q-4 -6 -10 -10q-7 -7 -23 -19q-21 -15 -50 -31q-49 -25 -111 -33q-10 -2 -15 -2q-14 -49 -5 -93t42 -63q33 -16 73 -7h1q1 1 2 1q26 7 45 24q10 9 18 21q3 4 7 12q1 2 2.5 6.5t2.5 6.5q3 9 5 28q0 19 -3 28
q-6 17 -14 24q-3 3 -11 7q-6 3 -14 3q-12 1 -26 -4q-9 -5 -11 -6l-10 -10q-7 -9 -10 -24q-2 -11 1 -25q1 -1 1 -3t1 -3t2 -2.5t1 -2.5q3 -5 8 -8q2 -1 10 -4h5h6q10 0 10 -12q0 -9 -9 -9h-9q-2 0 -8 2q-11 4 -15 8q-5 4 -11 14q-1 1 -2 3.5t-2 4.5t-1 4t-1 4q-3 16 2 32
q5 17 15 27q2 2 12 10q6 5 13 6q10 2 15 2h14q7 -1 14 -5q4 -2 12 -8q10 -10 15 -24q2 -5 4 -15q1 -5 1 -14q0 -10 -1 -15q-1 -2 -1 -7t-1 -8q-8 -31 -27 -54q-8 -10 -22 -21l-12 -9q-4 -3 -14 -7q-1 0 -4 -2t-5 -2v0q-11 -4 -20 -5l-15 -3h-3l-4 -1h-6q-30 -1 -53.5 11.5
t-31.5 25.5l-9 13q-33 55 -8 148h-4q-32 2 -58 10q-25 8 -52 28q-14 10 -21 20l-9 12q-6 8 -8 13q-13 26 -10 59q3 32 20 56q9 13 22 22l12 9q4 3 14 7q8 4 30 8q17 3 30 2q32 -2 60 -17q15 -8 25 -17l11 -11q4 -4 10 -12q11 -16 18 -31q68 68 145 62zM351 354q23 49 53 85
q-2 6 -5 13l-1 3q0 1 -1 1l-1 2l-3 6q-4 8 -7 12q-16 23 -38 36q-23 14 -52 17q-14 1 -27 0q-9 -1 -27 -7q-14 -4 -24 -12q-10 -7 -20 -19q-8 -10 -13 -24q-6 -18 -7 -27q-3 -31 8 -55l6 -12l9 -12q9 -11 20 -20q7 -6 23 -16q7 -4 27 -11q18 -6 27 -8q1 0 29 -3
q1 0 2.5 -0.5t2.5 -0.5q9 31 14 43zM589 413q29 35 24 67t-46 33q-73 1 -136 -84q9 -33 10 -57q0 -5 -4 -9.5t-9 -4.5q-14 0 -14 12v1q0 10 -2 28q-18 -30 -30 -63l-3 -7q-7 -20 -8 -26q10 0 14 1q29 3 56 12q39 13 54 21q30 16 49 31q8 6 21 19q1 1 5 4.5t6 5.5q1 1 2 3
t2 3l3 3v0v0l4 5zM747 487q19 -63 13 -138t-37 -138q-31 -64 -84 -112q-52 -48 -119 -73q-69 -26 -140 -26q-73 0 -133 25q-61 25 -106 72t-66 112q-20 63 -14 140q6 75 39 141t85 112t119 72q65 25 137 25t136 -26q61 -25 106 -74q45 -50 64 -112zM703 349q7 86 -23 157
q-29 68 -95 108q-64 39 -148 39q-85 0 -155 -39q-72 -40 -114 -109q-43 -70 -50 -156q-7 -88 24 -157q32 -69 94 -108q63 -39 148 -39q84 0 155 39q69 38 113 109t51 156z" />
    <glyph glyph-name="guillemotleft" unicode="&#xab;" horiz-adv-x="487" 
d="M266 523l-118 -164l43 -170q4 -13 -4.5 -24t-22.5 -10q-18 0 -25 18l-69 188l159 191q7 8 19 8q14 -1 20 -13.5t-2 -23.5zM413 518l-119 -163l45 -168q4 -14 -5 -25.5t-23 -10.5q-19 0 -26 19l-67 187l157 190q7 9 19 9q14 -1 20.5 -13.5t-1.5 -24.5z" />
    <glyph glyph-name="softhyphen" unicode="&#xad;" horiz-adv-x="0" 
 />
    <glyph glyph-name="registered" unicode="&#xae;" horiz-adv-x="501" 
d="M327 629q23 -5 35 -27q5 -11 4 -27q-2 -24 -23 -41q-4 -3 -12 -7q-2 -1 -5.5 -2t-5.5 -1q-10 -2 -14 -2q-10 0 -15 1q13 -9 25 -30.5t20.5 -35t18.5 -9.5q5 2 6 5l1 1q1 -1 1 -2q-4 -13 -18 -20q-15 -7 -26.5 12.5t-22 47t-21.5 33.5q-1 0 -1 1l-2 1h-2l-1 1l-6 -18
l-2 -4q-10 -24 -21 -37q-8 -10 -12 -14l-2 -2h-1q-21 -19 -48 -22q-11 -1 -18.5 0t-12.5 2l-4 1q-35 11 -43.5 47.5t13.5 69.5t64 35h6q1 1 2.5 3t2.5 3q11 18 39 30q31 13 72 10q14 9 35 11h1v0q1 0 1 -1t-2 -1v-1q-6 0 -12 -3q-6 -2 -8 -4q0 -1 -2 -2q6 0 16 -2zM181 557
q-1 -3 -1 -10q0 -6 1 -9l3 -9q2 -3 6 -7l2 -1q1 -1 2 -1l1 -1l1 -1h2h1q6 -2 9 -2q7 0 10 1q6 18 1 36.5t-21 25.5v0v0l-1 1h-2q-2 1 -4 1l-7 -15v-1l-1 -1l-1 -1v-2v-2q0 -1 -0.5 -1t-0.5 -1zM248 544q17 62 45 84l2 1q-17 2 -36 -2q-40 -9 -63 -37q0 -1 -1.5 -3t-2.5 -3
l7 -2q17 -7 23 -25t1 -38q6 3 11 10q6 7 9 17q0 1 0.5 2.5t0.5 2.5t0.5 2.5t0.5 2.5q0 7 -1 10q-2 6 -5 9q-4 4 -7 5q-6 2 -9 2h-4h-3h-1l-1 -1q-6 0 -6 6q0 3 5 6h3h3q4 0 6 -1q1 0 2.5 -1t2.5 -2t2.5 -2t2.5 -1q5 -3 8 -8q2 -3 4 -11v-11v-5q0 -1 -0.5 -2.5t-0.5 -2.5
q-3 -8 -4 -10l-6 -9q-4 -6 -7 -8q-1 -1 -3.5 -2t-3.5 -1q-11 -41 -47 -42q-15 0 -24 5q-3 2 -6 5q-23 21 -6 53q1 3 5 3q2 0 3 -1h1q5 -2 2 -7q-10 -18 -3 -34q0 -5 4 -9q2 -3 5 -5h1v0l1 -1q5 -3 18 -3q28 1 41 34q-6 -2 -9 -2q-4 0 -10 2h-1q-1 1 -2 1t-3 1q-1 0 -2.5 1
t-2.5 1q-5 3 -8 8q-6 8 -6 10q-2 8 -2 11v6v5l1 1v2v3v1l1 1l1 1v2t1 2.5t1 2.5t1 2.5t1 2.5t1 2t1 2h-4q-33 -1 -53 -33t-14.5 -67t37.5 -45v0h1q8 -3 19 -3h3h4q19 2 29 9q8 6 15 16t10 17l3 7q3 8 9 26l1 3q1 4 3.5 14.5t4.5 16.5zM346 579q2 18 -7.5 31.5t-31.5 16.5
q-6 -6 -9 -11q-4 -7 -10 -23t-16 -54q0 -1 -0.5 -2.5t-0.5 -2.5q12 -6 24 -6q19 0 33.5 13.5t17.5 37.5zM428 600q11 -36 8 -76q-3 -38 -21 -76q-17 -35 -46 -61q-32 -29 -65 -41q-37 -14 -77 -14q-39 0 -73 14q-35 14 -58 39q-24 25 -36 62q-11 34 -8 77q3 41 21 77
q17 34 47 61t65 40q37 14 76 14q36 0 74 -15q32 -13 58 -40q24 -26 35 -61zM404 524q4 47 -12 86q-16 37 -52 59t-82 22q-44 0 -85 -22q-37 -20 -62 -59q-22 -35 -27 -86q-5 -48 12 -86q17 -39 52 -60q34 -21 81 -21q46 0 85 21q38 20 62 60q24 38 28 86z" />
    <glyph glyph-name="degree" unicode="&#xb0;" horiz-adv-x="335" 
d="M75 505q-24 39 -12 89q12 52 51 86q40 35 82 34q45 -2 67 -38q23 -38 11 -88q-12 -51 -51 -87q-38 -36 -82 -34t-66 38zM135 645q-22 -19 -30 -52q-7 -31 6 -54q14 -23 41 -23t50 20q22 19 30 53q8 31 -6 54t-40 23q-27 0 -51 -21z" />
    <glyph glyph-name="plusminus" unicode="&#xb1;" horiz-adv-x="579" 
d="M280 212q-15 1 -24 13t-6 26l32 141l-106 3q-17 1 -28 15t-7 31q7 29 37 29l121 -4l34 152q5 25 32 25q15 -1 24 -13t6 -26l-32 -139l106 -3q17 -1 28.5 -15t7.5 -31q-3 -13 -13.5 -21t-24.5 -8l-120 3l-35 -153q-5 -25 -32 -25zM439 141q-7 -18 -38 -18l-291 5
q-18 0 -28.5 9t-6.5 20q7 19 37 19l291 -5q18 0 29 -9.5t7 -20.5z" />
    <glyph glyph-name="acute" unicode="&#xb4;" horiz-adv-x="305" 
d="M110 573q-19 0 -29 16t-2 32l40 83h110l-93 -118q-10 -13 -26 -13z" />
    <glyph glyph-name="paragraph" unicode="&#xb6;" horiz-adv-x="608" 
d="M120 -94q-15 1 -24.5 12.5t-6.5 26.5l100 449q-72 6 -104 60q-31 52 -13 134q19 89 80 142t151 50l200 -6q19 -1 31 -16t8 -33q-3 -14 -15 -23.5t-26 -8.5l-23 1l-171 -767q-5 -25 -33 -25q-16 1 -25.5 13t-5.5 27l168 754l-88 2l-171 -767q-5 -25 -32 -25z" />
    <glyph glyph-name="cedilla" unicode="&#xb8;" horiz-adv-x="335" 
d="M149 -62q-13 1 -20 12.5t-3 23.5l8 28q6 21 29 21q15 0 24 -12t5 -26l-4 -12q40 -5 60 -24q20 -20 20 -45q0 -35 -34 -62t-101 -27q-15 0 -39 2q-12 1 -19.5 10t-6.5 21q1 11 10 19t20 7h16q44 0 62 12q14 9 14 23q0 10 -5 15q-7 7 -20 11q-4 1 -16 3z" />
    <glyph glyph-name="guillemotright" unicode="&#xbb;" horiz-adv-x="487" 
d="M74 192l119 163l-45 168q-4 14 5 25.5t23 10.5q19 0 26 -19l67 -187l-157 -190q-7 -9 -19 -9q-14 1 -20.5 13.5t1.5 24.5zM222 187l118 164l-44 169q-4 14 4.5 25t22.5 10q19 0 26 -18l69 -188l-159 -191q-7 -8 -19 -8q-14 1 -20 13.5t2 23.5z" />
    <glyph glyph-name="questiondown" unicode="&#xbf;" 
d="M384 592q-25 1 -39 26t-8 59l5 26q6 34 28 56.5t47 21.5t39 -26t8 -59l-4 -26q-6 -34 -28.5 -56.5t-47.5 -21.5zM509 -17q4 -24 4 -55q0 -29 -6 -62q-12 -67 -42 -116q-29 -47 -84 -75q-53 -27 -127 -22q-46 3 -93 25q-17 9 -32 18q-70 45 -65 109l3 17q5 26 22 43.5
t36 16.5q15 -1 25 -13.5t12 -32.5q3 -43 19 -74q22 -40 71 -43q32 -2 58 19q27 21 47 63q22 45 32 106q9 52 8 90q-2 44 -10 80q-9 40 -34 101q-23 56 -32 84q-11 36 -14 57q-3 24 -3 44q0 21 6 54l2 7q2 8 7 14.5t11 5.5l52 -4q15 -2 12 -21q-8 -51 -7 -76q2 -30 10 -60
q9 -31 33 -84q38 -85 44 -100q11 -28 21 -59q10 -30 14 -57z" />
    <glyph glyph-name="Agrave" unicode="&#xc0;" horiz-adv-x="2496" 
d="M2615 1615q12 -4 10 -14q-2 -9 -11 -11q-70 -10 -97 -112q-21 -80 -45 -207t-43 -245t-48.5 -260t-61.5 -264.5t-82 -245.5t-110 -215t-146.5 -161t-190.5 -96q-12 -3 -14 10q-1 7 6 11q69 35 119 84l11 11l3 3q1 1 2.5 3t2.5 3q42 45 77 111q22 42 31 63q9 27 11 35
q16 57 23 130q11 120 -15 259q-12 63 -30 127q-21 75 -39 123l-12 30l-12 30l-7 15l-6 15q-2 5 -14 29q-2 4 -6.5 12t-6.5 12q-3 -4 -6.5 -11t-6.5 -10l-11 -17q-63 -95 -108 -161.5t-111.5 -158.5t-120 -157.5t-125.5 -144.5t-135.5 -134t-142.5 -111t-155.5 -91t-164 -59
t-177.5 -29q-315 -19 -493 157q-139 137 -155 352q-16 210 91 399q113 200 319 291q123 55 268 62q48 3 103 -6q8 17 20 35q15 23 41 53q46 52 101 87q111 72 251 88q66 8 134 3q64 -3 133 -20q132 -33 245 -113q57 -40 104 -87q32 -32 47 -49t43 -53q20 -28 30 -43
q54 81 86.5 129t82 117t83.5 111.5t79.5 93.5t82.5 82.5t79.5 58.5t82.5 41q3 1 9.5 2.5t9.5 2.5l12 3h2q36 6 72 2h2v0zM786 1040q-55 -124 -27 -254q14 -65 45 -120q17 -29 37 -52q14 -16 22 -23q3 -2 7.5 -6.5t8.5 -8t8 -6.5q46 -36 112 -56q19 -6 39 -9q20 68 23 137.5
t-12 135t-47 120t-87 93.5t-127 54q0 -1 -1 -2.5t-1 -2.5zM1883 899q3 4 8.5 12.5t8.5 13.5q-13 23 -39 60q-16 24 -39 52q-14 18 -43 48q-25 26 -46 45q-41 36 -49 42q-105 82 -228 119q-59 19 -127 25q-71 7 -131 1q-71 -7 -128 -26q-68 -23 -117 -56q-58 -38 -98 -86
q-18 -21 -39 -52q-9 -15 -16 -29q92 -20 158 -78t96.5 -136t38 -171t-17.5 -182q22 -1 49 2q37 4 62 11q26 8 58 23q61 31 98 74q16 17 36 50q19 32 28 55q22 56 19 118q-3 60 -34 111t-80 83q-47 31 -107 39q-60 7 -110 -12q-18 -7 -35.5 1.5t-24.5 26.5t1.5 35.5
t26.5 24.5l2 1h2l1 1q40 10 75 11q38 2 76 -6q75 -15 136 -61q62 -46 96 -112q35 -67 35 -141q0 -25 -1 -37q-2 -18 -6 -36q-7 -32 -23 -68q-15 -34 -34 -61q-15 -23 -45 -55q-50 -52 -114 -80t-135 -33q-35 -2 -62 1q-45 -144 -149 -239.5t-251 -102.5q-89 -4 -161.5 26.5
t-116 86t-64 125t-10.5 149t50 152.5q15 24 42 26q16 0 28 -6l2 -1q19 -9 24 -27t-6 -38q-37 -76 -42.5 -156t18.5 -145.5t87.5 -105.5t155.5 -36q125 6 217.5 89t137.5 209q-23 5 -37 10q-72 23 -121 65q-28 23 -48 49q-23 29 -38 57q-32 59 -45 128q-13 70 -4 135
q5 37 13 66q7 27 24 64v1q-45 6 -91 5q-220 -9 -381 -182q-138 -149 -181 -360q-45 -219 35 -392q89 -192 304 -250q91 -25 201 -23q96 2 191.5 30t178.5 72.5t168.5 113.5t156.5 140t148 164.5t136.5 175.5t129.5 184q22 31 62 91.5t44 66.5zM2089 271q29 109 67 286
t69 314t72.5 284t97 257t123.5 171q-46 -14 -92 -43.5t-95 -79t-90.5 -97.5t-97.5 -126.5t-94.5 -135t-101.5 -152.5q13 -22 28 -49l15 -30q1 -2 3.5 -7.5t3.5 -8.5l7 -15q9 -21 25 -63q26 -70 40 -129q17 -73 22 -134q12 -137 -13 -268q-6 -35 -20 -84q10 28 17.5 55.5
t10.5 41.5zM2174 1601l-73 175q-5 14 0.5 23.5t18.5 9.5h40q13 0 24 -9t13 -22l34 -175q2 -11 -4 -19t-17 -8q-25 0 -36 25z" />
    <glyph glyph-name="Aacute" unicode="&#xc1;" horiz-adv-x="2496" 
d="M2615 1615q12 -4 10 -14q-2 -9 -11 -11q-70 -10 -97 -112q-21 -80 -45 -207t-43 -245t-48.5 -260t-61.5 -264.5t-82 -245.5t-110 -215t-146.5 -161t-190.5 -96q-12 -3 -14 10q-1 7 6 11q69 35 119 84l11 11l3 3q1 1 2.5 3t2.5 3q42 45 77 111q22 42 31 63q9 27 11 35
q16 57 23 130q11 120 -15 259q-12 63 -30 127q-21 75 -39 123l-12 30l-12 30l-7 15l-6 15q-2 5 -14 29q-2 4 -6.5 12t-6.5 12q-3 -4 -6.5 -11t-6.5 -10l-11 -17q-63 -95 -108 -161.5t-111.5 -158.5t-120 -157.5t-125.5 -144.5t-135.5 -134t-142.5 -111t-155.5 -91t-164 -59
t-177.5 -29q-315 -19 -493 157q-139 137 -155 352q-16 210 91 399q113 200 319 291q123 55 268 62q48 3 103 -6q8 17 20 35q15 23 41 53q46 52 101 87q111 72 251 88q66 8 134 3q64 -3 133 -20q132 -33 245 -113q57 -40 104 -87q32 -32 47 -49t43 -53q20 -28 30 -43
q54 81 86.5 129t82 117t83.5 111.5t79.5 93.5t82.5 82.5t79.5 58.5t82.5 41q3 1 9.5 2.5t9.5 2.5l12 3h2q36 6 72 2h2v0zM786 1040q-55 -124 -27 -254q14 -65 45 -120q17 -29 37 -52q14 -16 22 -23q3 -2 7.5 -6.5t8.5 -8t8 -6.5q46 -36 112 -56q19 -6 39 -9q20 68 23 137.5
t-12 135t-47 120t-87 93.5t-127 54q0 -1 -1 -2.5t-1 -2.5zM1883 899q3 4 8.5 12.5t8.5 13.5q-13 23 -39 60q-16 24 -39 52q-14 18 -43 48q-25 26 -46 45q-41 36 -49 42q-105 82 -228 119q-59 19 -127 25q-71 7 -131 1q-71 -7 -128 -26q-68 -23 -117 -56q-58 -38 -98 -86
q-18 -21 -39 -52q-9 -15 -16 -29q92 -20 158 -78t96.5 -136t38 -171t-17.5 -182q22 -1 49 2q37 4 62 11q26 8 58 23q61 31 98 74q16 17 36 50q19 32 28 55q22 56 19 118q-3 60 -34 111t-80 83q-47 31 -107 39q-60 7 -110 -12q-18 -7 -35.5 1.5t-24.5 26.5t1.5 35.5
t26.5 24.5l2 1h2l1 1q40 10 75 11q38 2 76 -6q75 -15 136 -61q62 -46 96 -112q35 -67 35 -141q0 -25 -1 -37q-2 -18 -6 -36q-7 -32 -23 -68q-15 -34 -34 -61q-15 -23 -45 -55q-50 -52 -114 -80t-135 -33q-35 -2 -62 1q-45 -144 -149 -239.5t-251 -102.5q-89 -4 -161.5 26.5
t-116 86t-64 125t-10.5 149t50 152.5q15 24 42 26q16 0 28 -6l2 -1q19 -9 24 -27t-6 -38q-37 -76 -42.5 -156t18.5 -145.5t87.5 -105.5t155.5 -36q125 6 217.5 89t137.5 209q-23 5 -37 10q-72 23 -121 65q-28 23 -48 49q-23 29 -38 57q-32 59 -45 128q-13 70 -4 135
q5 37 13 66q7 27 24 64v1q-45 6 -91 5q-220 -9 -381 -182q-138 -149 -181 -360q-45 -219 35 -392q89 -192 304 -250q91 -25 201 -23q96 2 191.5 30t178.5 72.5t168.5 113.5t156.5 140t148 164.5t136.5 175.5t129.5 184q22 31 62 91.5t44 66.5zM2089 271q29 109 67 286
t69 314t72.5 284t97 257t123.5 171q-46 -14 -92 -43.5t-95 -79t-90.5 -97.5t-97.5 -126.5t-94.5 -135t-101.5 -152.5q13 -22 28 -49l15 -30q1 -2 3.5 -7.5t3.5 -8.5l7 -15q9 -21 25 -63q26 -70 40 -129q17 -73 22 -134q12 -137 -13 -268q-6 -35 -20 -84q10 28 17.5 55.5
t10.5 41.5zM2185 1576q-11 0 -17 8t-4 19l34 175q2 13 13 22t24 9h39q13 0 19 -9.5t1 -23.5l-74 -175q-11 -25 -35 -25z" />
    <glyph glyph-name="Acircumflex" unicode="&#xc2;" horiz-adv-x="2496" 
d="M2615 1615q12 -4 10 -14q-2 -9 -11 -11q-70 -10 -97 -112q-21 -80 -45 -207t-43 -245t-48.5 -260t-61.5 -264.5t-82 -245.5t-110 -215t-146.5 -161t-190.5 -96q-12 -3 -14 10q-1 7 6 11q69 35 119 84l11 11l3 3q1 1 2.5 3t2.5 3q42 45 77 111q22 42 31 63q9 27 11 35
q16 57 23 130q11 120 -15 259q-12 63 -30 127q-21 75 -39 123l-12 30l-12 30l-7 15l-6 15q-2 5 -14 29q-2 4 -6.5 12t-6.5 12q-3 -4 -6.5 -11t-6.5 -10l-11 -17q-63 -95 -108 -161.5t-111.5 -158.5t-120 -157.5t-125.5 -144.5t-135.5 -134t-142.5 -111t-155.5 -91t-164 -59
t-177.5 -29q-315 -19 -493 157q-139 137 -155 352q-16 210 91 399q113 200 319 291q123 55 268 62q48 3 103 -6q8 17 20 35q15 23 41 53q46 52 101 87q111 72 251 88q66 8 134 3q64 -3 133 -20q132 -33 245 -113q57 -40 104 -87q32 -32 47 -49t43 -53q20 -28 30 -43
q54 81 86.5 129t82 117t83.5 111.5t79.5 93.5t82.5 82.5t79.5 58.5t82.5 41q3 1 9.5 2.5t9.5 2.5l12 3h2q36 6 72 2h2v0zM786 1040q-55 -124 -27 -254q14 -65 45 -120q17 -29 37 -52q14 -16 22 -23q3 -2 7.5 -6.5t8.5 -8t8 -6.5q46 -36 112 -56q19 -6 39 -9q20 68 23 137.5
t-12 135t-47 120t-87 93.5t-127 54q0 -1 -1 -2.5t-1 -2.5zM1883 899q3 4 8.5 12.5t8.5 13.5q-13 23 -39 60q-16 24 -39 52q-14 18 -43 48q-25 26 -46 45q-41 36 -49 42q-105 82 -228 119q-59 19 -127 25q-71 7 -131 1q-71 -7 -128 -26q-68 -23 -117 -56q-58 -38 -98 -86
q-18 -21 -39 -52q-9 -15 -16 -29q92 -20 158 -78t96.5 -136t38 -171t-17.5 -182q22 -1 49 2q37 4 62 11q26 8 58 23q61 31 98 74q16 17 36 50q19 32 28 55q22 56 19 118q-3 60 -34 111t-80 83q-47 31 -107 39q-60 7 -110 -12q-18 -7 -35.5 1.5t-24.5 26.5t1.5 35.5
t26.5 24.5l2 1h2l1 1q40 10 75 11q38 2 76 -6q75 -15 136 -61q62 -46 96 -112q35 -67 35 -141q0 -25 -1 -37q-2 -18 -6 -36q-7 -32 -23 -68q-15 -34 -34 -61q-15 -23 -45 -55q-50 -52 -114 -80t-135 -33q-35 -2 -62 1q-45 -144 -149 -239.5t-251 -102.5q-89 -4 -161.5 26.5
t-116 86t-64 125t-10.5 149t50 152.5q15 24 42 26q16 0 28 -6l2 -1q19 -9 24 -27t-6 -38q-37 -76 -42.5 -156t18.5 -145.5t87.5 -105.5t155.5 -36q125 6 217.5 89t137.5 209q-23 5 -37 10q-72 23 -121 65q-28 23 -48 49q-23 29 -38 57q-32 59 -45 128q-13 70 -4 135
q5 37 13 66q7 27 24 64v1q-45 6 -91 5q-220 -9 -381 -182q-138 -149 -181 -360q-45 -219 35 -392q89 -192 304 -250q91 -25 201 -23q96 2 191.5 30t178.5 72.5t168.5 113.5t156.5 140t148 164.5t136.5 175.5t129.5 184q22 31 62 91.5t44 66.5zM2089 271q29 109 67 286
t69 314t72.5 284t97 257t123.5 171q-46 -14 -92 -43.5t-95 -79t-90.5 -97.5t-97.5 -126.5t-94.5 -135t-101.5 -152.5q13 -22 28 -49l15 -30q1 -2 3.5 -7.5t3.5 -8.5l7 -15q9 -21 25 -63q26 -70 40 -129q17 -73 22 -134q12 -137 -13 -268q-6 -35 -20 -84q10 28 17.5 55.5
t10.5 41.5zM2022 1582q-10 0 -14.5 8.5t-0.5 16.5l131 270q8 15 26 15q17 0 24 -17l113 -277q4 -9 -1 -16.5t-15 -7.5q-11 0 -16 11l-106 269l-124 -262q-5 -10 -17 -10z" />
    <glyph glyph-name="Atilde" unicode="&#xc3;" horiz-adv-x="2496" 
d="M2615 1615q12 -4 10 -14q-2 -9 -11 -11q-70 -10 -97 -112q-21 -80 -45 -207t-43 -245t-48.5 -260t-61.5 -264.5t-82 -245.5t-110 -215t-146.5 -161t-190.5 -96q-12 -3 -14 10q-1 7 6 11q69 35 119 84l11 11l3 3q1 1 2.5 3t2.5 3q42 45 77 111q22 42 31 63q9 27 11 35
q16 57 23 130q11 120 -15 259q-12 63 -30 127q-21 75 -39 123l-12 30l-12 30l-7 15l-6 15q-2 5 -14 29q-2 4 -6.5 12t-6.5 12q-3 -4 -6.5 -11t-6.5 -10l-11 -17q-63 -95 -108 -161.5t-111.5 -158.5t-120 -157.5t-125.5 -144.5t-135.5 -134t-142.5 -111t-155.5 -91t-164 -59
t-177.5 -29q-315 -19 -493 157q-139 137 -155 352q-16 210 91 399q113 200 319 291q123 55 268 62q48 3 103 -6q8 17 20 35q15 23 41 53q46 52 101 87q111 72 251 88q66 8 134 3q64 -3 133 -20q132 -33 245 -113q57 -40 104 -87q32 -32 47 -49t43 -53q20 -28 30 -43
q54 81 86.5 129t82 117t83.5 111.5t79.5 93.5t82.5 82.5t79.5 58.5t82.5 41q3 1 9.5 2.5t9.5 2.5l12 3h2q36 6 72 2h2v0zM786 1040q-55 -124 -27 -254q14 -65 45 -120q17 -29 37 -52q14 -16 22 -23q3 -2 7.5 -6.5t8.5 -8t8 -6.5q46 -36 112 -56q19 -6 39 -9q20 68 23 137.5
t-12 135t-47 120t-87 93.5t-127 54q0 -1 -1 -2.5t-1 -2.5zM1883 899q3 4 8.5 12.5t8.5 13.5q-13 23 -39 60q-16 24 -39 52q-14 18 -43 48q-25 26 -46 45q-41 36 -49 42q-105 82 -228 119q-59 19 -127 25q-71 7 -131 1q-71 -7 -128 -26q-68 -23 -117 -56q-58 -38 -98 -86
q-18 -21 -39 -52q-9 -15 -16 -29q92 -20 158 -78t96.5 -136t38 -171t-17.5 -182q22 -1 49 2q37 4 62 11q26 8 58 23q61 31 98 74q16 17 36 50q19 32 28 55q22 56 19 118q-3 60 -34 111t-80 83q-47 31 -107 39q-60 7 -110 -12q-18 -7 -35.5 1.5t-24.5 26.5t1.5 35.5
t26.5 24.5l2 1h2l1 1q40 10 75 11q38 2 76 -6q75 -15 136 -61q62 -46 96 -112q35 -67 35 -141q0 -25 -1 -37q-2 -18 -6 -36q-7 -32 -23 -68q-15 -34 -34 -61q-15 -23 -45 -55q-50 -52 -114 -80t-135 -33q-35 -2 -62 1q-45 -144 -149 -239.5t-251 -102.5q-89 -4 -161.5 26.5
t-116 86t-64 125t-10.5 149t50 152.5q15 24 42 26q16 0 28 -6l2 -1q19 -9 24 -27t-6 -38q-37 -76 -42.5 -156t18.5 -145.5t87.5 -105.5t155.5 -36q125 6 217.5 89t137.5 209q-23 5 -37 10q-72 23 -121 65q-28 23 -48 49q-23 29 -38 57q-32 59 -45 128q-13 70 -4 135
q5 37 13 66q7 27 24 64v1q-45 6 -91 5q-220 -9 -381 -182q-138 -149 -181 -360q-45 -219 35 -392q89 -192 304 -250q91 -25 201 -23q96 2 191.5 30t178.5 72.5t168.5 113.5t156.5 140t148 164.5t136.5 175.5t129.5 184q22 31 62 91.5t44 66.5zM2089 271q29 109 67 286
t69 314t72.5 284t97 257t123.5 171q-46 -14 -92 -43.5t-95 -79t-90.5 -97.5t-97.5 -126.5t-94.5 -135t-101.5 -152.5q13 -22 28 -49l15 -30q1 -2 3.5 -7.5t3.5 -8.5l7 -15q9 -21 25 -63q26 -70 40 -129q17 -73 22 -134q12 -137 -13 -268q-6 -35 -20 -84q10 28 17.5 55.5
t10.5 41.5zM1812 1599q-15 10 -1 29q35 45 77 77q51 39 108 39t126 -52q68 -51 109 -51t75 22q28 19 58 50q18 18 32 6l3 -3q15 -13 -1 -30q-30 -34 -75 -69q-58 -44 -123 -44q-63 0 -129 51q-67 52 -109 52q-34 0 -68 -23q-25 -16 -50 -46q-16 -19 -32 -8z" />
    <glyph glyph-name="Adieresis" unicode="&#xc4;" horiz-adv-x="2496" 
d="M2615 1615q12 -4 10 -14q-2 -9 -11 -11q-70 -10 -97 -112q-21 -80 -45 -207t-43 -245t-48.5 -260t-61.5 -264.5t-82 -245.5t-110 -215t-146.5 -161t-190.5 -96q-12 -3 -14 10q-1 7 6 11q69 35 119 84l11 11l3 3q1 1 2.5 3t2.5 3q42 45 77 111q22 42 31 63q9 27 11 35
q16 57 23 130q11 120 -15 259q-12 63 -30 127q-21 75 -39 123l-12 30l-12 30l-7 15l-6 15q-2 5 -14 29q-2 4 -6.5 12t-6.5 12q-3 -4 -6.5 -11t-6.5 -10l-11 -17q-63 -95 -108 -161.5t-111.5 -158.5t-120 -157.5t-125.5 -144.5t-135.5 -134t-142.5 -111t-155.5 -91t-164 -59
t-177.5 -29q-315 -19 -493 157q-139 137 -155 352q-16 210 91 399q113 200 319 291q123 55 268 62q48 3 103 -6q8 17 20 35q15 23 41 53q46 52 101 87q111 72 251 88q66 8 134 3q64 -3 133 -20q132 -33 245 -113q57 -40 104 -87q32 -32 47 -49t43 -53q20 -28 30 -43
q54 81 86.5 129t82 117t83.5 111.5t79.5 93.5t82.5 82.5t79.5 58.5t82.5 41q3 1 9.5 2.5t9.5 2.5l12 3h2q36 6 72 2h2v0zM786 1040q-55 -124 -27 -254q14 -65 45 -120q17 -29 37 -52q14 -16 22 -23q3 -2 7.5 -6.5t8.5 -8t8 -6.5q46 -36 112 -56q19 -6 39 -9q20 68 23 137.5
t-12 135t-47 120t-87 93.5t-127 54q0 -1 -1 -2.5t-1 -2.5zM1883 899q3 4 8.5 12.5t8.5 13.5q-13 23 -39 60q-16 24 -39 52q-14 18 -43 48q-25 26 -46 45q-41 36 -49 42q-105 82 -228 119q-59 19 -127 25q-71 7 -131 1q-71 -7 -128 -26q-68 -23 -117 -56q-58 -38 -98 -86
q-18 -21 -39 -52q-9 -15 -16 -29q92 -20 158 -78t96.5 -136t38 -171t-17.5 -182q22 -1 49 2q37 4 62 11q26 8 58 23q61 31 98 74q16 17 36 50q19 32 28 55q22 56 19 118q-3 60 -34 111t-80 83q-47 31 -107 39q-60 7 -110 -12q-18 -7 -35.5 1.5t-24.5 26.5t1.5 35.5
t26.5 24.5l2 1h2l1 1q40 10 75 11q38 2 76 -6q75 -15 136 -61q62 -46 96 -112q35 -67 35 -141q0 -25 -1 -37q-2 -18 -6 -36q-7 -32 -23 -68q-15 -34 -34 -61q-15 -23 -45 -55q-50 -52 -114 -80t-135 -33q-35 -2 -62 1q-45 -144 -149 -239.5t-251 -102.5q-89 -4 -161.5 26.5
t-116 86t-64 125t-10.5 149t50 152.5q15 24 42 26q16 0 28 -6l2 -1q19 -9 24 -27t-6 -38q-37 -76 -42.5 -156t18.5 -145.5t87.5 -105.5t155.5 -36q125 6 217.5 89t137.5 209q-23 5 -37 10q-72 23 -121 65q-28 23 -48 49q-23 29 -38 57q-32 59 -45 128q-13 70 -4 135
q5 37 13 66q7 27 24 64v1q-45 6 -91 5q-220 -9 -381 -182q-138 -149 -181 -360q-45 -219 35 -392q89 -192 304 -250q91 -25 201 -23q96 2 191.5 30t178.5 72.5t168.5 113.5t156.5 140t148 164.5t136.5 175.5t129.5 184q22 31 62 91.5t44 66.5zM2089 271q29 109 67 286
t69 314t72.5 284t97 257t123.5 171q-46 -14 -92 -43.5t-95 -79t-90.5 -97.5t-97.5 -126.5t-94.5 -135t-101.5 -152.5q13 -22 28 -49l15 -30q1 -2 3.5 -7.5t3.5 -8.5l7 -15q9 -21 25 -63q26 -70 40 -129q17 -73 22 -134q12 -137 -13 -268q-6 -35 -20 -84q10 28 17.5 55.5
t10.5 41.5zM2049 1574q-28 0 -42.5 20t-6.5 48l5 20q7 28 32.5 47.5t53.5 19.5t42 -19.5t7 -47.5l-6 -20q-8 -28 -32.5 -48t-52.5 -20zM2318 1574q-28 0 -42.5 20t-6.5 48l5 20q8 28 32.5 47.5t52.5 19.5t42.5 -19.5t7.5 -47.5l-6 -20q-8 -28 -32.5 -48t-52.5 -20z" />
    <glyph glyph-name="Aring" unicode="&#xc5;" horiz-adv-x="2496" 
d="M2615 1615q12 -4 10 -14q-2 -9 -11 -11q-70 -10 -97 -112q-21 -80 -45 -207t-43 -245t-48.5 -260t-61.5 -264.5t-82 -245.5t-110 -215t-146.5 -161t-190.5 -96q-12 -3 -14 10q-1 7 6 11q69 35 119 84q2 2 5 5.5t5 5.5q1 0 2 1l2 2t2.5 3t2.5 3q42 45 77 111q22 42 31 63
q9 27 11 35q16 57 23 130q11 120 -15 259q-12 63 -30 127q-21 75 -39 123l-12 30l-12 30l-7 15l-6 15q-2 5 -14 29q-2 4 -6.5 12t-6.5 12q-3 -4 -6.5 -11t-6.5 -10l-11 -17q-63 -95 -108 -161.5t-111.5 -158.5t-120 -157.5t-125.5 -144.5t-135.5 -134t-142.5 -111
t-155.5 -91t-164 -59t-177.5 -29q-315 -19 -493 157q-139 137 -155 352q-16 210 91 399q113 200 319 291q123 55 268 62q48 3 103 -6q8 17 20 35q15 23 41 53q46 52 101 87q111 72 251 88q66 8 134 3q64 -3 133 -20q132 -33 245 -113q57 -40 104 -87q32 -32 47 -49t43 -53
q20 -28 30 -43q80 120 130 192t117 159.5t127 145.5t118 95q-50 1 -87 38q-38 38 -38 92q0 53 38 91t92 38t92 -38q37 -37 37 -91q0 -48 -29 -83q1 1 4.5 1t5.5 1h2q36 6 72 2h2v0zM786 1040q-55 -124 -27 -254q14 -65 45 -120q17 -29 37 -52q14 -16 22 -23q3 -2 7.5 -6.5
t8.5 -8t8 -6.5q46 -36 112 -56q19 -6 39 -9q20 68 23 137.5t-12 135t-47 120t-87 93.5t-127 54q0 -1 -1 -2.5t-1 -2.5zM1883 899q3 4 8.5 12.5t8.5 13.5q-13 23 -39 60q-16 24 -39 52q-14 18 -43 48q-25 26 -46 45q-41 36 -49 42q-105 82 -228 119q-59 19 -127 25
q-71 7 -131 1q-71 -7 -128 -26q-68 -23 -117 -56q-58 -38 -98 -86q-18 -21 -39 -52q-9 -15 -16 -29q92 -20 158 -78t96.5 -136t38 -171t-17.5 -182q22 -1 49 2q37 4 62 11q26 8 58 23q61 31 98 74q16 17 36 50q19 32 28 55q22 56 19 118q-3 60 -34 111t-80 83
q-47 31 -107 39q-60 7 -110 -12q-18 -7 -35.5 1.5t-24.5 26.5t1.5 35.5t26.5 24.5l2 1h2l1 1q40 10 75 11q38 2 76 -6q75 -15 136 -61q62 -46 96 -112q35 -67 35 -141q0 -25 -1 -37q-2 -18 -6 -36q-7 -32 -23 -68q-15 -34 -34 -61q-15 -23 -45 -55q-50 -52 -114 -80
t-135 -33q-35 -2 -62 1q-45 -144 -149 -239.5t-251 -102.5q-89 -4 -161.5 26.5t-116 86t-64 125t-10.5 149t50 152.5q15 24 42 26q16 0 28 -6l2 -1q19 -9 24 -27t-6 -38q-37 -76 -42.5 -156t18.5 -145.5t87.5 -105.5t155.5 -36q125 6 217.5 89t137.5 209q-23 5 -37 10
q-72 23 -121 65q-28 23 -48 49q-23 29 -38 57q-32 59 -45 128q-13 70 -4 135q5 37 13 66q7 27 24 64v1q-45 6 -91 5q-220 -9 -381 -182q-138 -149 -181 -360q-45 -219 35 -392q89 -192 304 -250q91 -25 201 -23q96 2 191.5 30t178.5 72.5t168.5 113.5t156.5 140t148 164.5
t136.5 175.5t129.5 184q22 31 62 91.5t44 66.5zM2350 1694q0 -33 23 -56t56 -23q32 0 55 23q24 24 24 56t-24 56q-23 23 -55 23q-33 0 -56 -23t-23 -56zM2089 271q29 109 67 286t69 314t72.5 284t97 257t123.5 171q-46 -14 -92 -43.5t-95 -79t-90.5 -97.5t-97.5 -126.5
t-94.5 -135t-101.5 -152.5q13 -22 28 -49l15 -30q1 -2 3.5 -7.5t3.5 -8.5l7 -15q9 -21 25 -63q24 -63 39 -129q18 -80 23 -134q12 -137 -13 -268q-6 -35 -20 -84q10 28 17.5 55.5t10.5 41.5z" />
    <glyph glyph-name="AE" unicode="&#xc6;" horiz-adv-x="3180" 
d="M2552 1554q-22 -27 -35 -76q-20 -75 -39 -176t-43 -241.5t-40 -224.5h28l195 -3l387 -4q11 0 11 -24q0 -21 -11 -21l-394 5l-194 2h-31q-84 -426 -205 -657q40 -6 118.5 -18t128.5 -19.5t123 -17t126.5 -13t113.5 -4t108 5.5q179 21 222 128q36 -92 16 -159.5t-79 -107
t-139 -42.5q-92 -2 -218 31.5t-294.5 93.5t-247.5 82q-146 -252 -369 -310q-12 -3 -14 10q-1 7 6 11q69 35 119 84q2 2 5 5.5t5 5.5q1 0 2 1l2 2t2.5 3t2.5 3q42 45 77 111q22 42 31 63q9 27 11 35q16 57 23 130q11 120 -15 259q-12 63 -30 127q-21 75 -39 123l-12 30
l-12 30l-7 15l-6 15q-5 14 -14 29q-2 4 -6.5 12t-6.5 12q-3 -4 -6.5 -11t-6.5 -10l-11 -17q-63 -95 -108 -161.5t-111.5 -158.5t-120 -157.5t-125.5 -144.5t-135.5 -134t-142.5 -111t-155.5 -91t-164 -59t-177.5 -29q-315 -19 -493 157q-139 137 -155 352q-16 210 91 399
q113 200 319 291q123 55 268 62q48 3 103 -6q8 17 20 35q15 23 41 53q46 52 101 87q111 72 251 88q66 8 134 3q64 -3 133 -20q132 -33 245 -113q57 -40 104 -87q32 -32 47 -49t43 -53q20 -28 30 -43q54 81 86.5 129t82 117t83.5 111.5t79.5 93.5t82.5 82.5t79.5 58.5
t82.5 41q3 1 9.5 2.5t9.5 2.5l12 3h2q36 6 72 2h2v0q12 -2 10 -14q-2 -9 -11 -11q-21 -4 -36 -13l39 -6q208 -25 331 -26q246 -2 331 86q-19 -95 -66.5 -149.5t-109.5 -59.5q-53 -3 -122.5 8t-122 25t-142 40.5t-135.5 38.5zM786 1040q-54 -121 -27 -254q14 -65 45 -120
q17 -29 37 -52q14 -16 22 -23q3 -2 7.5 -6.5t8.5 -8t8 -6.5q46 -36 112 -56q19 -6 39 -9q20 68 23 137.5t-12 135t-47 120t-87 93.5t-127 54q0 -1 -1 -2.5t-1 -2.5zM1883 899q3 4 8.5 12.5t8.5 13.5q-13 23 -39 60q-16 24 -39 52q-14 18 -43 48q-25 26 -46 45q-41 36 -49 42
q-105 82 -228 119q-59 19 -127 25q-71 7 -131 1q-71 -7 -128 -26q-68 -23 -117 -56q-58 -38 -98 -86q-18 -21 -39 -52q-15 -25 -17 -29q74 -16 131.5 -57t92.5 -97.5t53 -125t17.5 -142t-18.5 -145.5q22 -1 49 2q37 4 62 11q26 8 58 23q61 31 98 74q16 17 36 50q19 32 28 55
q22 56 19 118q-3 60 -34 111t-80 83q-47 31 -107 39q-60 7 -110 -12q-18 -7 -35.5 1.5t-24.5 26.5t1.5 35.5t26.5 24.5l2 1h2l1 1q40 10 75 11q38 2 76 -6q75 -15 136 -61q62 -46 96 -112q35 -67 35 -141q0 -25 -1 -37q-2 -18 -6 -36q-7 -32 -23 -68q-15 -34 -34 -61
q-15 -23 -45 -55q-50 -52 -114 -80t-135 -33q-35 -2 -62 1q-45 -144 -149 -239.5t-251 -102.5q-89 -4 -161.5 26.5t-116 86t-64 125t-10.5 149t50 152.5q15 24 42 26q16 0 28 -6l2 -1q19 -9 24 -27t-6 -38q-37 -76 -42.5 -156t18.5 -145.5t87.5 -105.5t155.5 -36
q125 6 217.5 89t137.5 209q-23 5 -37 10q-72 23 -121 65q-28 23 -48 49q-23 29 -38 57q-32 59 -45 128q-13 70 -4 135q5 37 13 66q7 27 24 64v1q-45 6 -91 5q-220 -9 -381 -182q-138 -149 -181 -360q-45 -219 35 -392q89 -192 304 -250q91 -25 201 -23q96 2 191.5 30
t178.5 72.5t168.5 113.5t156.5 140t148 164.5t136.5 175.5t129.5 184q22 31 62 91.5t44 66.5zM2089 271q29 109 67 286t69 314t72.5 284t97 257t123.5 171q-46 -14 -92 -43.5t-95 -79t-90.5 -97.5t-97.5 -126.5t-94.5 -135t-101.5 -152.5q13 -22 28 -49l15 -30
q1 -2 3.5 -7.5t3.5 -8.5l7 -16q12 -29 25 -62q24 -63 39 -129q18 -80 23 -134q12 -137 -13 -268q-10 -51 -20 -84q10 28 17.5 55.5t10.5 41.5z" />
    <glyph glyph-name="Ccedilla" unicode="&#xc7;" horiz-adv-x="1677" 
d="M1505 1584q93 -5 145 -45.5t58 -101t-22.5 -134t-89.5 -146.5l-11 -12q-4 -5 -12 -13q-3 -4 -9.5 -10.5l-9.5 -9.5q-26 -26 -40 -39q-45 -42 -85 -71q-88 -67 -188 -117q-201 -100 -421 -126q-7 -1 -18 -2.5t-20.5 -2.5t-17.5 -1q-29 -130 -29.5 -243.5t42.5 -206.5
t126 -140q15 -9 36 -16.5t57 -16t84.5 -7.5t100.5 14q1 1 4 1t4 1q101 28 172 93q40 37 67 78q12 16 26 45q9 18 20 49q17 53 20 105q3 58 -11 106q-16 55 -54 90q-19 17 -43 28q-22 10 -50 13q-50 6 -100 -15q-27 -12 -44 -25q-18 -14 -35 -36q-31 -40 -40 -91
q-9 -50 5 -97l9 -21q3 -7 11 -19q11 -17 30 -29t37 -15q7 -1 20 -1q3 0 10 -0.5t11 -0.5h2q16 -1 26.5 -13.5t9.5 -29.5q-1 -15 -11 -25t-24 -12q-16 -2 -31 1q-12 1 -32 7q-35 12 -58 32q-24 20 -41 52q-10 20 -13 30q-5 18 -8 31q-11 58 7 121q18 61 57 102q19 20 44 36
q25 15 52 23t53 9q32 2 54 -2q31 -5 52 -15q22 -10 46 -31q40 -37 59 -93q8 -26 13 -54q5 -32 5 -57q0 -28 -3 -56q-2 -21 -10 -56q-25 -109 -100 -203q-37 -46 -82 -81q-18 -14 -48 -32t-51 -27q-4 -2 -11.5 -5t-13.5 -5.5t-11 -4.5h-1q-37 -14 -73 -21q-39 -8 -56 -10
l-14 -1l-15 -2h-23q-72 -2 -135 17t-101.5 47.5t-67 57t-40.5 48.5l-11 20q-61 103 -68 252.5t37 304.5q-2 0 -7 0.5t-8 0.5q-119 8 -218 40q-111 36 -197 103q-47 38 -80 77q-15 18 -34 45q-17 25 -29 50q-50 103 -39 222t78 213q32 47 80 84q22 18 48 33q22 13 53 25
q52 22 111 31q62 10 116 7q120 -6 224 -62q53 -29 97 -67q26 -23 42 -41q18 -20 38 -46q38 -51 67 -115q256 251 549 233zM689 960q81 179 202 321q-6 20 -19 50l-5 12q-1 2 -2.5 5.5t-2.5 5.5q-2 4 -6 11.5t-6 11.5q-16 30 -26 44q-60 88 -146 139q-91 54 -194 63
q-50 4 -104 -2q-52 -6 -101 -24q-50 -19 -91 -48q-43 -31 -74 -72q-34 -45 -52 -90q-20 -49 -26 -102q-14 -108 30 -207q12 -28 25 -47q16 -23 31 -43q32 -41 76 -77t89 -60q43 -23 100 -43q42 -15 105 -27q45 -9 108 -14q3 0 9 -0.5t9 -0.5q24 86 55 160zM1591 1185
q69 90 88 175t-24 142t-147 59q-137 3 -270 -83.5t-243 -234.5q29 -100 35 -214q1 -21 -13 -36.5t-35 -17.5q-21 -1 -36.5 13t-17.5 35v1l-1 2q0 60 -5 104v2q-71 -118 -115 -241l-10 -27q-17 -51 -29 -97q15 1 50 5q114 13 215 43t203 82q96 49 184 117q39 29 82 71l39 39
q3 3 9 9.5t9 10.5q1 2 5 6t5 6v1l1 1l13 17q1 1 3.5 5t4.5 5zM1011 -70q54 -8 80 -37t26 -65q0 -52 -44 -92q-43 -39 -135 -39q-35 0 -51 2t-26 15.5t-9 30.5q2 17 13.5 28.5t26.5 10.5q5 0 12 -0.5t10 -0.5q58 0 82 18q18 14 18 34q0 14 -7 22q-9 10 -26 17q-13 4 -27 5
t-22 14.5t-4 29.5l13 49q8 32 37 32q20 0 32 -18t6 -39z" />
    <glyph glyph-name="Egrave" unicode="&#xc8;" horiz-adv-x="2281" 
d="M2050 1476q246 -2 331 86q-19 -95 -66.5 -149.5t-109.5 -59.5q-70 -5 -152 11t-213 55.5t-176 50.5q-26 -31 -49 -71q-46 -77 -86 -183q-42 -114 -125 -429q0 -2 -1 -5t-1 -4l398 -3q11 0 11 -11q0 -10 -11 -10l-404 2q-28 -106 -69 -207l-10 -26q-73 -175 -173 -299
q-3 -4 -9.5 -12t-9.5 -12q39 -6 102.5 -15.5t109.5 -17t107.5 -16t111 -13t103 -8.5t102 -3t89.5 6q178 21 221 128q36 -92 16 -159.5t-79 -107t-139 -42.5q-94 -2 -223.5 33t-299 95t-251.5 83q-25 -28 -46 -48l-17 -17l-2 -2q-171 -156 -389 -177q-85 -8 -146.5 -2.5
t-96.5 15.5l-35 10q-107 33 -185.5 102.5t-120 158t-53 193t8 207.5t71 200.5t128 173t187 124t239.5 55.5q22 1 43 0q74 111 191 200q118 88 246 136q44 16 67 22q46 12 69 16q74 13 141 14q68 1 142 -8q46 -6 69 -11l2 -1h3q124 84 282 94q3 0 5 -1h1q7 -3 5 -12
q-2 -6 -9 -8v-1q-55 -4 -103 -26q-33 -15 -59 -35q-15 -10 -36 -30q229 -28 353 -29zM669 850q0 -40 7 -74q8 -40 25 -69q20 -34 48 -57q18 -14 32 -22q3 -1 8.5 -4t8.5 -5q1 -1 5 -2t5 -2l9 -3q39 -13 77 -14q39 -1 78 11h1q22 72 24 146t-16 141.5t-61 122t-107 83.5l-1 1
h-2l-1 1h-1v1l-18 6q-11 4 -38 11q-19 -32 -33 -62.5t-19 -45.5l-4 -15l-6 -18q-1 -3 -2.5 -9.5t-2.5 -9.5q-2 -5 -4 -19q-1 -3 -2 -9t-2 -9q-8 -40 -8 -75zM1147 574q5 17 49 183h-34q-17 -32 -46 -70q-28 -34 -61 -60q-24 -18 -50 -31q-39 -141 -138 -235t-242 -101
q-108 -6 -193 47v-2q-29 19 -47 37v1q-79 76 -92.5 193t47.5 231q13 23 39 25q16 0 27 -6l2 -1q17 -8 22 -25t-5 -36q-34 -68 -40.5 -140t14.5 -132q10 -34 39 -69l-1 -1q17 -20 42 -37q1 -1 2.5 -2t2.5 -2l1 -1h1q1 0 2.5 -1t2.5 -2v0q60 -34 141 -30q116 6 202 81.5
t129 191.5q-37 -10 -69 -10q-44 0 -86 12q-4 1 -11 3.5t-10 3.5q-14 4 -21 7q-18 6 -40 20q-40 23 -69 60q-28 36 -44 81q-16 47 -19 90q-2 30 -1 46q0 15 4 45q1 3 2 11t2 11q2 16 4 22l6 21q1 4 3 11.5t3 10.5q10 28 16 42t20 40q3 4 8 13t8 14q-21 0 -32 -1
q-101 -4 -191.5 -49.5t-156.5 -117.5t-113.5 -165.5t-69.5 -193t-16.5 -199.5t38 -185.5t101.5 -152t167 -96.5v-1h1q1 -1 3.5 -1t3.5 -1h-1q8 -3 21.5 -6.5t54.5 -9.5t80 -6h-1h23q18 0 26 1q137 7 238 77q43 29 82 72t64 83.5t43.5 77t27.5 58.5l8 22q38 93 70 210l2 5z
M1561 1487q2 1 5 3.5t4 3.5q-179 44 -348 -4h-2l-2 -1q-87 -21 -169 -73v1q-176 -103 -283 -272l50 -18q88 -38 142.5 -120.5t64.5 -179t-10 -200.5q49 27 87 74q28 36 39 56l-68 1q-7 0 -9.5 6.5t1.5 11.5q3 3 8 3h79q15 32 24 64q6 19 9 40q3 19 3 40q2 43 -10 79
q-13 41 -37 68q-22 25 -60 42q-30 14 -69 17q-13 1 -35 -1q-5 0 -17 -2q-2 0 -7.5 -1.5t-8.5 -1.5h-2q-19 0 -33 13t-14 32q0 17 9.5 29.5t24.5 16.5q8 2 25 2q9 0 25 -2q34 -4 48 -9q19 -5 45 -18q25 -13 40 -25q37 -28 61 -70q22 -38 30 -84q7 -39 5 -86q-2 -28 -4 -42
q-3 -21 -9 -42q-12 -40 -21 -59h29q2 9 6.5 24.5t6.5 21.5q61 222 143 390t203 271h-1q1 0 1 0.5t1 0.5zM1478 1648l-107 198q-8 14 -3 25t19 11h45q15 0 30.5 -11.5t19.5 -26.5l62 -199q4 -12 -1.5 -19.5t-17.5 -7.5q-13 0 -26.5 8.5t-20.5 21.5z" />
    <glyph glyph-name="Eacute" unicode="&#xc9;" horiz-adv-x="2279" 
d="M2050 1476q246 -2 331 86q-19 -95 -66.5 -149.5t-109.5 -59.5q-70 -5 -152 11t-213 55.5t-176 50.5q-26 -31 -49 -71q-46 -77 -86 -183q-42 -114 -125 -429q0 -2 -1 -5t-1 -4l398 -3q11 0 11 -11q0 -10 -11 -10l-404 2q-28 -106 -69 -207l-10 -26q-73 -175 -173 -299
q-3 -4 -9.5 -12t-9.5 -12q39 -6 102.5 -15.5t109.5 -17t107.5 -16t111 -13t103 -8.5t102 -3t89.5 6q178 21 221 128q36 -92 16 -159.5t-79 -107t-139 -42.5q-94 -2 -223.5 33t-299 95t-251.5 83q-25 -28 -46 -48l-17 -17l-2 -2q-171 -156 -389 -177q-85 -8 -146.5 -2.5
t-96.5 15.5l-35 10q-107 33 -185.5 102.5t-120 158t-53 193t8 207.5t71 200.5t128 173t187 124t239.5 55.5q22 1 43 0q74 111 191 200q118 88 246 136q44 16 67 22q46 12 69 16q74 13 141 14q68 1 142 -8q46 -6 69 -11l2 -1h3q124 84 282 94q3 0 5 -1h1q7 -3 5 -12
q-2 -6 -9 -8v-1q-55 -4 -103 -26q-33 -15 -59 -35q-15 -10 -36 -30q229 -28 353 -29zM669 850q0 -40 7 -74q8 -40 25 -69q20 -34 48 -57q18 -14 32 -22q3 -1 8.5 -4t8.5 -5q1 -1 5 -2t5 -2l9 -3q39 -13 77 -14q39 -1 78 11h1q22 72 24 146t-16 141.5t-61 122t-107 83.5l-1 1
h-2l-1 1h-1v1l-18 6q-11 4 -38 11q-19 -32 -33 -62.5t-19 -45.5l-4 -15l-6 -18q-1 -3 -2.5 -9.5t-2.5 -9.5q-2 -5 -4 -19q-1 -3 -2 -9t-2 -9q-8 -40 -8 -75zM1147 574q5 17 49 183h-34q-17 -32 -46 -70q-28 -34 -61 -60q-24 -18 -50 -31q-39 -141 -138 -235t-242 -101
q-108 -6 -193 47v-2q-29 19 -47 37v1q-79 76 -92.5 193t47.5 231q13 23 39 25q16 0 27 -6l2 -1q17 -8 22 -25t-5 -36q-34 -68 -40.5 -140t14.5 -132q10 -34 39 -69l-1 -1q17 -20 42 -37q1 -1 2.5 -2t2.5 -2l1 -1h1q1 0 2.5 -1t2.5 -2v0q60 -34 141 -30q116 6 202 81.5
t129 191.5q-37 -10 -69 -10q-44 0 -86 12q-4 1 -11 3.5t-10 3.5q-14 4 -21 7q-18 6 -40 20q-40 23 -69 60q-28 36 -44 81q-16 47 -19 90q-2 30 -1 46q0 15 4 45q1 3 2 11t2 11q2 16 4 22l6 21q1 4 3 11.5t3 10.5q10 28 16 42t20 40q3 4 8 13t8 14q-21 0 -32 -1
q-101 -4 -191.5 -49.5t-156.5 -117.5t-113.5 -165.5t-69.5 -193t-16.5 -199.5t38 -185.5t101.5 -152t167 -96.5v-1h1q1 -1 3.5 -1t3.5 -1h-1q8 -3 21.5 -6.5t54.5 -9.5t80 -6h-1h23q18 0 26 1q137 7 238 77q43 29 82 72t64 83.5t43.5 77t27.5 58.5l8 22q38 93 70 210l2 5z
M1561 1487q2 1 5 3.5t4 3.5q-179 44 -348 -4h-2l-2 -1q-87 -21 -169 -73v1q-176 -103 -283 -272l50 -18q88 -38 142.5 -120.5t64.5 -179t-10 -200.5q49 27 87 74q28 36 39 56l-68 1q-7 0 -9.5 6.5t1.5 11.5q3 3 8 3h79q15 32 24 64q6 19 9 40q3 19 3 40q2 43 -10 79
q-13 41 -37 68q-22 25 -60 42q-30 14 -69 17q-13 1 -35 -1q-5 0 -17 -2q-2 0 -7.5 -1.5t-8.5 -1.5h-2q-19 0 -33 13t-14 32q0 17 9.5 29.5t24.5 16.5q8 2 25 2q9 0 25 -2q34 -4 48 -9q19 -5 45 -18q25 -13 40 -25q37 -28 61 -70q22 -38 30 -84q7 -39 5 -86q-2 -28 -4 -42
q-3 -21 -9 -42q-12 -40 -21 -59h29q2 9 6.5 24.5t6.5 21.5q61 222 143 390t203 271h-1q1 0 1 0.5t1 0.5zM1467 1618q-12 0 -18 7.5t-2 19.5l62 199q4 15 19.5 26.5t30.5 11.5h45q14 0 19 -11t-3 -25l-106 -198q-7 -13 -20.5 -21.5t-26.5 -8.5z" />
    <glyph glyph-name="Ecircumflex" unicode="&#xca;" horiz-adv-x="2283" 
d="M2050 1476q246 -2 331 86q-19 -95 -66.5 -149.5t-109.5 -59.5q-70 -5 -152 11t-213 55.5t-176 50.5q-26 -31 -49 -71q-46 -77 -86 -183q-42 -114 -125 -429q0 -2 -1 -5t-1 -4l398 -3q11 0 11 -11q0 -10 -11 -10l-404 2q-28 -106 -69 -207l-10 -26q-73 -175 -173 -299
q-3 -4 -9.5 -12t-9.5 -12q39 -6 102.5 -15.5t109.5 -17t107.5 -16t111 -13t103 -8.5t102 -3t89.5 6q178 21 221 128q36 -92 16 -159.5t-79 -107t-139 -42.5q-94 -2 -223.5 33t-299 95t-251.5 83q-25 -28 -46 -48l-17 -17l-2 -2q-171 -156 -389 -177q-85 -8 -146.5 -2.5
t-96.5 15.5l-35 10q-107 33 -185.5 102.5t-120 158t-53 193t8 207.5t71 200.5t128 173t187 124t239.5 55.5q22 1 43 0q74 111 191 200q118 88 246 136q44 16 67 22q46 12 69 16q74 13 141 14q68 1 142 -8q46 -6 69 -11l2 -1h3q124 84 282 94q3 0 5 -1h1q7 -3 5 -12
q-2 -6 -9 -8v-1q-55 -4 -103 -26q-33 -15 -59 -35q-15 -10 -36 -30q229 -28 353 -29zM669 850q0 -40 7 -74q8 -40 25 -69q20 -34 48 -57q18 -14 32 -22q3 -1 8.5 -4t8.5 -5q1 -1 5 -2t5 -2l9 -3q39 -13 77 -14q39 -1 78 11h1q22 72 24 146t-16 141.5t-61 122t-107 83.5l-1 1
h-2l-1 1h-1v1l-18 6q-11 4 -38 11q-19 -32 -33 -62.5t-19 -45.5l-4 -15l-6 -18q-1 -3 -2.5 -9.5t-2.5 -9.5q-2 -5 -4 -19q-1 -3 -2 -9t-2 -9q-8 -40 -8 -75zM1147 574q5 17 49 183h-34q-17 -32 -46 -70q-28 -34 -61 -60q-24 -18 -50 -31q-39 -141 -138 -235t-242 -101
q-108 -6 -193 47v-2q-29 19 -47 37v1q-79 76 -92.5 193t47.5 231q13 23 39 25q16 0 27 -6l2 -1q17 -8 22 -25t-5 -36q-34 -68 -40.5 -140t14.5 -132q10 -34 39 -69l-1 -1q17 -20 42 -37q1 -1 2.5 -2t2.5 -2l1 -1h1q1 0 2.5 -1t2.5 -2v0q60 -34 141 -30q116 6 202 81.5
t129 191.5q-37 -10 -69 -10q-44 0 -86 12q-4 1 -11 3.5t-10 3.5q-14 4 -21 7q-18 6 -40 20q-40 23 -69 60q-28 36 -44 81q-16 47 -19 90q-2 30 -1 46q0 15 4 45q1 3 2 11t2 11q2 16 4 22l6 21q1 4 3 11.5t3 10.5q10 28 16 42t20 40q3 4 8 13t8 14q-21 0 -32 -1
q-101 -4 -191.5 -49.5t-156.5 -117.5t-113.5 -165.5t-69.5 -193t-16.5 -199.5t38 -185.5t101.5 -152t167 -96.5v-1h1q1 -1 3.5 -1t3.5 -1h-1q8 -3 21.5 -6.5t54.5 -9.5t80 -6h-1h23q18 0 26 1q137 7 238 77q43 29 82 72t64 83.5t43.5 77t27.5 58.5l8 22q38 93 70 210l2 5z
M1561 1487q2 1 5 3.5t4 3.5q-179 44 -348 -4h-2l-2 -1q-87 -21 -169 -73v1q-176 -103 -283 -272l50 -18q88 -38 142.5 -120.5t64.5 -179t-10 -200.5q49 27 87 74q28 36 39 56l-68 1q-7 0 -9.5 6.5t1.5 11.5q3 3 8 3h79q15 32 24 64q6 19 9 40q3 19 3 40q2 43 -10 79
q-13 41 -37 68q-22 25 -60 42q-30 14 -69 17q-13 1 -35 -1q-5 0 -17 -2q-2 0 -7.5 -1.5t-8.5 -1.5h-2q-19 0 -33 13t-14 32q0 17 9.5 29.5t24.5 16.5q8 2 25 2q9 0 25 -2q34 -4 48 -9q19 -5 45 -18q25 -13 40 -25q37 -28 61 -70q22 -38 30 -84q7 -39 5 -86q-2 -28 -4 -42
q-3 -21 -9 -42q-12 -40 -21 -59h29q2 9 6.5 24.5t6.5 21.5q61 222 143 390t203 271h-1q1 0 1 0.5t1 0.5zM1740 1612q-9 0 -13.5 7.5t-0.5 15.5l122 250q7 15 24 15q15 0 22 -16l105 -258q3 -8 -1.5 -15t-13.5 -7q-12 0 -15 10l-99 250l-115 -243q-5 -9 -15 -9z" />
    <glyph glyph-name="Edieresis" unicode="&#xcb;" horiz-adv-x="2281" 
d="M2050 1476q246 -2 331 86q-19 -95 -66.5 -149.5t-109.5 -59.5q-70 -5 -152 11t-213 55.5t-176 50.5q-26 -31 -49 -71q-46 -77 -86 -183q-42 -114 -125 -429q0 -2 -1 -5t-1 -4l398 -3q11 0 11 -11q0 -10 -11 -10l-404 2q-28 -106 -69 -207l-10 -26q-73 -175 -173 -299
q-3 -4 -9.5 -12t-9.5 -12q39 -6 102.5 -15.5t109.5 -17t107.5 -16t111 -13t103 -8.5t102 -3t89.5 6q178 21 221 128q36 -92 16 -159.5t-79 -107t-139 -42.5q-94 -2 -223.5 33t-299 95t-251.5 83q-25 -28 -46 -48l-17 -17l-2 -2q-171 -156 -389 -177q-85 -8 -146.5 -2.5
t-96.5 15.5l-35 10q-107 33 -185.5 102.5t-120 158t-53 193t8 207.5t71 200.5t128 173t187 124t239.5 55.5q22 1 43 0q74 111 191 200q118 88 246 136q44 16 67 22q46 12 69 16q74 13 141 14q68 1 142 -8q46 -6 69 -11l2 -1h3q124 84 282 94q3 0 5 -1h1q7 -3 5 -12
q-2 -6 -9 -8v-1q-55 -4 -103 -26q-33 -15 -59 -35q-15 -10 -36 -30q229 -28 353 -29zM669 850q0 -40 7 -74q8 -40 25 -69q20 -34 48 -57q18 -14 32 -22q3 -1 8.5 -4t8.5 -5q1 -1 5 -2t5 -2l9 -3q39 -13 77 -14q39 -1 78 11h1q22 72 24 146t-16 141.5t-61 122t-107 83.5l-1 1
h-2l-1 1h-1v1l-18 6q-11 4 -38 11q-19 -32 -33 -62.5t-19 -45.5l-4 -15l-6 -18q-1 -3 -2.5 -9.5t-2.5 -9.5q-2 -5 -4 -19q-1 -3 -2 -9t-2 -9q-8 -40 -8 -75zM1147 574q5 17 49 183h-34q-17 -32 -46 -70q-28 -34 -61 -60q-24 -18 -50 -31q-39 -141 -138 -235t-242 -101
q-108 -6 -193 47v-2q-29 19 -47 37v1q-79 76 -92.5 193t47.5 231q13 23 39 25q16 0 27 -6l2 -1q17 -8 22 -25t-5 -36q-34 -68 -40.5 -140t14.5 -132q10 -34 39 -69l-1 -1q17 -20 42 -37q1 -1 2.5 -2t2.5 -2l1 -1h1q1 0 2.5 -1t2.5 -2v0q60 -34 141 -30q116 6 202 81.5
t129 191.5q-37 -10 -69 -10q-44 0 -86 12q-4 1 -11 3.5t-10 3.5q-14 4 -21 7q-18 6 -40 20q-40 23 -69 60q-28 36 -44 81q-16 47 -19 90q-2 30 -1 46q0 15 4 45q1 3 2 11t2 11q2 16 4 22l6 21q1 4 3 11.5t3 10.5q10 28 16 42t20 40q3 4 8 13t8 14q-21 0 -32 -1
q-101 -4 -191.5 -49.5t-156.5 -117.5t-113.5 -165.5t-69.5 -193t-16.5 -199.5t38 -185.5t101.5 -152t167 -96.5v-1h1q1 -1 3.5 -1t3.5 -1h-1q8 -3 21.5 -6.5t54.5 -9.5t80 -6h-1h23q18 0 26 1q137 7 238 77q43 29 82 72t64 83.5t43.5 77t27.5 58.5l8 22q38 93 70 210l2 5z
M1561 1487q2 1 5 3.5t4 3.5q-179 44 -348 -4h-2l-2 -1q-87 -21 -169 -73v1q-176 -103 -283 -272l50 -18q88 -38 142.5 -120.5t64.5 -179t-10 -200.5q49 27 87 74q28 36 39 56l-68 1q-7 0 -9.5 6.5t1.5 11.5q3 3 8 3h79q15 32 24 64q6 19 9 40q3 19 3 40q2 43 -10 79
q-13 41 -37 68q-22 25 -60 42q-30 14 -69 17q-13 1 -35 -1q-5 0 -17 -2q-2 0 -7.5 -1.5t-8.5 -1.5h-2q-19 0 -33 13t-14 32q0 17 9.5 29.5t24.5 16.5q8 2 25 2q9 0 25 -2q34 -4 48 -9q19 -5 45 -18q25 -13 40 -25q37 -28 61 -70q22 -38 30 -84q7 -39 5 -86q-2 -28 -4 -42
q-3 -21 -9 -42q-12 -40 -21 -59h29q2 9 6.5 24.5t6.5 21.5q61 222 143 390t203 271h-1q1 0 1 0.5t1 0.5zM1617 1618q-28 0 -42 19.5t-7 47.5l5 20q8 28 33 48t53 20t42.5 -20t6.5 -48l-5 -20q-7 -28 -32.5 -47.5t-53.5 -19.5zM1886 1618q-28 0 -42 19.5t-7 47.5l5 20
q8 28 32.5 48t52.5 20t42.5 -20t7.5 -48l-6 -20q-8 -28 -32.5 -47.5t-52.5 -19.5z" />
    <glyph glyph-name="Igrave" unicode="&#xcc;" horiz-adv-x="1406" 
d="M1807 1618q7 -3 5 -11q-1 -5 -9 -7v-2q-53 -4 -97 -24q-26 -12 -57 -34q-7 -5 -19 -14t-41.5 -42.5t-51.5 -72.5q-44 -72 -82 -174q-40 -109 -119 -409q-32 -122 -73 -226l-10 -25q-69 -166 -165 -284q-44 -58 -90 -104l-16 -16l-2 -2q-163 -150 -370 -169
q-80 -7 -139 -2t-93 15l-33 10q-102 31 -177 97t-114.5 150.5t-50 184t8 197.5t67.5 190.5t121.5 164.5t178 118.5t228.5 52.5q21 2 41 0q63 95 167 178v1q2 2 7 5.5t8 5.5q94 71 200 116q99 43 214 73t208.5 41t173 16.5t124.5 3.5l44 -1h-2h9q3 0 5 -1h1zM637 888
q0 -42 6 -70q8 -38 25 -66q21 -35 45 -54q13 -12 30 -21q3 -2 9 -4.5t8 -3.5t5 -2t4 -2q2 -1 4.5 -2t3.5 -1q38 -13 74 -14q37 -1 74 11h1q21 68 23 138.5t-15.5 134.5t-58.5 116.5t-102 80.5h-1l-1 1h-2l-1 1q-10 4 -16 6q-12 4 -36 10q-18 -30 -31.5 -59.5t-18.5 -43.5
l-4 -14q-1 -3 -2.5 -8.5t-2.5 -8.5q-4 -12 -5 -18q0 -3 -2 -9t-2 -9t-2 -8.5t-2 -8.5q-7 -42 -7 -72zM1533 1530q72 49 156 71q-125 -4 -244.5 -25t-198.5 -46t-152 -58t-103 -50.5t-54 -33.5q-127 -90 -208 -219l47 -17q125 -54 173 -189.5t15 -286.5q46 25 83 70
q50 62 71 136q6 22 8 38q3 20 3 38q1 39 -9 75q-10 35 -36 64q-24 27 -57 41q-34 15 -66 16q-11 1 -33 -1q-6 0 -16 -2q-2 0 -5 -1t-5.5 -1.5t-4.5 -0.5h-3q-18 0 -31 13t-13 31q0 34 33 43q8 2 23 2q8 0 24 -2q21 -3 45 -9q19 -5 43 -17q18 -9 38 -24q36 -27 58 -66
q21 -38 29 -80q7 -36 5 -82q-2 -26 -4 -40q-4 -28 -8 -40q-9 -33 -30 -75q-18 -36 -44 -68q-30 -37 -57 -58q-24 -18 -48 -29q-38 -134 -132 -224t-230 -96q-104 -6 -184 44v-1q-21 13 -45 35l1 1q-75 72 -88 183.5t45 220.5q12 21 37 23q16 0 25 -5l2 -2q36 -18 16 -57
q-32 -65 -38 -133t14 -126q9 -33 36 -66v-1q17 -21 39 -35h1q1 0 2.5 -2t2.5 -2h1v-1q1 -1 2.5 -1t2.5 -1l1 -1q56 -32 133 -28q110 5 192 77t123 182q-31 -9 -65 -9q-41 0 -82 12q-3 1 -10 3t-10 3q-11 3 -20 7q-16 6 -38 19q-38 23 -65 57q-29 36 -43 77q-15 42 -18 86
q-2 28 -1 43q0 15 4 43l3 21q1 7 5 21l2.5 10l2.5 10l6 21q8 24 16 40q9 19 19 38q13 23 14 25h-29q-96 -4 -182 -47.5t-149 -112t-108.5 -157.5t-66.5 -183.5t-15.5 -190t36.5 -177t96.5 -144.5t158.5 -92h1q1 0 3 -1t3 -1q7 -2 20 -6t52 -9.5t76 -5.5h21q17 0 25 1
q130 6 227 73q64 44 117.5 118.5t74.5 126.5l21 53q34 83 67 200l2 4l5 19q10 38 31 118.5t32 120.5q59 215 139.5 377t199.5 259zM1463 1648l-106 198q-8 14 -3 25t19 11h45q15 0 30.5 -11.5t19.5 -26.5l62 -199q4 -12 -2 -19.5t-18 -7.5q-13 0 -26.5 8.5t-20.5 21.5z" />
    <glyph glyph-name="Iacute" unicode="&#xcd;" horiz-adv-x="1406" 
d="M1807 1618q7 -3 5 -11q-1 -5 -9 -7v-2q-53 -4 -97 -24q-26 -12 -57 -34q-7 -5 -19 -14t-41.5 -42.5t-51.5 -72.5q-44 -72 -82 -174q-40 -109 -119 -409q-32 -122 -73 -226l-10 -25q-69 -166 -165 -284q-44 -58 -90 -104l-16 -16l-2 -2q-163 -150 -370 -169
q-80 -7 -139 -2t-93 15l-33 10q-102 31 -177 97t-114.5 150.5t-50 184t8 197.5t67.5 190.5t121.5 164.5t178 118.5t228.5 52.5q21 2 41 0q63 95 167 178v1q2 2 7 5.5t8 5.5q94 71 200 116q99 43 214 73t208.5 41t173 16.5t124.5 3.5l44 -1h-2h9q3 0 5 -1h1zM637 888
q0 -42 6 -70q8 -38 25 -66q21 -35 45 -54q13 -12 30 -21q3 -2 9 -4.5t8 -3.5t5 -2t4 -2q2 -1 4.5 -2t3.5 -1q38 -13 74 -14q37 -1 74 11h1q21 68 23 138.5t-15.5 134.5t-58.5 116.5t-102 80.5h-1l-1 1h-2l-1 1q-10 4 -16 6q-12 4 -36 10q-18 -30 -31.5 -59.5t-18.5 -43.5
l-4 -14q-1 -3 -2.5 -8.5t-2.5 -8.5q-4 -12 -5 -18q0 -3 -2 -9t-2 -9t-2 -8.5t-2 -8.5q-7 -42 -7 -72zM1533 1530q72 49 156 71q-125 -4 -244.5 -25t-198.5 -46t-152 -58t-103 -50.5t-54 -33.5q-127 -90 -208 -219l47 -17q125 -54 173 -189.5t15 -286.5q46 25 83 70
q50 62 71 136q6 22 8 38q3 20 3 38q1 39 -9 75q-10 35 -36 64q-24 27 -57 41q-34 15 -66 16q-11 1 -33 -1q-6 0 -16 -2q-2 0 -5 -1t-5.5 -1.5t-4.5 -0.5h-3q-18 0 -31 13t-13 31q0 34 33 43q8 2 23 2q8 0 24 -2q21 -3 45 -9q19 -5 43 -17q18 -9 38 -24q36 -27 58 -66
q21 -38 29 -80q7 -36 5 -82q-2 -26 -4 -40q-4 -28 -8 -40q-9 -33 -30 -75q-18 -36 -44 -68q-30 -37 -57 -58q-24 -18 -48 -29q-38 -134 -132 -224t-230 -96q-104 -6 -184 44v-1q-21 13 -45 35l1 1q-75 72 -88 183.5t45 220.5q12 21 37 23q16 0 25 -5l2 -2q36 -18 16 -57
q-32 -65 -38 -133t14 -126q9 -33 36 -66v-1q17 -21 39 -35h1q1 0 2.5 -2t2.5 -2h1v-1q1 -1 2.5 -1t2.5 -1l1 -1q56 -32 133 -28q110 5 192 77t123 182q-31 -9 -65 -9q-41 0 -82 12q-3 1 -10 3t-10 3q-11 3 -20 7q-16 6 -38 19q-38 23 -65 57q-29 36 -43 77q-15 42 -18 86
q-2 28 -1 43q0 15 4 43l3 21q1 7 5 21l2.5 10l2.5 10l6 21q8 24 16 40q9 19 19 38q13 23 14 25h-29q-96 -4 -182 -47.5t-149 -112t-108.5 -157.5t-66.5 -183.5t-15.5 -190t36.5 -177t96.5 -144.5t158.5 -92h1q1 0 3 -1t3 -1q7 -2 20 -6t52 -9.5t76 -5.5h21q17 0 25 1
q130 6 227 73q64 44 117.5 118.5t74.5 126.5l21 53q34 83 67 200l2 4l5 19q10 38 31 118.5t32 120.5q59 215 139.5 377t199.5 259zM1449 1618q-12 0 -18 7.5t-2 19.5l63 199q4 15 19.5 26.5t30.5 11.5h44q14 0 19 -11t-3 -25l-106 -198q-7 -13 -20.5 -21.5t-26.5 -8.5z" />
    <glyph glyph-name="Icircumflex" unicode="&#xce;" horiz-adv-x="1406" 
d="M1807 1618q7 -3 5 -11q-1 -5 -9 -7v-2q-53 -4 -97 -24q-26 -12 -57 -34q-7 -5 -19 -14t-41.5 -42.5t-51.5 -72.5q-44 -72 -82 -174q-40 -109 -119 -409q-32 -122 -73 -226l-10 -25q-69 -166 -165 -284q-44 -58 -90 -104l-16 -16l-2 -2q-163 -150 -370 -169
q-80 -7 -139 -2t-93 15l-33 10q-102 31 -177 97t-114.5 150.5t-50 184t8 197.5t67.5 190.5t121.5 164.5t178 118.5t228.5 52.5q21 2 41 0q64 97 167 179v0q2 2 7 5.5t8 5.5q94 71 200 116q225 99 532 126v1l-1 1l-98 250l-115 -243q-4 -9 -16 -9q-9 0 -13 7.5t0 15.5
l121 250q7 15 24 15q15 0 22 -16l105 -258q2 -4 0 -11q54 4 104.5 5t74.5 0l24 -1h-2h9q3 0 5 -1h1zM637 888q0 -42 6 -70q8 -38 25 -66q21 -35 45 -54q13 -12 30 -21q3 -2 9 -4.5t8 -3.5t5 -2t4 -2q2 -1 4.5 -2t3.5 -1q38 -13 74 -14q37 -1 74 11h1q21 68 23 138.5
t-15.5 134.5t-58.5 116.5t-102 80.5h-1l-1 1h-2l-1 1q-10 4 -16 6q-12 4 -36 10q-18 -30 -31.5 -59.5t-18.5 -43.5l-4 -14q-1 -3 -2.5 -8.5t-2.5 -8.5q-4 -12 -5 -18q0 -3 -2 -9t-2 -9t-2 -8.5t-2 -8.5q-7 -42 -7 -72zM1533 1530q72 49 156 71q-125 -4 -244.5 -25
t-198.5 -46t-152 -58t-103 -50.5t-54 -33.5q-127 -90 -208 -219l47 -17q125 -54 173 -189.5t15 -286.5q46 25 83 70q50 62 71 136q6 22 8 38q3 20 3 38q1 39 -9 75q-10 35 -36 64q-24 27 -57 41q-34 15 -66 16q-11 1 -33 -1q-6 0 -16 -2q-2 0 -5 -1t-5.5 -1.5t-4.5 -0.5h-3
q-18 0 -31 13t-13 31q0 34 33 43q8 2 23 2q8 0 24 -2q21 -3 45 -9q19 -5 43 -17q18 -9 38 -24q36 -27 58 -66q21 -38 29 -80q7 -36 5 -82q-2 -26 -4 -40q-4 -28 -8 -40q-9 -33 -30 -75q-18 -36 -44 -68q-30 -37 -57 -58q-24 -18 -48 -29q-38 -134 -132 -224t-230 -96
q-104 -6 -184 44v-1q-21 13 -45 35l1 1q-75 72 -88 183.5t45 220.5q12 21 37 23q16 0 25 -5l2 -2q36 -18 16 -57q-32 -65 -38 -133t14 -126q9 -33 36 -66v-1q17 -21 39 -35h1q1 0 2.5 -2t2.5 -2h1v-1q1 -1 2.5 -1t2.5 -1l1 -1q56 -32 133 -28q110 5 192 77t123 182
q-31 -9 -65 -9q-41 0 -82 12q-3 1 -10 3t-10 3q-11 3 -20 7q-16 6 -38 19q-38 23 -65 57q-29 36 -43 77q-15 42 -18 86q-2 28 -1 43q0 15 4 43l3 21q1 7 5 21l2.5 10l2.5 10l6 21q8 24 16 40q9 19 19 38q13 23 14 25h-29q-96 -4 -182 -47.5t-149 -112t-108.5 -157.5
t-66.5 -183.5t-15.5 -190t36.5 -177t96.5 -144.5t158.5 -92h1q1 0 3 -1t3 -1q7 -2 20 -6t52 -9.5t76 -5.5h-1h22q17 0 25 1q130 6 227 73q64 44 117.5 118.5t74.5 126.5l21 53q34 83 67 200l2 4l5 19q10 38 31 118.5t32 120.5q59 215 139.5 377t199.5 259z" />
    </font>
</defs>
</svg>
